if (_typeface_js && _typeface_js.loadFace) _typeface_js.loadFace({"glyphs":{"\u0000":{"x_min":0,"x_max":0,"ha":174},"ユ":{"x_min":13.5625,"x_max":160.0625,"ha":174,"o":"m 160 3 l 13 4 l 13 19 l 112 19 l 115 99 l 30 99 l 30 115 l 132 114 l 128 19 l 160 19 l 160 3 "},"Ҿ":{"x_min":42,"x_max":1045,"ha":1122,"o":"m 243 559 q 280 746 249 663 q 364 887 311 829 q 491 976 417 945 q 662 1007 566 1007 q 838 970 765 1007 q 956 867 910 934 q 1024 707 1003 801 q 1045 497 1045 613 l 1045 451 l 376 451 q 402 302 381 368 q 463 191 424 236 q 559 121 502 145 q 692 97 616 97 q 849 112 779 97 q 981 148 919 126 l 981 32 q 930 15 956 23 q 875 1 904 7 q 812 -7 845 -3 q 740 -12 778 -11 l 740 -261 l 614 -261 l 614 -10 q 460 37 527 0 q 347 134 394 75 q 274 274 300 194 q 243 451 248 354 q 94 490 146 451 q 42 612 42 530 q 48 663 42 640 q 61 701 54 685 l 167 701 q 158 669 163 690 q 153 624 153 648 q 222 559 153 559 l 243 559 m 663 895 q 551 873 601 895 q 463 808 500 851 q 403 703 425 766 q 376 559 381 640 l 911 559 q 898 700 911 638 q 856 806 886 763 q 780 873 827 850 q 663 895 733 895 "},"パ":{"x_min":10.859375,"x_max":165.484375,"ha":174,"o":"m 129 123 q 134 135 129 130 q 147 141 139 141 q 160 135 154 141 q 165 123 165 130 q 160 110 165 115 q 147 105 154 105 q 134 110 139 105 q 129 123 129 115 m 139 123 q 141 116 139 118 q 147 114 143 114 q 152 117 150 114 q 155 123 155 119 q 152 128 155 126 q 147 131 150 131 q 141 129 143 131 q 139 123 139 126 m 162 2 l 149 -9 q 104 127 110 38 l 120 129 q 162 2 125 51 m 65 128 q 23 -10 64 44 l 10 0 q 49 128 49 49 l 65 128 "},"‥":{"x_min":12.203125,"x_max":80.703125,"ha":93,"o":"m 33 9 q 31 0 33 3 q 23 -2 28 -2 q 14 0 17 -2 q 12 9 12 3 q 14 18 12 15 q 23 21 17 21 q 31 18 28 21 q 33 9 33 15 m 80 9 q 77 0 80 3 q 69 -2 75 -2 q 61 0 64 -2 q 59 9 59 3 q 61 18 59 15 q 69 21 64 21 q 77 18 75 21 q 80 9 80 15 "},"⇜":{"x_min":18.3125,"x_max":162.78125,"ha":183,"o":"m 93 52 l 78 19 q 76 17 78 17 q 74 19 75 17 l 65 40 l 45 40 l 57 16 q 59 10 59 12 q 57 7 59 7 q 51 10 54 7 l 22 36 q 18 44 18 40 q 22 52 18 48 l 51 78 q 57 81 54 81 q 59 78 59 81 q 57 71 59 76 l 45 48 l 69 48 l 76 35 l 91 69 q 93 71 92 71 q 94 69 94 71 l 112 28 l 130 69 q 132 71 131 71 q 134 69 133 71 l 144 48 l 162 48 l 162 40 l 139 40 l 132 53 l 114 12 q 112 11 113 11 q 111 12 111 11 l 93 52 "},"０":{"x_min":47.46875,"x_max":126.15625,"ha":174,"o":"m 47 62 q 57 110 47 94 q 86 126 67 126 q 116 110 106 126 q 126 62 126 94 q 116 14 126 30 q 86 -1 106 -1 q 57 14 67 -1 q 47 62 47 30 m 110 62 q 104 101 110 90 q 86 112 97 112 q 69 102 75 112 q 63 62 63 91 q 69 22 63 33 q 86 11 75 11 q 104 22 97 11 q 110 62 110 33 "},"Ⅲ":{"x_min":6.109375,"x_max":167.515625,"ha":174,"o":"m 167 0 l 6 0 l 6 8 l 28 12 l 28 111 l 6 115 l 6 124 l 167 124 l 167 115 l 145 111 l 145 12 l 167 8 l 167 0 m 127 12 l 127 111 l 94 111 l 94 12 l 127 12 m 78 12 l 78 111 l 44 111 l 44 12 l 78 12 "},"﹙":{"x_min":31.203125,"x_max":55.609375,"ha":87,"o":"m 46 74 l 55 74 q 40 28 40 54 q 54 -16 40 3 l 46 -16 q 31 28 31 1 q 46 74 31 56 "},"ご":{"x_min":25.765625,"x_max":168.203125,"ha":174,"o":"m 168 125 l 160 118 q 140 142 151 132 l 148 149 q 168 125 160 139 m 155 115 l 147 108 q 128 132 139 123 l 136 139 q 155 115 147 128 m 136 101 l 79 99 q 32 101 54 99 l 32 117 q 86 115 47 115 q 136 117 113 115 l 136 101 m 147 1 q 96 -2 113 -2 q 40 5 54 -2 q 25 29 25 14 q 40 63 25 42 l 52 53 q 40 29 40 38 q 51 17 40 21 q 96 12 62 12 q 147 18 111 12 l 147 1 "},"Ԓ":{"x_min":0,"x_max":899.796875,"ha":929,"o":"m 794 0 l 667 0 l 667 880 l 432 880 q 411 721 421 804 q 389 558 400 638 q 367 406 378 478 q 344 279 355 334 q 311 154 330 209 q 263 61 291 99 q 195 4 234 24 q 99 -16 155 -16 q 46 -11 73 -16 q 0 0 20 -6 l 0 105 q 35 95 15 99 q 76 91 55 91 q 130 113 109 91 q 165 167 151 134 q 188 239 180 200 q 205 315 197 279 q 224 421 214 354 q 248 577 235 488 q 276 771 262 665 q 306 992 291 877 l 794 992 l 794 0 m 899 113 l 899 -87 q 890 -166 899 -131 q 862 -224 881 -201 q 812 -260 842 -248 q 739 -273 782 -273 q 692 -267 713 -273 q 656 -255 670 -261 l 656 -153 q 685 -163 665 -158 q 728 -167 705 -167 q 777 -151 760 -167 q 794 -101 794 -134 l 794 113 l 899 113 "},"◦":{"x_min":25.09375,"x_max":78.671875,"ha":104,"o":"m 78 65 q 70 46 78 54 q 52 38 63 38 q 33 46 41 38 q 25 65 25 54 q 33 83 25 75 q 52 91 41 91 q 70 83 63 91 q 78 65 78 75 m 68 65 q 63 76 68 71 q 52 81 59 81 q 40 76 45 81 q 35 65 35 71 q 40 53 35 58 q 52 48 45 48 q 63 53 59 48 q 68 65 68 58 "},"ņ":{"x_min":118,"x_max":707,"ha":818,"o":"m 583 0 l 583 479 q 547 611 583 567 q 436 655 512 655 q 343 637 381 655 q 283 585 306 620 q 251 501 261 551 q 241 385 241 450 l 241 0 l 118 0 l 118 745 l 218 745 l 236 644 l 242 644 q 283 694 259 673 q 334 730 306 715 q 393 751 362 744 q 457 758 424 758 q 644 693 581 758 q 707 486 707 628 l 707 0 l 583 0 m 300 -288 q 316 -246 307 -271 q 333 -191 325 -220 q 347 -135 341 -163 q 356 -85 354 -107 l 479 -85 l 479 -98 q 464 -141 474 -115 q 438 -197 453 -167 q 404 -255 423 -226 q 366 -307 386 -284 l 300 -307 l 300 -288 "},"ỳ":{"x_min":6.75,"x_max":672.25,"ha":679,"o":"m 6 745 l 134 745 l 280 329 q 300 272 290 301 q 318 212 310 242 q 333 154 327 182 q 341 103 339 126 l 346 103 q 356 149 349 120 q 373 211 364 178 q 392 276 382 244 q 409 330 402 308 l 544 745 l 672 745 l 377 -96 q 336 -195 358 -152 q 285 -270 314 -239 q 217 -317 256 -300 q 123 -334 177 -334 q 62 -330 88 -334 q 18 -322 36 -326 l 18 -223 q 54 -229 32 -226 q 99 -231 75 -231 q 156 -223 132 -231 q 197 -201 179 -216 q 227 -164 215 -186 q 250 -115 240 -142 l 289 -6 l 6 745 m 411 842 l 329 842 q 277 889 305 860 q 223 946 249 917 q 176 1004 197 976 q 144 1049 154 1031 l 144 1064 l 292 1064 q 318 1013 303 1040 q 348 958 332 986 q 380 905 364 931 q 411 860 396 879 l 411 842 "},"қ":{"x_min":118,"x_max":724,"ha":745,"o":"m 517 745 l 650 745 l 369 387 l 593 102 l 724 102 l 724 -258 l 607 -258 l 607 0 l 538 0 l 241 377 l 241 0 l 118 0 l 118 745 l 241 745 l 241 383 l 517 745 "},"ㄡ":{"x_min":20.34375,"x_max":153.28125,"ha":174,"o":"m 153 12 l 141 -1 q 96 40 122 19 q 25 2 66 9 l 20 16 q 84 48 59 25 q 28 77 60 63 l 35 90 q 94 60 64 78 q 122 111 108 78 l 29 111 l 29 126 l 128 126 l 140 113 q 107 52 124 73 q 153 12 132 32 "},"ѕ":{"x_min":61.15625,"x_max":564,"ha":627,"o":"m 564 203 q 544 108 564 149 q 487 40 524 68 q 398 0 450 13 q 281 -14 346 -14 q 154 -2 207 -14 q 61 33 101 9 l 61 146 q 107 125 82 135 q 161 106 133 114 q 219 93 189 98 q 279 88 249 88 q 353 95 323 88 q 403 116 384 103 q 431 150 423 130 q 440 194 440 170 q 433 232 440 215 q 409 265 427 249 q 360 299 391 282 q 280 337 329 316 q 193 378 232 358 q 127 424 154 399 q 86 482 100 449 q 72 560 72 515 q 90 645 72 608 q 143 707 109 682 q 224 745 177 732 q 330 758 272 758 q 451 743 396 758 q 554 706 505 729 l 512 606 q 422 641 468 626 q 329 655 376 655 q 228 632 261 655 q 195 568 195 610 q 203 526 195 544 q 229 493 210 509 q 279 461 248 477 q 358 426 311 445 q 444 385 406 405 q 509 339 482 365 q 549 281 535 314 q 564 203 564 249 "},"⒆":{"x_min":12.203125,"x_max":161.421875,"ha":174,"o":"m 37 130 l 45 130 q 21 61 21 100 q 45 -5 21 24 l 37 -5 q 12 61 12 21 q 37 130 12 103 m 136 -5 l 128 -5 q 152 61 152 24 q 128 130 152 100 l 136 130 q 161 61 161 103 q 136 -5 161 21 m 84 24 l 84 32 q 92 31 87 31 q 110 38 104 31 q 115 61 115 46 l 115 61 q 99 52 110 52 q 84 58 89 52 q 78 75 78 63 q 84 93 78 86 q 101 100 90 100 q 118 91 111 100 q 125 67 125 83 q 117 34 125 45 q 92 23 109 23 q 84 24 88 23 m 101 59 q 111 63 107 59 q 116 73 116 67 q 112 87 116 82 q 101 92 107 92 q 90 88 94 92 q 87 75 87 84 q 90 63 87 67 q 101 59 94 59 m 67 25 l 58 25 l 58 71 q 59 89 58 78 q 52 84 57 88 l 44 78 l 40 84 l 59 99 l 67 99 l 67 25 "},"ｔ":{"x_min":47.46875,"x_max":122.765625,"ha":174,"o":"m 122 12 l 122 1 q 101 -1 111 -1 q 77 5 85 -1 q 69 27 69 12 l 69 81 l 47 81 l 47 89 l 69 93 l 76 118 l 85 118 l 85 92 l 122 92 l 122 81 l 85 81 l 85 27 q 89 14 85 18 q 101 10 93 10 q 122 12 109 10 "},"ŭ":{"x_min":111,"x_max":700,"ha":818,"o":"m 600 0 l 582 99 l 575 99 q 534 48 558 70 q 483 13 511 27 q 424 -7 455 0 q 360 -14 393 -14 q 252 1 299 -14 q 174 50 205 17 q 126 135 142 83 q 111 258 111 186 l 111 745 l 234 745 l 234 264 q 270 132 234 176 q 381 88 306 88 q 474 106 436 88 q 534 158 511 123 q 566 242 556 192 q 576 357 576 292 l 576 745 l 700 745 l 700 0 l 600 0 m 612 1030 q 594 954 609 988 q 553 894 579 920 q 490 855 527 869 q 405 842 453 842 q 318 855 355 842 q 257 893 281 868 q 219 952 232 918 q 204 1030 206 987 l 278 1030 q 290 983 281 1000 q 316 957 300 965 q 355 946 332 948 q 408 943 378 943 q 454 946 432 943 q 494 959 476 949 q 523 985 511 968 q 537 1030 534 1002 l 612 1030 "},"╲":{"x_min":0,"x_max":104.453125,"ha":104,"o":"m 104 25 l 93 15 l 0 109 l 10 119 l 104 25 "},"す":{"x_min":10.859375,"x_max":162.78125,"ha":174,"o":"m 162 101 l 107 101 l 107 75 q 113 53 113 67 q 101 12 113 27 q 60 -14 90 -2 l 52 0 q 98 38 92 11 l 97 39 q 75 27 86 27 q 52 36 62 27 q 43 59 43 46 q 52 81 43 71 q 75 90 61 90 q 85 89 80 90 q 91 85 90 87 l 91 100 l 10 99 l 10 113 l 90 115 q 90 138 90 129 l 105 138 q 106 115 106 130 l 162 116 l 162 101 m 58 59 q 63 47 58 52 q 75 42 68 42 q 89 47 84 42 q 94 60 94 52 q 90 72 94 68 q 76 76 85 76 q 63 71 68 76 q 58 59 58 66 "},"ト":{"x_min":58.328125,"x_max":151.921875,"ha":174,"o":"m 151 63 l 145 48 q 74 69 110 61 l 74 -10 l 58 -10 l 58 134 l 74 134 l 74 85 q 151 63 119 76 "},"┗":{"x_min":37.296875,"x_max":105.796875,"ha":104,"o":"m 105 52 l 37 52 l 37 172 l 67 172 l 67 82 l 105 82 l 105 52 "},"╋":{"x_min":-2.03125,"x_max":105.796875,"ha":104,"o":"m 105 52 l 67 52 l 67 -37 l 37 -37 l 37 52 l -2 52 l -2 82 l 37 82 l 37 172 l 67 172 l 67 82 l 105 82 l 105 52 "},"ԋ":{"x_min":118,"x_max":1136,"ha":1247,"o":"m 241 745 l 241 436 l 611 436 l 611 745 l 735 745 l 735 264 q 742 187 735 220 q 765 132 749 154 q 809 99 782 110 q 876 88 836 88 q 980 132 948 88 q 1012 265 1012 176 l 1012 475 l 1136 475 l 1136 258 q 1120 135 1136 187 q 1071 50 1104 83 q 991 1 1039 17 q 877 -14 942 -14 q 766 1 816 -14 q 682 50 717 17 q 629 135 648 84 q 611 258 611 186 l 611 333 l 241 333 l 241 0 l 118 0 l 118 745 l 241 745 "},"㏄":{"x_min":15.59375,"x_max":158.03125,"ha":174,"o":"m 158 90 l 153 76 q 134 81 143 81 q 115 72 121 81 q 109 46 109 63 q 115 20 109 29 q 133 12 121 12 q 155 16 145 12 l 155 3 q 133 -1 147 -1 q 103 10 114 -1 q 92 46 92 22 q 103 82 92 70 q 134 94 114 94 q 158 90 147 94 m 80 90 l 75 76 q 56 81 65 81 q 37 72 44 81 q 31 46 31 63 q 37 20 31 29 q 56 12 44 12 q 79 16 67 12 l 79 3 q 56 -1 69 -1 q 26 10 37 -1 q 15 46 15 22 q 26 82 15 70 q 56 94 37 94 q 80 90 70 94 "},"）":{"x_min":46.125,"x_max":107.15625,"ha":174,"o":"m 62 -27 l 46 -27 q 90 47 90 0 q 46 124 90 96 l 62 124 q 94 93 82 113 q 107 47 107 72 q 94 2 107 23 q 62 -27 82 -18 "},"⇱":{"x_min":27.125,"x_max":153.28125,"ha":174,"o":"m 27 118 l 153 118 l 153 109 l 35 109 l 35 -8 l 27 -8 l 27 118 m 75 73 l 146 2 l 141 -3 l 69 67 l 61 42 q 56 35 59 35 q 52 42 53 35 l 51 81 l 51 82 q 53 89 51 87 q 61 92 56 92 l 63 92 l 101 90 q 108 86 108 89 q 101 81 108 84 l 75 73 "},"⑾":{"x_min":12.203125,"x_max":161.421875,"ha":174,"o":"m 37 130 l 45 130 q 21 61 21 100 q 45 -5 21 24 l 37 -5 q 12 61 12 21 q 37 130 12 103 m 136 -5 l 128 -5 q 152 61 152 24 q 128 130 152 100 l 136 130 q 161 61 161 103 q 136 -5 161 21 m 71 25 l 63 25 l 63 71 q 63 89 63 79 q 56 84 62 88 l 49 78 l 44 84 l 64 99 l 71 99 l 71 25 m 115 25 l 107 25 l 107 71 l 107 89 l 93 78 l 88 84 l 108 99 l 115 99 l 115 25 "},"k":{"x_min":118,"x_max":684.25,"ha":689,"o":"m 233 384 l 324 500 l 522 745 l 665 745 l 394 422 l 684 0 l 542 0 l 315 341 l 241 286 l 241 0 l 118 0 l 118 1055 l 241 1055 l 241 571 l 230 384 l 233 384 "},"Ù":{"x_min":125,"x_max":845,"ha":970,"o":"m 845 993 l 845 349 q 822 205 845 272 q 755 90 800 139 q 641 13 709 41 q 481 -14 573 -14 q 327 12 394 -14 q 216 86 261 38 q 148 202 171 134 q 125 352 125 269 l 125 991 l 251 991 l 251 346 q 309 162 251 227 q 487 97 368 97 q 591 115 548 97 q 663 167 635 133 q 704 246 690 200 q 718 347 718 292 l 718 993 l 845 993 m 575 1071 l 493 1071 q 441 1118 469 1089 q 387 1175 413 1146 q 340 1233 361 1205 q 308 1278 318 1260 l 308 1293 l 456 1293 q 482 1242 467 1269 q 512 1187 496 1215 q 544 1134 528 1160 q 575 1089 560 1108 l 575 1071 "},"Ҷ":{"x_min":113,"x_max":901,"ha":917,"o":"m 901 111 l 901 -261 l 774 -261 l 774 0 l 655 0 l 655 406 q 580 379 616 391 q 511 360 545 368 q 445 349 478 353 q 379 345 412 345 q 266 361 316 345 q 183 410 217 378 q 130 489 148 441 q 113 596 113 536 l 113 992 l 239 992 l 239 612 q 274 495 239 534 q 393 456 310 456 q 454 459 424 456 q 516 469 485 463 q 583 486 548 476 q 655 510 617 496 l 655 992 l 782 992 l 782 111 l 901 111 "},"┢":{"x_min":37.296875,"x_max":105.796875,"ha":104,"o":"m 105 52 l 67 52 l 67 -37 l 37 -37 l 37 82 l 44 82 l 44 172 l 59 172 l 59 82 l 105 82 l 105 52 "},"ㄏ":{"x_min":18.3125,"x_max":155.3125,"ha":174,"o":"m 155 109 l 57 109 q 51 39 56 63 q 31 -7 45 14 l 18 2 q 36 47 31 22 q 42 125 42 72 l 155 125 l 155 109 "},"⒤":{"x_min":12.203125,"x_max":161.421875,"ha":174,"o":"m 37 130 l 45 130 q 21 61 21 100 q 45 -5 21 24 l 37 -5 q 12 61 12 21 q 37 130 12 103 m 136 -5 l 128 -5 q 152 61 152 24 q 128 130 152 100 l 136 130 q 161 61 161 103 q 136 -5 161 21 m 92 97 q 86 92 92 92 q 81 97 81 92 q 86 103 81 103 q 92 97 92 103 m 82 73 l 68 74 l 68 80 l 91 80 l 91 31 l 109 31 l 109 25 l 64 25 l 64 31 l 82 31 l 82 73 "},"∝":{"x_min":44.765625,"x_max":129.546875,"ha":174,"o":"m 128 35 q 122 33 126 33 q 95 52 105 33 q 69 34 84 34 q 51 42 58 34 q 44 61 44 49 q 51 80 44 72 q 69 88 59 88 q 95 69 85 88 q 122 87 106 87 q 129 86 126 87 l 124 75 q 120 76 123 76 q 101 61 110 76 q 120 45 110 45 l 124 45 l 128 35 m 89 61 q 70 76 81 76 q 60 72 64 76 q 55 61 55 67 q 59 49 55 54 q 70 45 63 45 q 89 61 81 45 "},"ⓡ":{"x_min":18.3125,"x_max":155.3125,"ha":174,"o":"m 155 62 q 134 14 155 34 q 86 -5 114 -5 q 38 14 59 -5 q 18 62 18 34 q 38 110 18 90 q 86 130 58 130 q 135 110 115 130 q 155 62 155 90 m 148 62 q 130 105 148 87 q 86 124 111 124 q 43 105 61 124 q 25 62 25 87 q 43 19 25 37 q 86 1 61 1 q 130 19 111 1 q 148 62 148 37 m 108 86 l 105 78 q 94 80 100 80 q 81 75 85 80 q 77 61 77 71 l 77 31 l 67 31 l 67 87 l 75 87 l 76 77 q 96 88 84 88 q 108 86 101 88 "},"Ẹ":{"x_min":135,"x_max":650,"ha":733,"o":"m 650 0 l 135 0 l 135 992 l 650 992 l 650 880 l 261 880 l 261 574 l 624 574 l 624 462 l 261 462 l 261 111 l 650 111 l 650 0 m 321 -166 q 343 -107 321 -126 q 399 -89 366 -89 q 454 -107 431 -89 q 476 -166 476 -126 q 471 -201 476 -186 q 454 -225 465 -215 q 429 -239 444 -234 q 399 -244 415 -244 q 343 -225 366 -244 q 321 -166 321 -206 "},"▎":{"x_min":-2.03125,"x_max":25.765625,"ha":104,"o":"m -2 -37 l -2 172 l 25 172 l 25 -37 l -2 -37 "},"≠":{"x_min":69,"x_max":696,"ha":765,"o":"m 237 300 l 69 300 l 69 402 l 285 402 l 367 577 l 69 577 l 69 679 l 414 679 l 504 870 l 598 830 l 526 679 l 696 679 l 696 577 l 479 577 l 396 402 l 696 402 l 696 300 l 349 300 l 260 111 l 167 150 l 237 300 "},"〈":{"x_min":86.8125,"x_max":132.9375,"ha":174,"o":"m 132 -8 l 122 -12 l 86 62 l 122 138 l 132 133 l 99 62 l 132 -8 "},"╤":{"x_min":-2.03125,"x_max":105.796875,"ha":104,"o":"m 105 74 l -2 74 l -2 89 l 105 89 l 105 74 m 105 45 l 59 45 l 59 -37 l 44 -37 l 44 45 l -2 45 l -2 60 l 105 60 l 105 45 "},"ｪ":{"x_min":10.171875,"x_max":75.96875,"ha":87,"o":"m 75 -10 l 10 -10 l 10 2 l 36 2 l 36 69 l 15 69 l 15 82 l 71 82 l 71 69 l 50 69 l 50 2 l 75 2 l 75 -10 "},"⇶":{"x_min":26.453125,"x_max":144.46875,"ha":174,"o":"m 118 111 l 26 111 l 26 120 l 118 120 l 109 135 q 107 142 107 140 q 110 145 107 145 q 115 142 112 145 l 140 123 q 144 115 144 120 q 140 107 144 111 l 115 88 q 110 86 112 86 q 107 88 107 86 q 109 95 107 90 l 118 111 m 118 48 l 26 48 l 26 56 l 118 56 l 109 72 q 107 79 107 77 q 110 82 107 82 q 115 79 111 82 l 140 60 q 144 52 144 56 q 140 44 144 48 l 115 25 q 110 22 112 22 q 107 25 107 22 q 109 32 107 27 l 118 48 m 118 -14 l 26 -14 l 26 -6 l 118 -6 l 109 9 q 107 16 107 14 q 110 18 107 18 q 115 16 112 18 l 140 -3 q 144 -10 144 -6 q 140 -18 144 -14 l 115 -37 q 110 -40 112 -40 q 107 -37 107 -40 q 109 -31 107 -35 l 118 -14 "},"∕":{"x_min":45.4375,"x_max":127.5,"ha":174,"o":"m 127 124 l 59 0 l 45 0 l 114 124 l 127 124 "},"҄":{"x_min":165,"x_max":672,"ha":802,"o":"m 174 937 q 272 949 227 937 q 358 976 317 961 q 436 1002 398 990 q 513 1015 474 1015 q 629 980 587 1015 q 672 873 672 946 l 672 850 l 581 850 l 581 861 q 562 912 581 896 q 511 928 542 928 q 448 915 482 928 q 373 889 414 903 q 282 862 331 874 q 175 850 233 850 l 165 850 l 165 937 l 174 937 "},"⇿":{"x_min":4.75,"x_max":168.875,"ha":174,"o":"m 116 90 q 120 94 116 94 q 123 92 122 94 l 168 48 l 123 2 q 120 1 121 1 q 116 5 116 1 l 116 44 l 56 44 l 56 5 q 53 1 56 1 q 50 2 52 1 l 4 48 l 50 92 q 53 94 52 94 q 56 90 56 94 l 56 52 l 116 52 l 116 90 m 125 16 l 156 48 l 125 79 l 125 16 m 48 79 l 16 48 l 48 16 l 48 79 "},"Ϋ":{"x_min":-0.25,"x_max":731.25,"ha":732,"o":"m 364 490 l 595 992 l 731 992 l 428 386 l 428 0 l 302 0 l 302 379 l 0 992 l 137 992 l 364 490 m 174 1174 q 192 1227 174 1211 q 239 1244 211 1244 q 285 1227 265 1244 q 304 1174 304 1210 q 285 1121 304 1138 q 239 1105 265 1105 q 192 1121 211 1105 q 174 1174 174 1138 m 428 1174 q 447 1227 428 1211 q 493 1244 466 1244 q 518 1239 506 1244 q 539 1227 530 1235 q 553 1206 548 1218 q 559 1174 559 1193 q 539 1121 559 1138 q 493 1105 519 1105 q 447 1121 466 1105 q 428 1174 428 1138 "},"ː":{"x_min":6.78125,"x_max":37.296875,"ha":45,"o":"m 37 92 l 22 69 l 6 92 l 37 92 m 37 0 l 6 0 l 22 23 l 37 0 "},"҆":{"x_min":326.109375,"x_max":490,"ha":802,"o":"m 490 991 q 449 899 490 938 q 326 840 408 860 l 326 891 q 386 921 366 905 q 405 953 405 936 q 400 967 405 962 q 388 976 395 972 q 372 984 380 980 q 356 992 363 987 q 344 1005 349 997 q 339 1025 339 1013 q 355 1064 339 1051 q 404 1077 372 1077 q 466 1053 443 1077 q 490 991 490 1029 "},"ö":{"x_min":77,"x_max":725,"ha":802,"o":"m 725 373 q 702 208 725 280 q 637 86 679 135 q 534 11 594 37 q 398 -14 474 -14 q 270 11 329 -14 q 168 86 211 37 q 101 208 125 135 q 77 373 77 280 q 99 537 77 465 q 164 657 122 608 q 267 732 206 707 q 403 758 327 758 q 531 732 472 758 q 633 657 590 707 q 700 537 676 608 q 725 373 725 465 m 204 373 q 250 159 204 231 q 401 88 297 88 q 551 159 506 88 q 597 373 597 231 q 551 585 597 515 q 400 655 504 655 q 250 585 295 655 q 204 373 204 515 m 204 945 q 222 998 204 982 q 269 1015 241 1015 q 315 998 295 1015 q 334 945 334 981 q 315 892 334 909 q 269 876 295 876 q 222 892 241 876 q 204 945 204 909 m 458 945 q 477 998 458 982 q 523 1015 496 1015 q 548 1010 536 1015 q 569 998 560 1006 q 583 977 578 989 q 589 945 589 964 q 569 892 589 909 q 523 876 549 876 q 477 892 496 876 q 458 945 458 909 "},"↲":{"x_min":22.375,"x_max":121.40625,"ha":174,"o":"m 50 0 l 113 0 l 113 126 l 121 126 l 121 -8 l 50 -8 l 61 -31 q 64 -38 64 -36 q 61 -41 64 -41 q 55 -37 59 -41 l 26 -11 q 22 -4 22 -8 q 26 3 22 0 l 55 29 q 61 33 59 33 q 64 30 64 33 q 61 23 64 28 l 50 0 "},"￢":{"x_min":47.46875,"x_max":126.15625,"ha":174,"o":"m 126 67 l 126 22 l 113 22 l 113 54 l 47 54 l 47 67 l 126 67 "},"▥":{"x_min":14.921875,"x_max":89.53125,"ha":104,"o":"m 89 102 l 89 27 l 14 27 l 14 102 l 89 102 m 31 96 l 21 96 l 21 33 l 31 33 l 31 96 m 48 96 l 37 96 l 37 33 l 48 33 l 48 96 m 65 96 l 54 96 l 54 33 l 65 33 l 65 96 m 82 96 l 72 96 l 72 33 l 82 33 l 82 96 "},"╧":{"x_min":-2.03125,"x_max":105.796875,"ha":104,"o":"m 105 74 l -2 74 l -2 89 l 44 89 l 44 172 l 59 172 l 59 89 l 105 89 l 105 74 m 105 45 l -2 45 l -2 60 l 105 60 l 105 45 "},"ⓢ":{"x_min":18.3125,"x_max":155.3125,"ha":174,"o":"m 155 62 q 134 14 155 34 q 86 -5 114 -5 q 38 14 59 -5 q 18 62 18 34 q 38 110 18 90 q 86 130 58 130 q 135 110 115 130 q 155 62 155 90 m 148 62 q 130 105 148 87 q 86 124 111 124 q 43 105 61 124 q 25 62 25 87 q 43 19 25 37 q 86 1 61 1 q 130 19 111 1 q 148 62 148 37 m 64 37 l 64 46 q 83 42 74 42 q 93 44 90 42 q 97 50 97 46 q 95 54 97 52 q 82 61 92 56 q 68 68 71 65 q 65 77 65 72 q 71 88 65 84 q 86 92 76 92 q 105 88 96 92 l 102 80 q 86 84 94 84 q 77 82 80 84 q 74 77 74 80 q 76 73 74 74 q 89 67 78 71 q 103 59 100 63 q 106 50 106 55 q 100 37 106 42 q 83 33 94 33 q 64 37 71 33 "},"8":{"x_min":72,"x_max":694,"ha":765,"o":"m 383 1007 q 490 992 440 1007 q 579 947 540 977 q 639 873 617 917 q 662 768 662 828 q 648 686 662 723 q 610 620 634 650 q 554 568 587 591 q 483 525 521 544 q 561 478 523 504 q 628 420 598 453 q 675 348 657 388 q 694 258 694 308 q 671 145 694 196 q 607 59 648 94 q 509 5 566 24 q 383 -14 452 -14 q 250 4 308 -14 q 152 57 192 22 q 92 141 113 91 q 72 253 72 190 q 87 344 72 304 q 128 418 102 385 q 189 476 154 451 q 264 520 225 501 q 202 566 231 541 q 151 621 172 590 q 117 688 130 651 q 105 770 105 725 q 127 873 105 829 q 188 947 150 917 q 277 992 227 977 q 383 1007 328 1007 m 191 253 q 202 187 191 217 q 236 136 213 157 q 295 102 259 114 q 379 91 330 91 q 464 102 427 91 q 525 136 500 114 q 562 189 550 158 q 574 258 574 220 q 561 322 574 293 q 523 374 547 350 q 463 420 498 399 q 385 463 428 442 l 364 472 q 235 379 278 432 q 191 253 191 327 m 381 901 q 266 866 309 901 q 224 762 224 830 q 236 696 224 724 q 269 647 248 669 q 320 609 290 626 q 384 576 349 592 q 446 608 417 590 q 496 647 475 625 q 530 698 518 670 q 542 762 542 726 q 499 866 542 830 q 381 901 456 901 "},"ѯ":{"x_min":16,"x_max":577,"ha":639,"o":"m 488 924 q 525 920 509 924 q 551 914 541 917 l 551 831 q 532 836 543 834 q 509 839 521 839 q 479 832 495 839 q 448 812 464 825 q 417 783 432 800 q 389 745 402 766 q 456 719 426 736 q 508 680 486 703 q 541 627 529 656 q 553 561 553 597 q 543 501 553 527 q 516 456 534 475 q 475 422 499 436 q 422 399 452 408 l 422 391 q 480 366 452 381 q 529 329 508 351 q 564 275 551 307 q 577 203 577 244 q 559 117 577 157 q 505 48 541 78 q 414 2 469 19 q 283 -14 358 -14 q 203 -18 233 -14 q 158 -32 174 -23 q 137 -53 142 -41 q 132 -82 132 -66 q 137 -108 132 -97 q 153 -128 142 -120 q 184 -141 164 -136 q 232 -145 203 -145 q 299 -144 266 -145 q 363 -142 332 -143 q 422 -139 394 -140 q 471 -138 449 -138 q 539 -146 515 -138 q 572 -166 563 -153 l 572 -269 q 554 -257 565 -262 q 529 -249 542 -252 q 500 -243 515 -245 q 472 -241 485 -241 q 422 -242 451 -241 q 359 -244 393 -243 q 287 -246 325 -245 q 211 -248 250 -248 q 113 -232 151 -248 q 54 -192 75 -216 q 24 -138 32 -168 q 16 -81 16 -109 q 27 -18 16 -49 q 67 35 38 11 q 145 74 96 59 q 268 88 193 88 q 338 94 305 88 q 398 115 372 101 q 438 153 423 130 q 453 211 453 177 q 408 306 453 275 q 271 337 364 337 l 185 337 l 185 440 l 251 440 q 326 445 292 440 q 385 464 360 451 q 423 498 409 477 q 436 549 436 520 q 397 626 436 600 q 284 651 358 651 q 192 639 236 651 q 97 606 148 627 l 55 706 q 129 737 93 725 q 210 754 166 748 q 178 793 194 773 q 145 831 161 813 q 114 867 128 850 q 87 898 99 884 l 87 917 l 168 917 q 236 861 203 894 q 306 789 269 828 q 343 838 324 814 q 386 881 363 862 q 434 912 409 900 q 488 924 459 924 "},"ｭ":{"x_min":10.859375,"x_max":75.96875,"ha":87,"o":"m 75 -6 l 10 -6 l 10 6 l 50 5 l 52 73 l 18 73 l 18 85 l 65 84 l 63 5 l 75 5 l 75 -6 "},"Ｑ":{"x_min":29.84375,"x_max":143.78125,"ha":174,"o":"m 108 2 q 138 -22 114 -12 l 128 -35 q 93 -1 105 -24 l 86 -1 q 44 14 59 -1 q 29 62 29 31 q 44 109 29 93 q 86 126 59 126 q 128 109 113 126 q 143 62 143 92 q 108 2 143 14 m 127 62 q 117 99 127 86 q 86 111 107 111 q 56 99 66 111 q 46 62 46 86 q 56 24 46 37 q 86 12 66 12 q 117 24 107 12 q 127 62 127 37 "},"ｿ":{"x_min":3.390625,"x_max":83.421875,"ha":87,"o":"m 83 124 q 64 36 78 67 q 24 -10 50 6 l 12 2 q 50 44 37 18 q 66 128 62 70 l 83 124 m 35 65 l 20 56 q 3 116 12 94 l 18 124 q 35 65 29 96 "},"ゎ":{"x_min":27.125,"x_max":146.5,"ha":174,"o":"m 90 -10 l 85 3 q 121 14 111 5 q 131 40 131 23 q 126 60 131 53 q 109 66 120 66 q 66 42 92 66 q 65 -10 65 8 l 50 -10 l 51 27 q 37 10 45 21 l 27 21 q 52 46 40 35 l 52 67 l 30 66 l 29 79 l 52 80 l 53 104 l 68 104 l 67 81 l 71 82 l 75 73 l 67 67 l 67 60 q 109 80 92 80 q 135 69 125 80 q 146 40 146 59 q 90 -10 146 -5 "},"ħ":{"x_min":12.1875,"x_max":707,"ha":818,"o":"m 583 0 l 583 451 q 547 583 583 539 q 436 627 512 627 q 343 609 381 627 q 283 557 306 592 q 251 473 261 523 q 241 357 241 422 l 241 0 l 118 0 l 118 843 l 12 843 l 12 932 l 118 932 l 118 1055 l 241 1055 l 241 932 l 498 932 l 498 843 l 241 843 l 241 715 l 236 616 l 242 616 q 283 666 259 645 q 334 702 306 687 q 393 723 362 716 q 457 730 424 730 q 644 665 581 730 q 707 458 707 600 l 707 0 l 583 0 "},"㏖":{"x_min":3.390625,"x_max":169.5625,"ha":174,"o":"m 169 0 l 154 0 l 154 132 l 169 132 l 169 0 m 84 46 q 93 83 84 71 q 116 94 102 94 q 140 83 130 94 q 149 46 149 71 q 140 10 149 23 q 116 -1 130 -1 q 93 11 103 -1 q 84 46 84 23 m 100 46 q 104 20 100 29 q 116 11 108 11 q 129 20 124 11 q 133 46 133 29 q 129 73 133 64 q 116 82 125 82 q 104 73 108 82 q 100 46 100 64 m 80 0 l 65 0 l 65 60 q 63 78 65 74 q 58 82 61 82 q 52 76 54 82 q 50 60 50 71 l 50 0 l 34 0 l 34 60 q 32 78 34 74 q 26 82 30 82 q 21 76 23 82 q 18 60 18 71 l 18 0 l 3 0 l 3 92 l 16 92 l 18 82 l 18 82 q 31 94 23 94 q 44 79 42 94 l 45 79 q 62 94 50 94 q 76 86 71 94 q 80 61 80 78 l 80 0 "},"イ":{"x_min":16.953125,"x_max":145.140625,"ha":174,"o":"m 145 124 q 101 86 128 106 l 101 -9 l 84 -9 l 84 75 q 25 41 56 56 l 16 54 q 132 135 90 91 l 145 124 "},"˙":{"x_min":109,"x_max":253.46875,"ha":359,"o":"m 109 945 q 129 1004 109 986 q 180 1023 150 1023 q 209 1018 195 1023 q 232 1004 222 1014 q 247 980 241 995 q 253 945 253 966 q 232 887 253 906 q 180 868 210 868 q 129 886 150 868 q 109 945 109 905 "},"„":{"x_min":43,"x_max":517,"ha":608,"o":"m 246 161 l 256 145 q 233 67 246 108 q 204 -15 220 26 q 170 -99 188 -57 q 136 -179 153 -141 l 43 -179 q 66 -92 54 -137 q 88 -3 77 -48 q 107 82 98 40 q 122 161 116 125 l 246 161 m 508 161 l 517 145 q 494 67 507 108 q 465 -15 481 26 q 432 -99 449 -57 q 397 -179 414 -141 l 305 -179 q 327 -92 315 -137 q 349 -3 338 -48 q 368 82 359 40 q 383 161 377 125 l 508 161 "},"ӷ":{"x_min":118,"x_max":527,"ha":555,"o":"m 118 0 l 118 745 l 527 745 l 527 642 l 241 642 l 241 102 l 350 102 l 350 -258 l 226 -258 l 226 0 l 118 0 "},"δ":{"x_min":75,"x_max":725,"ha":802,"o":"m 360 635 q 291 683 322 657 q 236 737 259 708 q 201 800 214 767 q 189 872 189 833 q 206 956 189 921 q 254 1016 223 992 q 328 1051 286 1039 q 421 1063 370 1063 q 505 1056 467 1063 q 576 1038 543 1049 q 636 1015 609 1028 q 687 989 663 1001 l 637 890 q 590 916 615 903 q 538 938 565 928 q 479 954 510 948 q 413 960 448 960 q 364 952 385 960 q 331 933 344 945 q 311 904 317 920 q 305 869 305 887 q 314 823 305 844 q 344 781 324 802 q 398 738 364 760 q 479 689 431 716 q 583 619 537 655 q 660 539 629 582 q 708 447 691 496 q 725 337 725 397 q 701 185 725 251 q 635 75 678 120 q 531 8 592 31 q 397 -14 471 -14 q 268 6 327 -14 q 166 67 209 27 q 99 164 123 106 q 75 296 75 222 q 97 423 75 368 q 159 520 120 479 q 249 590 197 562 q 360 635 301 618 m 597 325 q 587 410 597 372 q 557 478 577 448 q 510 533 538 508 q 446 579 482 557 q 363 548 407 568 q 284 495 320 528 q 225 413 249 462 q 202 294 202 363 q 215 211 202 249 q 253 146 228 173 q 314 103 278 118 q 395 88 350 88 q 545 149 492 88 q 597 325 597 210 "},"⒠":{"x_min":12.203125,"x_max":161.421875,"ha":174,"o":"m 37 130 l 45 130 q 21 61 21 100 q 45 -5 21 24 l 37 -5 q 12 61 12 21 q 37 130 12 103 m 136 -5 l 128 -5 q 152 61 152 24 q 128 130 152 100 l 136 130 q 161 61 161 103 q 136 -5 161 21 m 111 50 l 70 50 q 89 31 71 31 q 109 35 99 31 l 109 27 q 89 23 100 23 q 68 31 76 23 q 61 52 61 39 q 68 73 61 65 q 87 82 75 82 q 105 74 98 82 q 111 56 111 67 l 111 50 m 71 58 l 102 58 q 98 70 102 66 q 87 73 94 73 q 71 58 72 73 "},"⇓":{"x_min":6.109375,"x_max":80.703125,"ha":87,"o":"m 43 -18 l 51 -14 l 51 132 l 59 132 l 59 -10 l 71 -2 q 78 0 74 0 q 80 -2 80 0 q 77 -8 80 -4 l 50 -37 q 43 -41 47 -41 q 35 -37 39 -41 l 9 -8 q 6 -2 6 -4 q 8 0 6 0 q 16 -2 11 0 l 27 -10 l 27 132 l 35 132 l 35 -14 l 43 -18 "},"ㄈ":{"x_min":23.0625,"x_max":150.5625,"ha":174,"o":"m 150 2 l 35 2 q 26 5 30 2 q 23 12 23 8 l 23 107 q 26 114 23 111 q 35 118 29 118 l 149 118 l 149 103 l 46 103 q 39 96 39 103 l 39 23 q 46 16 39 16 l 150 16 l 150 2 "},"р":{"x_min":118,"x_max":737,"ha":814,"o":"m 454 -14 q 381 -5 414 -14 q 323 18 349 3 q 277 52 297 32 q 241 93 257 72 l 233 93 q 237 49 235 70 q 240 13 238 32 q 241 -16 241 -5 l 241 -334 l 118 -334 l 118 745 l 218 745 l 236 644 l 241 644 q 276 688 257 667 q 322 724 296 709 q 381 748 348 739 q 454 758 413 758 q 570 733 518 758 q 659 660 622 709 q 716 540 696 612 q 737 373 737 468 q 716 205 737 277 q 659 84 696 133 q 570 10 622 35 q 454 -14 518 -14 m 430 655 q 343 639 379 655 q 285 592 307 624 q 253 513 263 560 q 241 401 242 465 l 241 373 q 250 251 241 304 q 281 162 259 198 q 340 107 303 125 q 431 88 377 88 q 566 162 523 88 q 609 374 609 236 q 566 585 609 515 q 430 655 523 655 "},"Ö":{"x_min":85,"x_max":945,"ha":1031,"o":"m 945 496 q 917 287 945 382 q 835 126 890 193 q 701 22 781 59 q 515 -14 620 -14 q 324 22 405 -14 q 189 126 243 59 q 110 288 136 193 q 85 498 85 382 q 110 707 85 613 q 190 867 136 801 q 325 970 243 934 q 517 1007 406 1007 q 701 970 622 1007 q 835 867 781 934 q 917 706 890 800 q 945 496 945 612 m 218 497 q 236 330 218 404 q 290 204 253 255 q 382 124 326 152 q 515 97 438 97 q 648 124 593 97 q 741 204 704 152 q 794 330 777 255 q 811 497 811 404 q 794 664 811 590 q 741 789 777 738 q 649 868 705 840 q 517 895 594 895 q 383 868 439 895 q 290 789 327 840 q 236 664 253 738 q 218 497 218 590 m 323 1174 q 341 1227 323 1211 q 388 1244 360 1244 q 434 1227 414 1244 q 453 1174 453 1210 q 434 1121 453 1138 q 388 1105 414 1105 q 341 1121 360 1105 q 323 1174 323 1138 m 577 1174 q 596 1227 577 1211 q 642 1244 615 1244 q 667 1239 655 1244 q 688 1227 679 1235 q 702 1206 697 1218 q 708 1174 708 1193 q 688 1121 708 1138 q 642 1105 668 1105 q 596 1121 615 1105 q 577 1174 577 1138 "},"Θ":{"x_min":85,"x_max":945,"ha":1031,"o":"m 334 560 l 696 560 l 696 452 l 334 452 l 334 560 m 945 496 q 917 287 945 382 q 835 126 890 193 q 701 22 781 59 q 515 -14 620 -14 q 324 22 405 -14 q 189 126 243 59 q 110 288 136 193 q 85 498 85 382 q 110 707 85 613 q 190 867 136 801 q 325 970 243 934 q 517 1007 406 1007 q 701 970 622 1007 q 835 867 781 934 q 917 706 890 800 q 945 496 945 612 m 218 497 q 236 330 218 404 q 290 204 253 255 q 382 124 326 152 q 515 97 438 97 q 648 124 593 97 q 741 204 704 152 q 794 330 777 255 q 811 497 811 404 q 794 664 811 590 q 741 789 777 738 q 649 868 705 840 q 517 895 594 895 q 383 868 439 895 q 290 789 327 840 q 236 664 253 738 q 218 497 218 590 "},"Ř":{"x_min":135,"x_max":803.25,"ha":819,"o":"m 261 410 l 261 0 l 135 0 l 135 992 l 376 992 q 642 922 556 992 q 729 710 729 852 q 712 607 729 651 q 668 531 695 563 q 605 479 640 500 q 533 444 570 458 l 803 0 l 654 0 l 416 410 l 261 410 m 261 517 l 371 517 q 473 529 431 517 q 543 564 516 541 q 582 623 570 588 q 595 704 595 658 q 581 787 595 753 q 540 842 567 821 q 469 874 512 864 q 368 884 426 884 l 261 884 l 261 517 m 635 1274 q 594 1229 618 1255 q 548 1176 571 1203 q 505 1121 525 1148 q 475 1071 485 1094 l 344 1071 q 314 1121 334 1094 q 271 1176 294 1148 q 225 1229 248 1203 q 185 1274 202 1255 l 185 1293 l 267 1293 q 337 1237 301 1270 q 410 1166 373 1204 q 481 1237 445 1204 q 553 1293 518 1270 l 635 1293 l 635 1274 "},"ﾃ":{"x_min":5.421875,"x_max":81.390625,"ha":87,"o":"m 71 109 l 13 109 l 13 124 l 71 124 l 71 109 m 81 68 l 52 68 q 46 16 52 32 q 22 -10 40 1 q 11 1 16 -3 q 31 23 26 12 q 35 68 35 34 l 5 68 l 5 83 l 81 83 l 81 68 "},"ㄨ":{"x_min":21.703125,"x_max":151.921875,"ha":174,"o":"m 151 8 l 140 -2 q 88 53 111 29 q 32 -2 61 25 l 21 9 q 78 64 48 33 q 25 116 50 92 l 35 127 q 81 82 56 107 l 88 75 q 137 127 113 101 l 147 116 q 99 64 126 92 q 151 8 126 36 "},"✔":{"x_min":31.875,"x_max":155.984375,"ha":174,"o":"m 155 132 q 93 -11 115 67 l 68 -11 q 31 56 56 21 l 57 69 q 80 17 71 42 q 125 137 97 82 l 155 132 "},"ㆄ":{"x_min":29.84375,"x_max":142.421875,"ha":174,"o":"m 137 129 l 137 116 l 35 116 l 35 129 l 137 129 m 142 84 l 142 71 l 29 71 l 29 84 l 58 84 l 52 111 l 66 111 l 71 84 l 101 84 l 107 111 l 120 111 l 114 84 l 142 84 m 80 57 l 80 68 l 92 68 l 92 57 q 118 46 109 55 q 127 25 127 37 q 116 1 127 10 q 86 -8 105 -8 q 56 1 67 -8 q 45 25 45 10 q 54 46 45 37 q 80 57 63 55 m 86 45 q 66 39 73 45 q 59 25 59 33 q 66 10 59 16 q 86 4 73 4 q 106 10 99 4 q 113 25 113 16 q 106 39 113 33 q 86 45 99 45 "},"и":{"x_min":118,"x_max":735,"ha":853,"o":"m 234 745 l 234 291 l 226 120 l 576 745 l 735 745 l 735 0 l 618 0 l 618 439 l 625 622 l 276 0 l 118 0 l 118 745 l 234 745 "},"³":{"x_min":21,"x_max":418,"ha":460,"o":"m 400 852 q 372 764 400 800 q 298 712 345 729 q 388 660 358 697 q 418 571 418 624 q 404 496 418 530 q 362 437 390 461 q 291 399 334 413 q 190 386 249 386 q 101 394 143 386 q 21 423 59 402 l 21 514 q 110 481 64 493 q 192 469 155 469 q 290 497 260 469 q 321 575 321 525 q 283 648 321 625 q 179 671 246 671 l 111 671 l 111 745 l 179 745 q 273 771 244 745 q 303 839 303 797 q 296 876 303 860 q 277 901 289 891 q 248 915 264 911 q 213 920 232 920 q 138 907 172 920 q 69 870 105 894 l 22 935 q 62 963 41 951 q 106 985 83 976 q 155 998 129 993 q 210 1004 180 1004 q 293 992 257 1004 q 352 961 328 981 q 388 913 376 940 q 400 852 400 885 "},"Ӿ":{"x_min":-0.25,"x_max":760.25,"ha":760,"o":"m 480 469 l 760 0 l 617 0 l 376 430 l 127 0 l 0 0 l 278 469 l 82 469 l 82 581 l 269 581 l 20 992 l 155 992 l 380 612 l 608 992 l 737 992 l 485 581 l 678 581 l 678 469 l 480 469 "},"⇀":{"x_min":28.484375,"x_max":145.140625,"ha":174,"o":"m 28 40 l 28 48 l 118 48 l 106 71 q 103 78 103 76 q 106 81 103 81 q 111 78 108 81 l 141 52 q 145 44 145 48 q 139 40 145 40 l 28 40 "},"≅":{"x_min":8.8125,"x_max":86.8125,"ha":96,"o":"m 8 84 l 8 98 q 29 107 16 107 q 49 102 37 107 q 67 96 61 96 q 86 107 77 96 l 86 93 q 65 84 78 84 q 45 89 57 84 q 27 94 33 94 q 8 84 18 94 m 8 54 l 8 67 l 86 67 l 86 54 l 8 54 m 8 20 l 8 32 l 86 32 l 86 20 l 8 20 "},"♬":{"x_min":25.09375,"x_max":125.46875,"ha":174,"o":"m 125 24 q 119 5 125 12 q 103 -1 112 -1 q 88 3 94 -1 q 83 15 83 8 q 118 40 83 38 l 118 84 l 67 84 l 67 24 q 60 5 67 12 q 44 -1 53 -1 q 30 3 35 -1 q 25 15 25 8 q 59 40 25 38 l 59 124 l 125 124 l 125 24 m 67 96 l 118 96 l 118 111 l 67 111 l 67 96 "},"㌧":{"x_min":31.203125,"x_max":168.203125,"ha":174,"o":"m 82 106 l 78 97 q 41 108 59 104 l 41 67 l 31 67 l 31 144 l 41 144 l 41 118 q 82 106 65 113 m 128 37 l 122 29 q 94 47 109 38 l 100 55 q 128 37 115 47 m 168 40 q 143 1 158 12 q 99 -16 128 -10 l 96 -6 q 135 8 122 -2 q 158 44 149 18 l 168 40 "},"Ρ":{"x_min":135,"x_max":729,"ha":800,"o":"m 729 701 q 710 582 729 639 q 648 482 691 525 q 536 412 606 438 q 362 386 465 386 l 261 386 l 261 0 l 135 0 l 135 992 l 380 992 q 537 972 471 992 q 645 916 602 953 q 708 825 688 879 q 729 701 729 770 m 261 493 l 347 493 q 456 504 410 493 q 533 539 503 515 q 579 601 564 563 q 595 695 595 640 q 540 837 595 791 q 368 884 485 884 l 261 884 l 261 493 "},"」":{"x_min":40.6875,"x_max":86.8125,"ha":174,"o":"m 86 -12 l 40 -12 l 40 0 l 71 0 l 71 62 l 86 62 l 86 -12 "},"┷":{"x_min":-2.03125,"x_max":105.796875,"ha":104,"o":"m 105 52 l -2 52 l -2 82 l 44 82 l 44 172 l 59 172 l 59 82 l 105 82 l 105 52 "},"ª":{"x_min":46,"x_max":392,"ha":460,"o":"m 328 541 l 308 597 q 283 570 296 582 q 254 549 270 558 q 219 536 238 540 q 177 532 201 532 q 124 540 148 532 q 82 566 100 549 q 55 610 65 584 q 46 671 46 636 q 93 777 46 740 q 236 817 140 813 l 303 820 l 303 841 q 282 909 303 890 q 224 929 262 929 q 162 919 192 929 q 104 894 132 909 l 72 961 q 146 991 106 979 q 226 1003 185 1003 q 351 967 311 1003 q 392 848 392 931 l 392 541 l 328 541 m 253 743 q 196 736 219 741 q 160 720 174 730 q 140 698 146 711 q 134 666 134 684 q 151 620 134 634 q 196 605 168 605 q 238 612 219 605 q 272 632 257 619 q 294 667 286 646 q 303 715 303 687 l 303 746 l 253 743 "},"š":{"x_min":61.15625,"x_max":564,"ha":627,"o":"m 564 203 q 544 108 564 149 q 487 40 524 68 q 398 0 450 13 q 281 -14 346 -14 q 154 -2 207 -14 q 61 33 101 9 l 61 146 q 107 125 82 135 q 161 106 133 114 q 219 93 189 98 q 279 88 249 88 q 353 95 323 88 q 403 116 384 103 q 431 150 423 130 q 440 194 440 170 q 433 232 440 215 q 409 265 427 249 q 360 299 391 282 q 280 337 329 316 q 193 378 232 358 q 127 424 154 399 q 86 482 100 449 q 72 560 72 515 q 90 645 72 608 q 143 707 109 682 q 224 745 177 732 q 330 758 272 758 q 451 743 396 758 q 554 706 505 729 l 512 606 q 422 641 468 626 q 329 655 376 655 q 228 632 261 655 q 195 568 195 610 q 203 526 195 544 q 229 493 210 509 q 279 461 248 477 q 358 426 311 445 q 444 385 406 405 q 509 339 482 365 q 549 281 535 314 q 564 203 564 249 m 554 1045 q 513 1000 537 1026 q 467 947 490 974 q 424 892 444 919 q 394 842 404 865 l 263 842 q 233 892 253 865 q 190 947 213 919 q 144 1000 167 974 q 104 1045 121 1026 l 104 1064 l 186 1064 q 256 1008 220 1041 q 329 937 292 975 q 400 1008 364 975 q 472 1064 437 1041 l 554 1064 l 554 1045 "},"┭":{"x_min":-2.03125,"x_max":105.796875,"ha":104,"o":"m 105 60 l 59 60 l 59 -37 l 44 -37 l 44 52 l -2 52 l -2 82 l 59 82 l 59 74 l 105 74 l 105 60 "},"┉":{"x_min":-2.03125,"x_max":105.796875,"ha":104,"o":"m 105 52 l 89 52 l 89 82 l 105 82 l 105 52 m 75 52 l 59 52 l 59 82 l 75 82 l 75 52 m 45 52 l 28 52 l 28 82 l 45 82 l 45 52 m 14 52 l -2 52 l -2 82 l 14 82 l 14 52 "},"1":{"x_min":121,"x_max":482.375,"ha":765,"o":"m 482 0 l 363 0 l 363 619 q 363 682 363 648 q 364 748 363 715 q 366 811 365 781 q 368 864 367 841 q 348 843 356 852 q 330 826 339 834 q 310 809 320 818 q 286 788 300 800 l 186 706 l 121 789 l 380 992 l 482 992 l 482 0 "},"ҍ":{"x_min":12,"x_max":711,"ha":787,"o":"m 241 890 l 430 890 l 430 787 l 241 787 l 241 439 l 429 439 q 641 386 572 439 q 711 227 711 333 q 695 133 711 175 q 644 61 679 91 q 556 15 610 31 q 426 0 502 0 l 118 0 l 118 787 l 12 787 l 12 890 l 118 890 l 118 1055 l 241 1055 l 241 890 m 241 336 l 241 102 l 416 102 q 485 108 453 102 q 539 127 516 113 q 574 164 561 141 q 587 219 587 186 q 576 275 587 252 q 543 311 565 297 q 489 330 521 325 q 413 336 456 336 l 241 336 "},"ǒ":{"x_min":77,"x_max":725,"ha":802,"o":"m 725 373 q 702 208 725 280 q 637 86 679 135 q 534 11 594 37 q 398 -14 474 -14 q 270 11 329 -14 q 168 86 211 37 q 101 208 125 135 q 77 373 77 280 q 99 537 77 465 q 164 657 122 608 q 267 732 206 707 q 403 758 327 758 q 531 732 472 758 q 633 657 590 707 q 700 537 676 608 q 725 373 725 465 m 204 373 q 250 159 204 231 q 401 88 297 88 q 551 159 506 88 q 597 373 597 231 q 551 585 597 515 q 400 655 504 655 q 250 585 295 655 q 204 373 204 515 m 625 1045 q 584 1000 608 1026 q 538 947 561 974 q 495 892 515 919 q 465 842 475 865 l 334 842 q 304 892 324 865 q 261 947 284 919 q 215 1000 238 974 q 175 1045 192 1026 l 175 1064 l 257 1064 q 327 1008 291 1041 q 400 937 363 975 q 471 1008 435 975 q 543 1064 508 1041 l 625 1064 l 625 1045 "},"ӡ":{"x_min":18,"x_max":601,"ha":646,"o":"m 294 318 q 413 291 357 313 q 510 229 469 269 q 576 133 552 189 q 601 3 601 77 q 576 -132 601 -70 q 507 -239 552 -194 q 399 -309 463 -284 q 258 -334 336 -334 q 118 -321 180 -334 q 18 -286 57 -309 l 18 -173 q 65 -195 38 -184 q 122 -213 91 -205 q 187 -226 153 -221 q 258 -231 222 -231 q 346 -216 306 -231 q 416 -170 387 -200 q 461 -99 445 -141 q 477 -3 477 -56 q 459 96 477 54 q 407 166 440 139 q 326 207 373 194 q 223 221 280 221 l 150 221 l 150 305 l 417 642 l 36 642 l 36 745 l 562 745 l 562 656 l 294 318 "},"ㅒ":{"x_min":61.046875,"x_max":116.65625,"ha":174,"o":"m 61 132 l 74 132 l 74 96 l 103 96 l 103 135 l 116 135 l 116 -10 l 103 -10 l 103 40 l 74 40 l 74 -1 l 61 -1 l 61 132 m 74 53 l 103 53 l 103 84 l 74 84 l 74 53 "},"ょ":{"x_min":33.234375,"x_max":140.390625,"ha":174,"o":"m 140 8 l 133 -4 q 94 13 115 5 q 87 -4 94 1 q 63 -9 80 -9 q 41 -3 48 -9 q 33 11 33 2 q 41 26 33 20 q 64 32 48 32 q 80 31 71 32 q 78 102 78 73 l 92 102 l 92 78 l 133 82 l 133 66 l 93 64 l 94 27 q 140 8 120 19 m 80 17 q 64 19 72 19 q 51 17 55 19 q 47 11 47 15 q 51 6 47 8 q 63 4 54 4 q 77 7 75 4 q 80 17 80 9 "},"ī":{"x_min":-14,"x_max":376,"ha":359,"o":"m 241 0 l 118 0 l 118 745 l 241 745 l 241 0 m -14 943 l 376 943 l 376 842 l -14 842 l -14 943 "},"㌘":{"x_min":4.0625,"x_max":165.484375,"ha":174,"o":"m 93 136 l 88 132 q 79 144 84 139 l 84 147 q 93 136 88 144 m 75 124 q 59 88 69 101 q 29 65 48 75 l 23 74 q 65 123 55 88 l 64 124 l 46 123 l 35 123 q 16 99 28 111 l 9 105 q 33 146 24 120 l 43 143 l 40 133 l 67 133 l 69 135 q 77 127 77 128 q 75 124 77 126 m 86 131 l 81 127 q 71 139 76 134 l 76 142 q 86 131 81 139 m 158 130 l 101 131 l 101 141 l 158 141 l 158 130 m 162 109 q 145 81 156 90 q 108 67 133 71 q 103 77 107 69 q 137 88 126 81 q 151 109 147 95 l 151 109 l 96 109 l 96 120 l 154 119 l 156 121 q 165 113 165 114 q 162 109 165 111 m 82 -15 l 73 -19 l 68 -10 q 6 -15 48 -12 l 4 -4 q 14 -4 8 -4 q 35 58 33 49 l 46 54 l 25 -3 q 64 0 47 -2 q 50 25 55 16 l 58 30 q 82 -15 66 18 "},"ӹ":{"x_min":118,"x_max":922,"ha":1040,"o":"m 241 439 l 401 439 q 613 386 544 439 q 683 227 683 333 q 667 133 683 175 q 616 61 651 91 q 528 15 582 31 q 398 0 475 0 l 118 0 l 118 745 l 241 745 l 241 439 m 922 0 l 798 0 l 798 745 l 922 745 l 922 0 m 241 336 l 241 102 l 388 102 q 457 108 426 102 q 511 127 488 113 q 546 164 534 141 q 559 219 559 186 q 548 275 559 252 q 515 311 537 297 q 461 330 493 325 q 386 336 429 336 l 241 336 m 328 945 q 346 998 328 982 q 393 1015 365 1015 q 439 998 419 1015 q 458 945 458 981 q 439 892 458 909 q 393 876 419 876 q 346 892 365 876 q 328 945 328 909 m 582 945 q 601 998 582 982 q 647 1015 620 1015 q 672 1010 660 1015 q 693 998 684 1006 q 707 977 702 989 q 713 945 713 964 q 693 892 713 909 q 647 876 673 876 q 601 892 620 876 q 582 945 582 909 "},"Ễ":{"x_min":135,"x_max":650,"ha":733,"o":"m 650 0 l 135 0 l 135 992 l 650 992 l 650 880 l 261 880 l 261 574 l 624 574 l 624 462 l 261 462 l 261 111 l 650 111 l 650 0 m 182 1089 q 255 1174 216 1129 q 327 1266 295 1219 l 458 1266 q 530 1174 490 1219 q 604 1089 569 1129 l 604 1071 l 536 1071 q 465 1122 501 1094 q 393 1183 429 1151 q 320 1122 357 1151 q 249 1071 284 1094 l 182 1071 l 182 1089 m 484 1306 q 436 1316 460 1306 q 388 1339 412 1327 q 343 1363 365 1352 q 303 1373 322 1373 q 261 1357 275 1373 q 238 1304 247 1342 l 175 1304 q 188 1364 178 1337 q 214 1412 198 1392 q 252 1443 230 1432 q 303 1455 274 1455 q 353 1444 328 1455 q 401 1421 378 1433 q 446 1397 425 1408 q 484 1387 467 1387 q 525 1403 511 1387 q 549 1456 540 1419 l 612 1456 q 599 1396 608 1423 q 573 1348 589 1368 q 535 1317 557 1328 q 484 1306 513 1306 "},"ŏ":{"x_min":77,"x_max":725,"ha":802,"o":"m 725 373 q 702 208 725 280 q 637 86 679 135 q 534 11 594 37 q 398 -14 474 -14 q 270 11 329 -14 q 168 86 211 37 q 101 208 125 135 q 77 373 77 280 q 99 537 77 465 q 164 657 122 608 q 267 732 206 707 q 403 758 327 758 q 531 732 472 758 q 633 657 590 707 q 700 537 676 608 q 725 373 725 465 m 204 373 q 250 159 204 231 q 401 88 297 88 q 551 159 506 88 q 597 373 597 231 q 551 585 597 515 q 400 655 504 655 q 250 585 295 655 q 204 373 204 515 m 605 1030 q 587 954 602 988 q 546 894 572 920 q 483 855 520 869 q 398 842 446 842 q 311 855 348 842 q 250 893 274 868 q 212 952 225 918 q 197 1030 199 987 l 271 1030 q 283 983 274 1000 q 309 957 293 965 q 348 946 325 948 q 401 943 371 943 q 447 946 425 943 q 487 959 469 949 q 516 985 504 968 q 530 1030 527 1002 l 605 1030 "},"ý":{"x_min":6.75,"x_max":672.25,"ha":679,"o":"m 6 745 l 134 745 l 280 329 q 300 272 290 301 q 318 212 310 242 q 333 154 327 182 q 341 103 339 126 l 346 103 q 356 149 349 120 q 373 211 364 178 q 392 276 382 244 q 409 330 402 308 l 544 745 l 672 745 l 377 -96 q 336 -195 358 -152 q 285 -270 314 -239 q 217 -317 256 -300 q 123 -334 177 -334 q 62 -330 88 -334 q 18 -322 36 -326 l 18 -223 q 54 -229 32 -226 q 99 -231 75 -231 q 156 -223 132 -231 q 197 -201 179 -216 q 227 -164 215 -186 q 250 -115 240 -142 l 289 -6 l 6 745 m 276 860 q 306 905 290 879 q 338 958 322 931 q 369 1013 354 986 q 394 1064 383 1040 l 543 1064 l 543 1049 q 510 1004 532 1031 q 463 946 489 976 q 409 889 437 917 q 358 842 381 860 l 276 842 l 276 860 "},"╝":{"x_min":-2.03125,"x_max":74.609375,"ha":104,"o":"m 44 74 l -2 74 l -2 89 l 29 89 l 29 172 l 44 172 l 44 74 m 74 45 l -2 45 l -2 60 l 59 60 l 59 172 l 74 172 l 74 45 "},"⑭":{"x_min":18.3125,"x_max":155.3125,"ha":174,"o":"m 155 62 q 134 14 155 34 q 86 -5 114 -5 q 38 14 59 -5 q 18 62 18 34 q 38 110 18 90 q 86 130 58 130 q 135 110 115 130 q 155 62 155 90 m 148 62 q 130 105 148 87 q 86 124 111 124 q 43 105 61 124 q 25 62 25 87 q 43 19 25 37 q 86 1 61 1 q 130 19 111 1 q 148 62 148 37 m 128 41 l 117 41 l 117 25 l 108 25 l 108 41 l 73 41 l 73 49 l 107 99 l 117 99 l 117 50 l 128 50 l 128 41 m 108 50 l 108 67 q 109 90 108 80 l 108 90 q 104 80 107 86 l 83 50 l 108 50 m 67 25 l 58 25 l 58 71 q 59 89 58 78 q 52 84 57 88 l 44 78 l 40 84 l 59 99 l 67 99 l 67 25 "},"∇":{"x_min":40.6875,"x_max":132.9375,"ha":174,"o":"m 40 124 l 132 124 l 132 114 l 94 0 l 78 0 l 40 114 l 40 124 m 115 109 l 58 109 l 79 45 q 86 16 82 35 q 94 46 89 30 l 115 109 "},"ӛ":{"x_min":69,"x_max":666,"ha":743,"o":"m 329 758 q 466 732 404 758 q 572 659 527 707 q 641 540 616 611 q 666 377 666 469 q 643 212 666 285 q 580 89 621 140 q 483 12 539 38 q 357 -14 426 -14 q 237 10 290 -14 q 146 77 183 34 q 88 183 108 121 q 69 319 69 244 l 69 396 l 538 396 q 482 588 535 526 q 328 650 430 650 q 264 646 293 650 q 207 636 235 643 q 155 620 180 630 q 102 598 129 611 l 102 707 q 155 730 130 720 q 208 745 181 739 q 265 754 236 751 q 329 758 295 758 m 357 88 q 482 140 436 88 q 535 293 528 193 l 196 293 q 205 209 196 247 q 234 144 215 171 q 284 103 254 118 q 357 88 315 88 m 167 945 q 185 998 167 982 q 232 1015 204 1015 q 278 998 258 1015 q 297 945 297 981 q 278 892 297 909 q 232 876 258 876 q 185 892 204 876 q 167 945 167 909 m 421 945 q 440 998 421 982 q 486 1015 459 1015 q 511 1010 499 1015 q 532 998 523 1006 q 546 977 541 989 q 552 945 552 964 q 532 892 552 909 q 486 876 512 876 q 440 892 459 876 q 421 945 421 909 "},"╄":{"x_min":-2.03125,"x_max":105.796875,"ha":104,"o":"m 105 52 l 59 52 l 59 -37 l 44 -37 l 44 52 l 37 52 l 37 60 l -2 60 l -2 74 l 37 74 l 37 172 l 67 172 l 67 82 l 105 82 l 105 52 "}," ":{"x_min":0,"x_max":0,"ha":347},"を":{"x_min":18.3125,"x_max":155.3125,"ha":174,"o":"m 155 59 l 110 49 l 110 19 l 95 19 l 95 45 q 56 20 56 33 q 65 9 56 12 q 90 6 73 6 l 96 6 q 147 8 116 6 l 145 -7 q 101 -8 110 -8 q 54 -1 66 -8 q 42 20 42 5 q 94 61 42 44 q 89 69 94 65 q 78 73 84 73 q 55 66 65 73 q 29 37 46 59 l 18 46 q 55 99 38 69 q 18 98 32 98 l 18 113 l 64 114 l 74 136 l 90 131 l 82 114 q 141 118 124 115 l 141 103 q 73 99 118 101 l 57 78 l 58 78 q 68 84 61 81 q 80 87 75 87 q 99 81 91 87 q 109 65 107 74 l 152 73 l 155 59 "},"Ь":{"x_min":135,"x_max":729,"ha":800,"o":"m 729 290 q 708 170 729 224 q 645 79 688 117 q 537 20 602 41 q 380 0 471 0 l 135 0 l 135 992 l 261 992 l 261 574 l 362 574 q 536 551 465 574 q 648 490 606 529 q 710 400 691 452 q 729 290 729 349 m 261 107 l 368 107 q 540 152 485 107 q 595 290 595 197 q 579 370 595 337 q 533 424 564 403 q 456 453 503 444 q 347 462 410 462 l 261 462 l 261 107 "},"↢":{"x_min":21.03125,"x_max":151.921875,"ha":174,"o":"m 142 11 l 126 40 l 48 40 l 60 16 q 62 10 62 12 q 60 7 62 7 q 54 10 57 7 l 25 36 q 21 44 21 40 q 25 52 21 48 l 54 78 q 60 81 57 81 q 62 78 62 81 q 60 71 62 76 l 48 48 l 126 48 l 142 77 l 151 77 l 132 44 l 151 11 l 142 11 "},"﹞":{"x_min":29.15625,"x_max":57.65625,"ha":87,"o":"m 29 -6 l 48 4 l 48 54 l 29 63 l 29 74 l 57 58 l 57 0 l 29 -16 l 29 -6 "},"⒲":{"x_min":12.203125,"x_max":161.421875,"ha":174,"o":"m 37 130 l 45 130 q 21 61 21 100 q 45 -5 21 24 l 37 -5 q 12 61 12 21 q 37 130 12 103 m 136 -5 l 128 -5 q 152 61 152 24 q 128 130 152 100 l 136 130 q 161 61 161 103 q 136 -5 161 21 m 99 25 l 86 71 l 73 25 l 63 25 l 48 80 l 59 80 l 65 50 q 68 31 67 40 l 69 31 q 73 49 71 44 l 82 80 l 91 80 l 101 49 l 104 31 l 105 31 q 108 50 105 37 l 115 80 l 124 80 l 109 25 l 99 25 "},"¤":{"x_min":83.640625,"x_max":680.03125,"ha":765,"o":"m 126 490 q 137 566 126 530 q 170 634 149 602 l 83 721 l 149 788 l 235 700 q 304 734 267 722 q 381 747 341 747 q 458 734 422 747 q 526 700 495 722 l 613 788 l 680 723 l 592 635 q 626 567 613 604 q 639 490 639 530 q 627 412 639 449 q 592 344 615 375 l 678 258 l 613 193 l 526 279 q 458 246 495 258 q 381 235 422 235 q 303 247 341 235 q 235 281 266 259 l 149 195 l 85 259 l 170 345 q 137 412 149 376 q 126 490 126 449 m 227 489 q 239 426 227 455 q 273 375 252 397 q 323 340 295 353 q 385 327 352 327 q 448 340 419 327 q 499 375 478 353 q 534 426 521 397 q 546 489 546 455 q 534 554 546 524 q 499 606 521 584 q 448 641 478 628 q 385 654 419 654 q 323 641 352 654 q 273 606 295 628 q 239 554 252 584 q 227 489 227 524 "},"p":{"x_min":118,"x_max":737,"ha":814,"o":"m 454 -14 q 381 -5 414 -14 q 323 18 349 3 q 277 52 297 32 q 241 93 257 72 l 233 93 q 237 49 235 70 q 240 13 238 32 q 241 -16 241 -5 l 241 -334 l 118 -334 l 118 745 l 218 745 l 236 644 l 241 644 q 276 688 257 667 q 322 724 296 709 q 381 748 348 739 q 454 758 413 758 q 570 733 518 758 q 659 660 622 709 q 716 540 696 612 q 737 373 737 468 q 716 205 737 277 q 659 84 696 133 q 570 10 622 35 q 454 -14 518 -14 m 430 655 q 343 639 379 655 q 285 592 307 624 q 253 513 263 560 q 241 401 242 465 l 241 373 q 250 251 241 304 q 281 162 259 198 q 340 107 303 125 q 431 88 377 88 q 566 162 523 88 q 609 374 609 236 q 566 585 609 515 q 430 655 523 655 "},"［":{"x_min":69.859375,"x_max":118.015625,"ha":174,"o":"m 118 -27 l 69 -27 l 69 124 l 118 124 l 118 111 l 85 111 l 85 -14 l 118 -14 l 118 -27 "},"⑵":{"x_min":12.203125,"x_max":161.421875,"ha":174,"o":"m 37 130 l 45 130 q 21 61 21 100 q 45 -5 21 24 l 37 -5 q 12 61 12 21 q 37 130 12 103 m 136 -5 l 128 -5 q 152 61 152 24 q 128 130 152 100 l 136 130 q 161 61 161 103 q 136 -5 161 21 m 109 25 l 63 25 l 63 32 l 81 52 q 94 68 92 63 q 97 80 97 73 q 94 89 97 86 q 85 92 91 92 q 69 85 78 92 l 64 91 q 86 100 73 100 q 101 94 95 100 q 107 80 107 89 q 103 67 107 73 q 89 48 100 61 l 75 33 l 75 33 l 109 33 l 109 25 "},"Ѹ":{"x_min":85,"x_max":1623.25,"ha":1630,"o":"m 888 496 q 862 287 888 381 q 786 126 837 193 q 660 22 735 59 q 487 -14 585 -14 q 308 22 384 -14 q 182 126 232 59 q 109 288 133 193 q 85 498 85 382 q 109 707 85 613 q 182 867 133 801 q 308 970 232 934 q 488 1007 385 1007 q 661 970 586 1007 q 786 867 736 934 q 862 706 837 800 q 888 496 888 612 m 218 497 q 234 330 218 404 q 283 204 250 255 q 366 124 316 152 q 487 97 417 97 q 608 124 557 97 q 691 204 658 152 q 739 330 723 255 q 755 497 755 404 q 739 664 755 590 q 691 789 723 738 q 608 868 658 840 q 488 895 558 895 q 367 868 418 895 q 283 789 316 840 q 234 664 250 738 q 218 497 218 590 m 957 745 l 1085 745 l 1231 329 q 1250 272 1240 302 q 1268 212 1260 242 q 1283 154 1277 182 q 1293 103 1290 126 l 1297 103 q 1307 149 1299 120 q 1324 211 1315 178 q 1343 276 1333 244 q 1360 330 1353 308 l 1495 745 l 1623 745 l 1328 -96 q 1287 -195 1309 -151 q 1236 -270 1265 -239 q 1168 -317 1207 -300 q 1074 -334 1129 -334 q 1014 -330 1039 -334 q 970 -322 988 -326 l 970 -223 q 1005 -229 984 -226 q 1051 -231 1027 -231 q 1107 -223 1083 -231 q 1148 -201 1131 -216 q 1178 -164 1166 -186 q 1201 -114 1191 -142 l 1240 -6 l 957 745 "},"ぺ":{"x_min":9.5,"x_max":164.125,"ha":174,"o":"m 102 116 q 107 128 102 123 q 120 134 112 134 q 132 128 127 134 q 138 116 138 123 q 132 103 138 109 q 120 98 127 98 q 107 103 112 98 q 102 116 102 109 m 111 116 q 114 110 111 112 q 120 107 116 107 q 126 110 124 107 q 128 116 128 112 q 126 122 128 119 q 120 124 123 124 q 113 122 115 124 q 111 116 111 120 m 164 16 l 154 4 q 82 80 127 25 q 68 93 70 93 q 60 86 66 93 l 21 39 l 9 50 q 36 81 17 59 q 59 107 55 104 q 67 109 63 109 q 86 98 75 109 q 164 16 153 25 "},"ラ":{"x_min":22.375,"x_max":151.25,"ha":174,"o":"m 137 109 l 31 110 l 31 126 l 137 125 l 137 109 m 146 72 q 113 17 134 35 q 44 -9 91 0 l 35 6 q 100 27 79 12 q 128 70 120 42 l 128 71 l 22 72 l 22 88 l 132 87 l 136 90 q 151 76 151 79 q 146 72 151 73 "},"Ӭ":{"x_min":40,"x_max":740,"ha":825,"o":"m 301 894 q 186 879 237 894 q 93 841 136 863 l 40 947 q 159 991 93 976 q 299 1006 226 1006 q 491 969 409 1006 q 629 866 574 932 q 712 710 684 801 q 740 513 740 620 q 712 294 740 392 q 628 128 684 197 q 489 22 572 59 q 294 -14 405 -14 q 222 -11 255 -14 q 160 -4 189 -9 q 104 8 131 0 q 52 26 78 15 l 52 135 q 159 108 105 120 q 274 97 214 97 q 520 191 436 97 q 609 462 605 285 l 179 462 l 179 574 l 606 574 q 576 708 600 649 q 512 809 551 768 q 419 873 473 851 q 301 894 366 894 m 137 1174 q 155 1227 137 1211 q 202 1244 174 1244 q 248 1227 228 1244 q 267 1174 267 1210 q 248 1121 267 1138 q 202 1105 228 1105 q 155 1121 174 1105 q 137 1174 137 1138 m 391 1174 q 410 1227 391 1211 q 456 1244 429 1244 q 481 1239 469 1244 q 502 1227 493 1235 q 516 1206 511 1218 q 522 1174 522 1193 q 502 1121 522 1138 q 456 1105 482 1105 q 410 1121 429 1105 q 391 1174 391 1138 "},"ђ":{"x_min":12.1875,"x_max":707,"ha":818,"o":"m 510 -334 q 456 -329 477 -334 q 419 -317 435 -324 l 419 -217 q 455 -227 437 -224 q 497 -231 473 -231 q 531 -226 515 -231 q 558 -208 546 -221 q 577 -172 570 -194 q 583 -116 583 -150 l 583 451 q 547 583 583 539 q 436 627 512 627 q 343 609 381 627 q 283 557 306 592 q 251 473 261 523 q 241 357 241 422 l 241 0 l 118 0 l 118 843 l 12 843 l 12 932 l 118 932 l 118 1055 l 241 1055 l 241 932 l 498 932 l 498 843 l 241 843 l 241 715 l 236 616 l 242 616 q 283 666 259 645 q 334 702 306 687 q 393 723 362 716 q 457 730 424 730 q 644 665 581 730 q 707 458 707 600 l 707 -107 q 695 -201 707 -159 q 659 -272 683 -243 q 598 -318 635 -302 q 510 -334 561 -334 "},"y":{"x_min":6.75,"x_max":672.25,"ha":679,"o":"m 6 745 l 134 745 l 280 329 q 300 272 290 301 q 318 212 310 242 q 333 154 327 182 q 341 103 339 126 l 346 103 q 356 149 349 120 q 373 211 364 178 q 392 276 382 244 q 409 330 402 308 l 544 745 l 672 745 l 377 -96 q 336 -195 358 -152 q 285 -270 314 -239 q 217 -317 256 -300 q 123 -334 177 -334 q 62 -330 88 -334 q 18 -322 36 -326 l 18 -223 q 54 -229 32 -226 q 99 -231 75 -231 q 156 -223 132 -231 q 197 -201 179 -216 q 227 -164 215 -186 q 250 -115 240 -142 l 289 -6 l 6 745 "},"‗":{"x_min":-3,"x_max":574,"ha":571,"o":"m 574 -314 l -3 -314 l -3 -219 l 574 -219 l 574 -314 m 574 -125 l -3 -125 l -3 -31 l 574 -31 l 574 -125 "},"∵":{"x_min":41.375,"x_max":132.25,"ha":174,"o":"m 62 76 q 59 67 62 70 q 52 65 56 65 q 44 67 46 65 q 41 76 41 70 q 44 85 41 82 q 52 88 46 88 q 59 85 56 88 q 62 76 62 82 m 132 76 q 129 67 132 70 q 121 65 126 65 q 113 67 115 65 q 110 76 110 70 q 113 85 110 82 q 121 88 115 88 q 129 85 126 88 q 132 76 132 82 m 97 9 q 94 0 97 3 q 86 -2 92 -2 q 78 0 81 -2 q 75 9 75 3 q 78 18 75 15 q 86 21 81 21 q 94 18 92 21 q 97 9 97 15 "},"ë":{"x_min":77,"x_max":673,"ha":743,"o":"m 412 -14 q 276 11 337 -14 q 170 84 214 36 q 101 203 125 132 q 77 366 77 274 q 99 531 77 458 q 162 654 121 604 q 259 731 202 705 q 384 758 316 758 q 505 733 451 758 q 595 665 558 709 q 653 560 633 621 q 673 423 673 498 l 673 346 l 204 346 q 259 155 207 216 q 413 93 311 93 q 477 97 448 93 q 534 107 507 100 q 587 123 561 113 q 639 145 613 133 l 639 35 q 586 13 612 22 q 533 -2 560 3 q 476 -11 505 -8 q 412 -14 446 -14 m 384 655 q 260 602 306 655 q 207 449 214 549 l 545 449 q 536 533 545 495 q 507 598 526 571 q 457 640 487 625 q 384 655 427 655 m 183 945 q 201 998 183 982 q 248 1015 220 1015 q 294 998 274 1015 q 313 945 313 981 q 294 892 313 909 q 248 876 274 876 q 201 892 220 876 q 183 945 183 909 m 437 945 q 456 998 437 982 q 502 1015 475 1015 q 527 1010 515 1015 q 548 998 539 1006 q 562 977 557 989 q 568 945 568 964 q 548 892 568 909 q 502 876 528 876 q 456 892 475 876 q 437 945 437 909 "},"ㄾ":{"x_min":23.734375,"x_max":150.5625,"ha":174,"o":"m 24 104 l 80 104 l 80 59 l 37 59 l 37 32 q 86 37 60 33 l 88 25 q 23 19 56 20 l 23 72 l 66 72 l 66 91 l 24 91 l 24 104 m 147 70 l 147 57 l 105 57 l 105 32 l 150 32 l 150 19 l 91 19 l 91 104 l 147 104 l 147 91 l 105 91 l 105 70 l 147 70 "},"б":{"x_min":79,"x_max":716,"ha":791,"o":"m 79 446 q 95 664 79 569 q 147 828 112 759 q 237 940 182 897 q 369 999 292 982 q 535 1034 453 1018 q 686 1065 617 1051 l 709 957 q 633 944 675 951 q 549 928 592 936 q 467 912 507 920 q 398 897 428 904 q 322 865 356 887 q 264 804 288 843 q 225 710 239 766 q 209 577 211 654 l 218 577 q 251 617 230 597 q 300 654 272 638 q 365 682 329 671 q 445 693 401 693 q 562 668 512 693 q 647 599 613 643 q 699 493 682 554 q 716 359 716 432 q 692 196 716 266 q 627 79 669 126 q 526 9 585 32 q 396 -14 467 -14 q 265 16 324 -14 q 165 105 207 46 q 101 249 123 163 q 79 446 79 335 m 406 88 q 481 101 447 88 q 538 144 514 114 q 575 223 562 174 q 588 343 588 271 q 579 445 588 400 q 550 523 570 491 q 500 573 531 555 q 425 590 469 590 q 347 574 383 590 q 282 534 311 557 q 234 486 254 511 q 206 444 215 462 q 215 312 206 376 q 245 198 223 248 q 306 118 268 148 q 406 88 345 88 "},"ㅉ":{"x_min":14.25,"x_max":159.375,"ha":174,"o":"m 154 105 l 154 92 l 126 92 l 126 82 q 135 49 126 63 q 159 29 144 35 l 151 16 q 120 59 127 31 q 90 16 113 32 l 82 29 q 113 82 111 42 l 113 92 l 90 92 l 90 105 l 154 105 m 84 105 l 84 92 l 57 92 l 57 84 q 64 56 57 69 q 83 38 71 44 l 75 26 q 51 61 56 37 q 21 19 44 34 l 14 31 q 35 51 27 37 q 44 84 44 65 l 44 92 l 20 92 l 20 105 l 84 105 "},"⑻":{"x_min":12.203125,"x_max":161.421875,"ha":174,"o":"m 37 130 l 45 130 q 21 61 21 100 q 45 -5 21 24 l 37 -5 q 12 61 12 21 q 37 130 12 103 m 136 -5 l 128 -5 q 152 61 152 24 q 128 130 152 100 l 136 130 q 161 61 161 103 q 136 -5 161 21 m 94 64 q 109 44 109 56 q 103 29 109 35 q 86 23 97 23 q 69 28 75 23 q 63 44 63 33 q 78 63 63 56 q 65 82 65 71 q 71 95 65 90 q 86 100 77 100 q 102 95 96 100 q 107 82 107 90 q 94 64 107 70 m 86 67 q 98 82 98 73 q 95 90 98 87 q 86 92 92 92 q 77 90 80 92 q 75 82 75 87 q 86 67 75 73 m 85 60 q 72 44 72 54 q 75 34 72 37 q 86 31 79 31 q 97 34 93 31 q 101 44 101 37 q 86 59 101 52 l 85 60 "},"⇈":{"x_min":10.859375,"x_max":162.78125,"ha":174,"o":"m 130 104 l 130 -41 l 122 -41 l 122 104 l 98 92 q 91 90 93 90 q 88 92 88 90 q 92 98 88 95 l 118 127 q 126 132 122 132 q 133 127 130 132 l 160 98 q 162 92 162 94 q 160 90 162 90 q 153 92 158 90 l 130 104 m 52 104 l 52 -41 l 43 -41 l 43 104 l 20 92 q 13 90 15 90 q 10 92 10 90 q 13 98 10 95 l 40 127 q 47 132 44 132 q 55 127 51 132 l 82 98 q 84 92 84 94 q 82 90 84 90 q 75 92 80 90 l 52 104 "},"ӌ":{"x_min":104,"x_max":693,"ha":811,"o":"m 569 332 q 512 295 539 311 q 456 268 485 279 q 395 251 427 257 q 324 246 363 246 q 230 261 271 246 q 161 306 188 277 q 118 373 133 334 q 104 458 104 412 l 104 745 l 227 745 l 227 466 q 352 348 227 348 q 410 353 382 348 q 462 368 437 358 q 514 392 488 377 q 569 427 541 407 l 569 745 l 693 745 l 693 0 l 584 0 l 584 -258 l 460 -258 l 460 102 l 569 102 l 569 332 "},"‐":{"x_min":6.78125,"x_max":48.828125,"ha":56,"o":"m 6 39 l 6 53 l 48 53 l 48 39 l 6 39 "},"ズ":{"x_min":14.25,"x_max":172.953125,"ha":174,"o":"m 172 124 l 163 116 q 142 140 155 130 l 150 147 q 172 124 164 136 m 157 113 l 148 105 q 126 130 140 119 l 135 137 q 157 113 150 125 m 159 -1 l 145 -12 q 94 42 115 23 q 25 -10 69 11 l 14 2 q 111 105 88 37 l 110 106 l 59 105 l 33 105 l 33 121 l 117 121 l 120 124 q 134 112 134 114 q 131 108 134 110 q 128 103 129 105 q 118 80 128 99 q 103 54 111 65 q 159 -1 131 31 "},"ⅷ":{"x_min":3.390625,"x_max":170.234375,"ha":174,"o":"m 164 122 q 162 114 164 116 q 155 111 160 111 q 148 114 150 111 q 146 122 146 116 q 148 129 146 126 q 155 131 150 131 q 162 129 160 131 q 164 122 164 126 m 130 122 q 128 114 130 116 q 122 111 126 111 q 114 114 117 111 q 112 122 112 116 q 114 129 112 126 q 122 131 117 131 q 128 129 126 131 q 130 122 130 126 m 96 122 q 94 114 96 116 q 88 111 92 111 q 81 114 83 111 q 79 122 79 116 q 81 129 79 126 q 88 131 83 131 q 94 129 92 131 q 96 122 96 126 m 30 0 l 3 92 l 17 92 l 33 37 q 40 10 37 21 l 40 10 q 47 37 42 17 l 63 92 l 95 92 l 95 12 l 113 12 l 113 80 l 107 82 l 107 92 l 129 92 l 129 12 l 147 12 l 147 80 l 140 82 l 140 92 l 162 92 l 162 12 l 170 10 l 170 0 l 71 0 l 71 10 l 80 12 l 80 80 l 74 82 l 50 0 l 30 0 "},"𐐀":{"x_min":8.140625,"x_max":100.375,"ha":111,"o":"m 19 103 l 14 117 q 48 125 29 125 q 87 109 73 125 q 100 59 100 92 q 87 13 100 28 q 50 -1 73 -1 q 20 10 31 -1 q 8 42 8 23 q 20 73 8 62 q 51 85 31 85 q 82 69 71 85 l 83 69 q 48 111 80 111 q 19 103 35 111 m 51 71 q 31 64 37 71 q 24 43 24 57 q 31 20 24 28 q 52 12 39 12 q 74 22 65 12 q 83 47 83 31 q 74 64 83 56 q 51 71 65 71 "},"㎼":{"x_min":3.390625,"x_max":170.234375,"ha":174,"o":"m 170 124 l 152 0 l 139 0 l 130 61 q 126 88 128 71 q 124 61 126 82 l 114 0 l 101 0 l 83 124 l 99 124 l 105 71 q 108 39 107 50 q 111 73 109 56 l 119 124 l 134 124 l 141 73 q 145 39 144 56 q 148 71 146 54 l 155 124 l 170 124 m 88 15 q 71 -1 82 -1 q 59 12 62 -1 l 58 12 q 38 -1 52 -1 q 30 1 34 -1 q 25 6 26 3 l 18 -41 l 3 -41 l 24 92 l 40 92 l 30 33 q 29 24 29 29 q 32 15 29 18 q 40 11 35 11 q 50 16 46 11 q 57 35 54 21 l 66 92 l 82 92 l 71 26 q 70 18 70 23 q 74 12 70 12 q 80 20 77 12 l 88 15 "},"┼":{"x_min":-2.03125,"x_max":105.796875,"ha":104,"o":"m 105 60 l 59 60 l 59 -37 l 44 -37 l 44 60 l -2 60 l -2 74 l 44 74 l 44 172 l 59 172 l 59 74 l 105 74 l 105 60 "},"₰":{"x_min":1.359375,"x_max":90.875,"ha":96,"o":"m 31 35 l 37 15 l 50 28 q 31 82 31 52 q 39 115 31 104 q 59 126 46 126 q 79 115 71 126 q 87 82 87 104 q 71 29 87 48 l 75 25 q 90 -2 90 11 q 69 -29 90 -23 l 65 -14 q 74 -4 74 -12 q 64 15 74 4 l 60 18 l 31 -6 l 25 13 l 9 0 l 1 10 l 31 35 m 61 39 q 71 82 71 51 q 68 105 71 97 q 59 112 65 112 q 50 105 54 112 q 46 82 46 98 q 61 39 46 54 "},"ц":{"x_min":118,"x_max":815,"ha":836,"o":"m 815 -258 l 691 -258 l 691 0 l 118 0 l 118 745 l 241 745 l 241 102 l 582 102 l 582 745 l 706 745 l 706 102 l 815 102 l 815 -258 "},"w":{"x_min":13.75,"x_max":1022.25,"ha":1036,"o":"m 683 0 l 570 417 q 563 445 567 430 q 555 477 559 460 q 546 512 551 494 q 538 546 542 529 q 518 628 528 586 l 514 628 q 496 546 505 585 q 480 476 488 512 q 464 415 471 440 l 347 0 l 204 0 l 13 745 l 143 745 l 232 348 q 245 282 239 318 q 258 211 252 246 q 269 146 264 177 q 277 95 274 115 l 281 95 q 290 142 284 113 q 303 205 296 172 q 317 270 310 238 q 331 324 325 302 l 453 745 l 586 745 l 702 324 q 716 270 709 301 q 732 207 724 239 q 745 145 739 175 q 754 95 751 115 l 758 95 q 764 142 760 113 q 775 207 769 172 q 788 279 781 242 q 803 348 795 316 l 896 745 l 1022 745 l 829 0 l 683 0 "},"む":{"x_min":16.28125,"x_max":160.734375,"ha":174,"o":"m 38 21 q 24 29 30 21 q 17 48 17 37 q 26 76 17 65 q 47 87 34 86 l 48 99 l 16 99 l 16 114 q 48 113 34 113 l 48 135 l 64 134 l 63 113 l 94 115 l 94 100 l 63 99 q 62 82 63 92 q 71 59 71 74 q 54 25 71 37 q 53 14 53 18 q 61 7 53 10 q 83 5 68 5 q 124 10 112 5 q 133 29 133 14 q 128 68 133 43 l 143 71 q 148 27 148 42 q 137 0 148 7 q 90 -8 122 -8 q 47 -2 56 -8 q 37 14 37 2 q 38 21 37 18 m 32 48 q 35 39 32 42 q 42 35 38 35 q 52 42 47 35 q 56 59 56 48 q 54 69 56 65 q 49 73 52 73 q 37 66 42 73 q 32 48 32 59 m 160 88 l 149 78 q 109 118 130 101 l 119 129 q 160 88 145 107 "},"о":{"x_min":77,"x_max":725,"ha":802,"o":"m 725 373 q 702 208 725 280 q 637 86 679 135 q 534 11 594 37 q 398 -14 474 -14 q 270 11 329 -14 q 168 86 211 37 q 101 208 125 135 q 77 373 77 280 q 99 537 77 465 q 164 657 122 608 q 267 732 206 707 q 403 758 327 758 q 531 732 472 758 q 633 657 590 707 q 700 537 676 608 q 725 373 725 465 m 204 373 q 250 159 204 231 q 401 88 297 88 q 551 159 506 88 q 597 373 597 231 q 551 585 597 515 q 400 655 504 655 q 250 585 295 655 q 204 373 204 515 "},"︽":{"x_min":10.859375,"x_max":162.78125,"ha":174,"o":"m 162 26 l 157 16 l 86 50 l 16 16 l 10 26 l 86 62 l 162 26 m 162 4 l 157 -5 l 86 28 l 16 -5 l 10 4 l 86 40 l 162 4 "},"セ":{"x_min":14.921875,"x_max":158.703125,"ha":174,"o":"m 153 85 q 107 29 136 55 l 96 41 q 134 86 120 63 l 134 87 l 66 81 l 65 21 q 69 9 65 10 q 107 8 75 8 q 158 10 128 8 l 155 -6 q 98 -8 118 -8 q 57 -1 65 -8 q 49 23 49 4 l 50 80 l 16 76 l 14 93 l 50 96 l 50 135 l 67 134 l 66 97 l 141 103 l 145 105 q 158 91 158 93 q 153 85 158 88 "},"⊥":{"x_min":19.671875,"x_max":153.953125,"ha":174,"o":"m 19 0 l 19 12 l 80 12 l 80 124 l 92 124 l 92 12 l 153 12 l 153 0 l 19 0 "},"Д":{"x_min":10,"x_max":876,"ha":903,"o":"m 876 -261 l 749 -261 l 749 0 l 136 0 l 136 -261 l 10 -261 l 10 111 l 86 111 q 147 223 118 170 q 203 354 177 277 q 251 512 229 431 q 290 675 273 593 q 316 837 306 757 q 329 992 326 917 l 744 992 l 744 111 l 876 111 l 876 -261 m 617 111 l 617 880 l 455 880 q 440 766 452 829 q 413 634 429 703 q 374 494 396 565 q 326 355 352 423 q 273 224 301 286 q 216 111 245 162 l 617 111 "},"⒎":{"x_min":33.796875,"x_max":132.671875,"ha":174,"o":"m 50 0 l 97 109 l 33 109 l 33 124 l 113 124 l 113 111 l 66 0 l 50 0 m 132 9 q 129 0 132 3 q 121 -2 127 -2 q 113 0 116 -2 q 110 9 110 3 q 113 18 110 15 q 121 21 116 21 q 129 18 127 21 q 132 9 132 15 "},"⊄":{"x_min":33.234375,"x_max":140.390625,"ha":174,"o":"m 111 112 l 120 129 l 134 129 l 125 112 l 140 112 l 140 100 l 118 100 l 75 24 q 94 23 84 23 l 140 23 l 140 10 l 94 10 q 69 13 80 10 l 62 0 l 49 0 l 59 17 q 33 61 33 31 q 49 98 33 84 q 94 112 65 112 l 111 112 m 65 28 l 104 100 l 94 100 q 57 89 69 100 q 45 61 45 79 q 65 28 45 37 "},"↙":{"x_min":39.34375,"x_max":134.28125,"ha":174,"o":"m 57 21 l 128 92 l 134 86 l 63 15 l 88 7 q 96 2 96 4 q 92 0 96 0 q 49 -3 73 -3 q 41 0 44 -3 q 39 7 39 2 l 40 40 q 44 53 41 53 q 49 46 47 53 l 57 21 "},"〦":{"x_min":8.8125,"x_max":164.8125,"ha":174,"o":"m 83 113 q 97 84 92 100 l 81 78 q 68 109 77 95 l 83 113 m 8 72 l 164 72 l 164 59 l 8 59 l 8 72 "},"Ӂ":{"x_min":2.75,"x_max":1129.25,"ha":1132,"o":"m 372 511 l 12 992 l 151 992 l 505 511 l 505 992 l 631 992 l 631 511 l 980 992 l 1119 992 l 764 511 l 1129 0 l 986 0 l 631 502 l 631 0 l 505 0 l 505 502 l 145 0 l 2 0 l 372 511 m 826 1287 q 805 1193 821 1234 q 757 1126 788 1153 q 677 1084 725 1098 q 561 1071 629 1071 q 444 1084 492 1071 q 367 1124 396 1097 q 323 1192 337 1151 q 306 1287 309 1232 l 421 1287 q 433 1219 424 1245 q 460 1178 443 1193 q 502 1158 477 1163 q 564 1152 528 1152 q 619 1159 594 1152 q 662 1181 644 1166 q 692 1222 680 1197 q 707 1287 703 1248 l 826 1287 "},"Ḁ":{"x_min":-0.25,"x_max":844.25,"ha":844,"o":"m 715 0 l 606 307 l 237 307 l 127 0 l 0 0 l 364 996 l 479 996 l 844 0 l 715 0 m 566 419 l 466 706 q 456 736 462 719 q 444 774 450 754 q 432 817 438 795 q 421 860 426 839 q 410 816 416 839 q 397 773 404 794 q 386 735 391 752 q 376 706 380 718 l 277 419 l 566 419 m 576 -229 q 564 -291 576 -264 q 531 -338 552 -319 q 482 -367 510 -357 q 420 -377 453 -377 q 358 -367 386 -377 q 310 -338 330 -357 q 279 -292 290 -319 q 269 -231 269 -265 q 279 -169 269 -196 q 310 -123 290 -142 q 358 -94 330 -104 q 420 -85 386 -85 q 481 -94 453 -85 q 531 -123 510 -104 q 564 -168 552 -142 q 576 -229 576 -195 m 501 -231 q 479 -174 501 -194 q 422 -154 456 -154 q 365 -174 387 -154 q 343 -231 343 -194 q 363 -287 343 -267 q 422 -307 383 -307 q 479 -287 456 -307 q 501 -231 501 -267 "},"◎":{"x_min":14.921875,"x_max":89.53125,"ha":104,"o":"m 52 27 q 25 38 36 27 q 14 65 14 49 q 25 91 14 80 q 52 102 36 102 q 78 91 67 102 q 89 65 89 80 q 78 38 89 49 q 52 27 67 27 m 52 96 q 30 87 39 96 q 21 65 21 78 q 30 43 21 52 q 52 33 39 33 q 73 43 64 33 q 82 65 82 52 q 73 87 82 78 q 52 96 65 96 m 52 46 q 39 52 44 46 q 33 65 33 57 q 39 77 33 72 q 52 83 44 83 q 65 77 59 83 q 70 65 70 72 q 65 52 70 57 q 52 46 59 46 m 52 77 q 43 73 46 77 q 40 65 40 69 q 43 56 40 60 q 52 52 46 52 q 60 56 56 52 q 64 65 64 60 q 60 73 64 69 q 52 77 56 77 "},"Ĵ":{"x_min":-125,"x_max":414,"ha":376,"o":"m -19 -264 q -80 -259 -54 -264 q -125 -247 -106 -255 l -125 -139 q -75 -149 -101 -145 q -18 -152 -48 -152 q 32 -146 6 -152 q 78 -122 57 -139 q 112 -76 99 -105 q 125 0 125 -46 l 125 992 l 251 992 l 251 13 q 231 -109 251 -57 q 175 -196 211 -162 q 90 -247 140 -230 q -19 -264 40 -264 m 414 1071 l 332 1071 q 260 1126 297 1093 q 189 1196 224 1159 q 116 1126 152 1159 q 46 1071 80 1093 l -36 1071 l -36 1089 q 4 1134 -18 1108 q 50 1187 27 1160 q 93 1242 73 1215 q 123 1293 113 1269 l 254 1293 q 284 1242 264 1269 q 327 1187 304 1215 q 373 1134 350 1160 q 414 1089 397 1108 l 414 1071 "},"ㅢ":{"x_min":12.890625,"x_max":134.96875,"ha":174,"o":"m 121 135 l 134 135 l 134 -10 l 121 -10 l 121 46 l 14 36 l 12 49 l 121 59 l 121 135 "},"Ҕ":{"x_min":135,"x_max":797,"ha":868,"o":"m 344 437 q 299 435 319 437 q 261 430 278 433 l 261 0 l 135 0 l 135 992 l 649 992 l 649 880 l 261 880 l 261 539 q 304 543 280 542 q 359 545 328 545 q 544 513 463 545 q 682 424 626 482 q 767 284 738 366 q 797 100 797 202 q 769 -99 797 -15 q 692 -238 741 -183 q 574 -320 642 -293 q 426 -347 506 -347 q 366 -344 393 -347 q 317 -338 340 -342 q 273 -328 294 -334 q 232 -313 253 -321 l 232 -203 q 317 -227 274 -219 q 409 -235 360 -235 q 663 100 663 -235 q 640 245 663 182 q 576 350 618 308 q 475 415 534 393 q 344 437 416 437 "},"に":{"x_min":25.765625,"x_max":158.03125,"ha":174,"o":"m 46 128 q 41 46 41 90 q 42 -9 41 20 l 27 -10 q 25 42 25 15 q 30 130 25 94 l 46 128 m 150 97 q 65 94 101 97 l 65 109 q 150 112 100 112 l 150 97 m 158 16 l 156 0 q 120 -2 134 -2 q 73 6 86 -2 q 60 28 60 14 q 70 58 60 42 l 84 51 q 75 29 75 37 q 84 17 75 21 q 118 13 92 13 q 158 16 130 13 "},"г":{"x_min":118,"x_max":527,"ha":555,"o":"m 527 642 l 241 642 l 241 0 l 118 0 l 118 745 l 527 745 l 527 642 "},"ấ":{"x_min":64,"x_max":743,"ha":737,"o":"m 536 0 l 511 102 l 505 102 q 461 50 483 72 q 412 13 439 28 q 353 -7 386 0 q 278 -14 321 -14 q 193 0 232 -14 q 125 40 153 12 q 80 109 96 67 q 64 208 64 151 q 142 379 64 320 q 379 445 220 439 l 503 450 l 503 496 q 494 572 503 541 q 465 620 484 602 q 419 647 447 639 q 357 655 392 655 q 253 639 301 655 q 160 599 204 623 l 117 692 q 228 739 167 720 q 357 758 290 758 q 477 744 427 758 q 560 700 527 730 q 609 623 593 669 q 626 509 626 576 l 626 0 l 536 0 m 310 88 q 386 101 351 88 q 447 140 422 114 q 488 205 473 166 q 502 298 502 245 l 502 365 l 405 360 q 303 346 345 357 q 237 316 262 336 q 202 270 213 297 q 191 208 191 243 q 224 117 191 146 q 310 88 257 88 m 588 842 l 520 842 q 448 893 485 865 q 377 954 412 922 q 304 893 340 922 q 233 842 268 865 l 165 842 l 165 860 q 239 945 199 900 q 311 1037 279 990 l 442 1037 q 514 945 474 990 q 588 860 553 900 l 588 842 m 535 991 q 559 1023 548 1008 q 580 1054 570 1039 q 600 1087 590 1070 q 621 1128 610 1105 l 743 1128 l 743 1113 q 676 1038 712 1073 q 603 974 640 1003 l 535 974 l 535 991 "},"Ŀ":{"x_min":135,"x_max":649.4375,"ha":682,"o":"m 135 0 l 135 992 l 261 992 l 261 111 l 649 111 l 649 0 l 135 0 m 436 493 q 456 552 436 534 q 507 571 477 571 q 536 566 522 571 q 559 552 549 562 q 574 528 568 543 q 580 493 580 514 q 559 435 580 454 q 507 416 537 416 q 456 434 477 416 q 436 493 436 453 "},"⑼":{"x_min":12.203125,"x_max":161.421875,"ha":174,"o":"m 37 130 l 45 130 q 21 61 21 100 q 45 -5 21 24 l 37 -5 q 12 61 12 21 q 37 130 12 103 m 136 -5 l 128 -5 q 152 61 152 24 q 128 130 152 100 l 136 130 q 161 61 161 103 q 136 -5 161 21 m 69 24 l 69 32 q 77 31 71 31 q 94 38 88 31 q 101 61 100 46 l 100 61 q 84 52 94 52 q 69 58 74 52 q 63 75 63 64 q 69 93 63 86 q 86 100 75 100 q 103 91 96 100 q 110 67 110 83 q 102 34 110 45 q 78 23 94 23 q 69 24 72 23 m 86 59 q 96 63 92 59 q 101 73 101 67 q 96 87 101 82 q 86 92 92 92 q 75 88 79 92 q 72 75 72 84 q 75 63 72 67 q 86 59 79 59 "},"︴":{"x_min":30.515625,"x_max":56.296875,"ha":174,"o":"m 56 -24 l 50 -24 q 40 -11 50 -20 q 30 4 30 -2 q 40 20 30 11 q 50 33 50 29 q 40 46 50 37 q 30 62 30 55 q 40 78 30 69 q 50 91 50 87 q 40 104 50 95 q 30 120 30 113 q 40 136 30 127 q 50 149 50 145 l 56 149 q 46 133 56 142 q 36 120 36 124 q 46 107 36 116 q 56 91 56 98 q 46 75 56 84 q 36 62 36 67 q 46 49 36 59 q 56 33 56 40 q 46 17 56 26 q 36 4 36 8 q 46 -8 36 0 q 56 -24 56 -17 "},"Җ":{"x_min":2.75,"x_max":1180,"ha":1200,"o":"m 979 0 l 632 502 l 632 0 l 506 0 l 506 502 l 145 0 l 2 0 l 373 511 l 12 992 l 151 992 l 506 511 l 506 992 l 632 992 l 632 511 l 981 992 l 1120 992 l 765 510 l 1047 111 l 1180 111 l 1180 -261 l 1053 -261 l 1053 0 l 979 0 "},"€":{"x_min":42.984375,"x_max":744.875,"ha":765,"o":"m 526 893 q 440 875 480 893 q 368 825 400 858 q 313 743 336 791 q 279 634 291 695 l 571 634 l 571 526 l 268 526 q 268 509 268 517 q 267 494 267 502 q 267 481 267 487 q 267 458 267 470 q 268 434 267 446 l 529 434 l 529 326 l 281 326 q 367 155 304 214 q 530 97 429 97 q 627 107 581 97 q 713 135 673 118 l 713 26 q 627 -3 672 7 q 521 -14 582 -14 q 381 9 443 -14 q 273 77 319 33 q 198 184 228 121 q 154 326 168 247 l 42 326 l 42 434 l 143 434 q 142 456 142 447 q 142 481 142 464 q 142 508 142 494 q 143 526 143 521 l 42 526 l 42 634 l 151 634 q 193 787 163 718 q 269 904 223 855 q 377 979 314 953 q 517 1006 439 1006 q 637 991 582 1006 q 744 943 691 976 l 690 844 q 615 879 656 865 q 526 893 575 893 "},"С":{"x_min":85,"x_max":798,"ha":838,"o":"m 538 894 q 406 867 465 894 q 305 788 347 839 q 241 662 264 736 q 218 496 218 588 q 238 326 218 400 q 298 200 258 251 q 398 123 338 150 q 538 97 458 97 q 652 108 598 97 q 760 135 707 120 l 760 26 q 707 8 733 15 q 651 -4 680 0 q 590 -11 622 -9 q 517 -14 557 -14 q 324 22 405 -14 q 189 126 243 59 q 110 288 136 193 q 85 497 85 382 q 114 703 85 609 q 201 864 144 796 q 343 968 258 931 q 538 1006 428 1006 q 677 991 611 1006 q 798 947 744 976 l 745 841 q 652 879 702 863 q 538 894 601 894 "},"└":{"x_min":44.765625,"x_max":105.796875,"ha":104,"o":"m 105 60 l 44 60 l 44 172 l 59 172 l 59 74 l 105 74 l 105 60 "},"Ӓ":{"x_min":-0.25,"x_max":844.25,"ha":844,"o":"m 715 0 l 606 307 l 237 307 l 127 0 l 0 0 l 364 996 l 479 996 l 844 0 l 715 0 m 566 419 l 466 706 q 456 736 462 719 q 444 774 450 754 q 432 817 438 795 q 421 860 426 839 q 410 816 416 839 q 397 773 404 794 q 386 735 391 752 q 376 706 380 718 l 277 419 l 566 419 m 230 1174 q 248 1227 230 1211 q 295 1244 267 1244 q 341 1227 321 1244 q 360 1174 360 1210 q 341 1121 360 1138 q 295 1105 321 1105 q 248 1121 267 1105 q 230 1174 230 1138 m 484 1174 q 503 1227 484 1211 q 549 1244 522 1244 q 574 1239 562 1244 q 595 1227 586 1235 q 609 1206 604 1218 q 615 1174 615 1193 q 595 1121 615 1138 q 549 1105 575 1105 q 503 1121 522 1105 q 484 1174 484 1138 "},"ẳ":{"x_min":64,"x_max":626,"ha":737,"o":"m 536 0 l 511 102 l 505 102 q 461 50 483 72 q 412 13 439 28 q 353 -7 386 0 q 278 -14 321 -14 q 193 0 232 -14 q 125 40 153 12 q 80 109 96 67 q 64 208 64 151 q 142 379 64 320 q 379 445 220 439 l 503 450 l 503 496 q 494 572 503 541 q 465 620 484 602 q 419 647 447 639 q 357 655 392 655 q 253 639 301 655 q 160 599 204 623 l 117 692 q 228 739 167 720 q 357 758 290 758 q 477 744 427 758 q 560 700 527 730 q 609 623 593 669 q 626 509 626 576 l 626 0 l 536 0 m 310 88 q 386 101 351 88 q 447 140 422 114 q 488 205 473 166 q 502 298 502 245 l 502 365 l 405 360 q 303 346 345 357 q 237 316 262 336 q 202 270 213 297 q 191 208 191 243 q 224 117 191 146 q 310 88 257 88 m 570 1022 q 552 947 566 981 q 511 891 537 914 q 448 854 485 867 q 363 842 410 842 q 215 889 264 842 q 162 1022 166 936 l 235 1022 q 247 976 237 992 q 272 950 256 959 q 311 939 288 942 q 364 937 334 937 q 411 940 389 937 q 450 952 433 943 q 478 978 467 961 q 493 1022 489 995 l 570 1022 m 465 1123 q 458 1089 465 1103 q 439 1063 451 1074 q 412 1046 428 1053 q 379 1035 396 1039 l 375 1008 l 317 1008 l 310 1069 q 370 1086 348 1075 q 393 1122 393 1096 q 373 1155 393 1147 q 324 1163 354 1163 q 296 1162 310 1163 q 276 1159 283 1161 l 276 1214 q 329 1219 290 1219 q 431 1195 397 1219 q 465 1123 465 1172 "},"♣":{"x_min":32.5625,"x_max":141.078125,"ha":174,"o":"m 113 86 q 141 59 141 84 q 134 38 141 45 q 113 31 127 31 q 94 39 103 31 l 94 14 l 109 11 l 109 0 l 63 0 l 63 11 l 78 14 l 78 39 q 59 31 69 31 q 39 38 46 31 q 32 59 32 45 q 60 86 32 84 q 58 99 58 92 q 65 118 58 111 q 86 125 73 125 q 107 118 100 125 q 115 99 115 111 q 113 86 115 92 "},"¶":{"x_min":77,"x_max":764,"ha":910,"o":"m 764 -176 l 682 -176 l 682 947 l 541 947 l 541 -176 l 460 -176 l 460 379 q 361 366 418 366 q 244 384 296 366 q 154 441 191 401 q 97 546 117 481 q 77 706 77 611 q 99 872 77 806 q 161 980 121 939 q 258 1038 201 1021 q 382 1055 314 1055 l 764 1055 l 764 -176 "},"〖":{"x_min":86.8125,"x_max":144.46875,"ha":174,"o":"m 144 -12 l 86 -12 l 86 138 l 144 138 l 144 131 q 122 62 122 102 q 144 -6 122 23 l 144 -12 m 129 -3 q 116 27 122 8 q 111 62 111 46 q 116 97 111 78 q 129 128 122 116 l 97 128 l 97 -3 l 129 -3 "},"Ụ":{"x_min":125,"x_max":845,"ha":970,"o":"m 845 993 l 845 349 q 822 205 845 272 q 755 90 800 139 q 641 13 709 41 q 481 -14 573 -14 q 327 12 394 -14 q 216 86 261 38 q 148 202 171 134 q 125 352 125 269 l 125 991 l 251 991 l 251 346 q 309 162 251 227 q 487 97 368 97 q 591 115 548 97 q 663 167 635 133 q 704 246 690 200 q 718 347 718 292 l 718 993 l 845 993 m 411 -166 q 433 -107 411 -126 q 489 -89 456 -89 q 544 -107 521 -89 q 566 -166 566 -126 q 561 -201 566 -186 q 544 -225 555 -215 q 519 -239 534 -234 q 489 -244 505 -244 q 433 -225 456 -244 q 411 -166 411 -206 "},"ぢ":{"x_min":19.671875,"x_max":172.265625,"ha":174,"o":"m 172 126 l 164 119 q 143 141 155 132 l 151 149 q 172 126 163 140 m 153 101 q 73 95 134 98 q 59 54 68 73 l 61 53 q 103 70 86 70 q 138 59 126 70 q 150 31 150 48 q 135 2 150 12 q 90 -7 120 -7 q 46 -5 69 -7 l 46 12 q 88 8 65 8 q 121 13 110 8 q 132 31 132 19 q 125 49 132 42 q 103 55 118 55 q 51 31 75 55 l 39 41 q 58 94 50 59 l 19 94 l 19 109 q 61 110 40 109 l 66 139 l 82 137 q 77 111 80 126 q 142 115 113 112 q 123 134 132 128 l 130 143 q 151 120 143 134 l 147 115 q 153 116 150 115 l 153 101 "},"­":{"x_min":56,"x_max":392,"ha":447,"o":"m 56 315 l 56 429 l 392 429 l 392 315 l 56 315 "},"ѫ":{"x_min":7,"x_max":850,"ha":857,"o":"m 7 0 l 91 230 q 121 306 106 271 q 158 366 136 340 q 216 409 181 392 q 308 432 251 425 l 99 675 l 99 745 l 760 745 l 760 675 l 551 432 q 642 409 607 426 q 699 367 677 393 q 736 306 722 341 q 767 230 751 271 l 850 0 l 723 0 l 642 223 q 616 283 628 259 q 588 321 604 307 q 550 341 572 335 q 492 347 527 347 l 489 347 l 489 0 l 373 0 l 373 347 l 370 347 q 310 341 334 347 q 270 321 286 335 q 241 283 254 307 q 215 223 228 259 l 132 0 l 7 0 m 430 436 l 599 642 l 259 642 l 430 436 "},"Ѝ":{"x_min":136,"x_max":879,"ha":1013,"o":"m 136 992 l 262 992 l 262 449 q 261 410 262 431 q 260 366 261 389 q 259 321 260 343 q 257 276 258 298 q 251 174 254 226 l 256 174 l 725 992 l 879 992 l 879 0 l 752 0 l 752 538 q 754 624 752 576 q 759 717 756 673 q 765 821 762 768 l 760 821 l 289 0 l 136 0 l 136 992 m 578 1071 l 496 1071 q 444 1118 472 1089 q 390 1175 416 1146 q 343 1233 364 1205 q 311 1278 321 1260 l 311 1293 l 459 1293 q 485 1242 470 1269 q 515 1187 499 1215 q 547 1134 531 1160 q 578 1089 563 1108 l 578 1071 "},"У":{"x_min":16.75,"x_max":813.25,"ha":813,"o":"m 813 992 l 522 289 q 468 172 496 227 q 402 75 440 116 q 311 10 364 34 q 183 -14 258 -14 q 117 -8 148 -14 q 62 6 87 -3 l 62 131 q 117 106 87 116 q 183 97 147 97 q 246 105 219 97 q 297 130 274 112 q 338 178 319 149 q 376 250 357 207 l 16 992 l 155 992 l 415 440 q 422 425 418 433 q 428 408 425 417 q 434 391 431 399 q 440 377 437 383 l 441 377 q 447 394 443 383 q 455 416 451 404 q 462 437 458 427 q 468 451 466 447 l 679 992 l 813 992 "},"ү":{"x_min":-0.25,"x_max":665.25,"ha":665,"o":"m 393 -334 l 270 -334 l 270 -3 l 0 745 l 127 745 l 261 364 q 283 298 272 332 q 303 233 294 265 q 319 174 312 201 q 329 130 326 147 l 334 130 q 344 174 336 147 q 360 233 351 201 q 380 298 369 265 q 402 364 391 332 l 537 745 l 665 745 l 393 -3 l 393 -334 "},"〟":{"x_min":2.03125,"x_max":61.046875,"ha":174,"o":"m 61 20 q 52 -22 55 -2 l 35 -22 l 34 -20 q 49 20 39 -3 l 61 20 m 28 20 q 20 -22 22 -6 l 3 -22 l 2 -20 q 16 20 6 -3 l 28 20 "},"ﾇ":{"x_min":6.109375,"x_max":80.703125,"ha":87,"o":"m 80 16 l 69 6 q 52 31 61 19 q 18 -10 39 6 q 6 2 12 -3 q 42 46 27 16 q 13 75 27 63 l 23 88 q 48 62 35 78 q 61 109 55 82 l 59 109 l 34 108 l 14 107 l 14 122 l 64 123 l 67 126 q 79 113 79 114 q 76 109 79 110 q 59 48 69 73 q 80 16 72 31 "},"Ί":{"x_min":-17,"x_max":585.8125,"ha":642,"o":"m 585 0 l 226 0 l 226 69 l 343 96 l 343 895 l 226 922 l 226 992 l 585 992 l 585 922 l 469 895 l 469 96 l 585 69 l 585 0 m -17 789 q -3 835 -10 809 q 9 889 3 861 q 21 943 16 916 q 30 993 27 970 l 165 993 l 165 978 q 149 936 160 962 q 123 880 138 909 q 90 821 107 850 q 56 771 72 792 l -17 771 l -17 789 "},"⇑":{"x_min":6.109375,"x_max":80.703125,"ha":87,"o":"m 35 104 l 35 -41 l 27 -41 l 27 100 l 16 92 q 8 90 12 90 q 6 92 6 90 q 9 98 6 95 l 35 127 q 43 132 39 132 q 50 127 47 132 l 77 98 q 80 92 80 94 q 78 90 80 90 q 71 92 75 90 l 59 100 l 59 -41 l 51 -41 l 51 104 l 43 109 l 35 104 "},"㎮":{"x_min":2.71875,"x_max":171.59375,"ha":174,"o":"m 144 132 l 115 -1 l 107 -1 l 136 132 l 144 132 m 106 0 l 97 0 l 95 10 l 94 10 q 86 -1 93 -1 q 73 10 78 -1 q 69 46 69 22 q 74 83 69 71 q 86 94 80 94 q 94 84 92 94 l 95 84 l 94 99 l 94 132 l 106 132 l 106 0 m 94 40 l 94 50 q 93 73 94 65 q 88 82 91 82 q 83 73 84 82 q 81 46 81 64 q 83 20 81 29 q 88 11 84 11 q 93 18 91 11 q 94 40 94 25 m 134 3 l 134 17 q 150 10 143 10 q 157 14 155 10 q 159 25 159 18 q 157 34 159 31 q 148 44 155 37 q 137 56 140 50 q 134 69 134 63 q 139 88 134 82 q 153 94 145 94 q 170 89 162 94 l 166 77 q 154 82 160 82 q 148 79 150 82 q 146 70 146 75 q 159 50 146 60 q 171 25 171 41 q 165 5 171 12 q 150 -1 160 -1 q 134 3 141 -1 m 65 0 l 58 0 l 55 10 l 54 10 q 44 -1 52 -1 q 34 4 38 -1 q 29 23 29 10 q 36 45 29 36 q 50 55 42 54 l 54 56 l 54 65 q 53 77 54 73 q 48 82 51 82 q 37 77 42 82 l 33 87 q 49 94 40 94 q 61 87 57 94 q 65 63 65 79 l 65 0 m 54 37 l 54 45 q 42 24 42 44 q 43 14 42 17 q 47 10 44 10 q 53 17 51 10 q 54 37 54 24 m 32 94 l 31 80 q 25 80 27 80 q 18 73 21 80 q 14 53 14 66 l 14 0 l 2 0 l 2 92 l 12 92 l 14 78 q 27 94 18 94 q 32 94 30 94 "},"ネ":{"x_min":12.890625,"x_max":163.453125,"ha":174,"o":"m 133 95 q 94 61 116 77 l 94 -7 l 77 -7 l 77 49 q 23 21 51 33 l 12 35 q 74 66 46 48 q 114 96 103 84 l 113 97 l 67 95 l 26 95 l 26 110 l 76 110 l 76 136 l 93 136 l 93 110 l 123 111 l 128 113 q 139 101 139 103 q 133 95 139 96 m 163 33 l 153 19 q 101 50 124 40 l 110 63 q 163 33 138 50 "},"┅":{"x_min":-2.03125,"x_max":105.796875,"ha":104,"o":"m 105 52 l 79 52 l 79 82 l 105 82 l 105 52 m 65 52 l 38 52 l 38 82 l 65 82 l 65 52 m 25 52 l -2 52 l -2 82 l 25 82 l 25 52 "},"⅓":{"x_min":5.421875,"x_max":120.71875,"ha":128,"o":"m 98 124 l 29 0 l 16 0 l 85 124 l 98 124 m 25 124 l 37 124 l 37 49 l 25 49 l 25 93 q 25 112 25 103 q 19 105 22 108 l 11 99 l 5 107 l 25 124 m 105 39 q 120 21 120 35 q 113 4 120 10 q 92 -1 106 -1 q 71 3 79 -1 l 71 14 q 92 8 82 8 q 103 11 99 8 q 107 21 107 14 q 103 30 107 27 q 90 33 99 33 l 82 33 l 82 43 l 90 43 q 101 46 97 43 q 105 55 105 49 q 102 63 105 60 q 94 65 99 65 q 76 59 86 65 l 71 67 q 94 75 82 75 q 111 70 105 75 q 118 56 118 65 q 105 39 118 44 "},"Ģ":{"x_min":85,"x_max":858,"ha":958,"o":"m 530 524 l 858 524 l 858 36 q 782 15 820 24 q 704 0 744 5 q 620 -10 664 -7 q 526 -14 576 -14 q 337 21 419 -14 q 199 123 255 57 q 114 284 143 189 q 85 497 85 378 q 117 708 85 613 q 211 868 149 802 q 363 970 272 934 q 569 1006 453 1006 q 713 991 644 1006 q 842 947 782 976 l 793 837 q 741 859 769 849 q 683 877 713 869 q 621 890 653 885 q 559 894 590 894 q 412 867 476 894 q 306 788 349 839 q 240 662 263 736 q 218 496 218 588 q 237 334 218 407 q 296 208 255 261 q 401 126 336 155 q 556 97 465 97 q 610 98 585 97 q 656 103 635 100 q 695 109 677 106 q 731 116 714 113 l 731 412 l 530 412 l 530 524 m 437 -288 q 453 -246 444 -271 q 470 -191 462 -220 q 484 -135 478 -163 q 493 -85 491 -107 l 616 -85 l 616 -98 q 601 -141 611 -115 q 575 -197 590 -167 q 541 -255 560 -226 q 503 -307 523 -284 l 437 -307 l 437 -288 "},"ớ":{"x_min":77,"x_max":860,"ha":810,"o":"m 725 373 q 702 208 725 280 q 637 86 679 135 q 534 11 594 37 q 398 -14 474 -14 q 270 11 329 -14 q 168 86 211 37 q 101 208 125 135 q 77 373 77 280 q 99 537 77 465 q 164 657 122 608 q 267 732 206 707 q 403 758 327 758 q 528 733 470 758 q 628 663 585 709 q 676 691 659 672 q 702 735 694 709 q 713 791 711 760 q 715 858 715 823 l 849 858 l 860 842 q 833 751 849 792 q 797 679 818 711 q 746 624 775 647 q 678 588 717 601 q 712 490 700 544 q 725 373 725 437 m 204 373 q 250 159 204 231 q 401 88 297 88 q 551 159 506 88 q 597 373 597 231 q 551 585 597 514 q 400 655 504 655 q 250 585 295 655 q 204 373 204 514 m 321 860 q 351 905 335 879 q 383 958 367 931 q 414 1013 399 986 q 439 1064 428 1040 l 588 1064 l 588 1049 q 555 1004 577 1031 q 508 946 534 976 q 454 889 482 917 q 403 842 426 860 l 321 842 l 321 860 "},"á":{"x_min":64,"x_max":626,"ha":737,"o":"m 536 0 l 511 102 l 505 102 q 461 50 483 72 q 412 13 439 28 q 353 -7 386 0 q 278 -14 321 -14 q 193 0 232 -14 q 125 40 153 12 q 80 109 96 67 q 64 208 64 151 q 142 379 64 320 q 379 445 220 439 l 503 450 l 503 496 q 494 572 503 541 q 465 620 484 602 q 419 647 447 639 q 357 655 392 655 q 253 639 301 655 q 160 599 204 623 l 117 692 q 228 739 167 720 q 357 758 290 758 q 477 744 427 758 q 560 700 527 730 q 609 623 593 669 q 626 509 626 576 l 626 0 l 536 0 m 310 88 q 386 101 351 88 q 447 140 422 114 q 488 205 473 166 q 502 298 502 245 l 502 365 l 405 360 q 303 346 345 357 q 237 316 262 336 q 202 270 213 297 q 191 208 191 243 q 224 117 191 146 q 310 88 257 88 m 302 860 q 332 905 316 879 q 364 958 348 931 q 395 1013 380 986 q 420 1064 409 1040 l 569 1064 l 569 1049 q 536 1004 558 1031 q 489 946 515 976 q 435 889 463 917 q 384 842 407 860 l 302 842 l 302 860 "},"♛":{"x_min":16.28125,"x_max":156.671875,"ha":174,"o":"m 86 54 q 66 83 78 73 q 78 98 78 96 q 76 104 76 101 q 79 111 76 109 q 86 114 82 114 q 94 111 91 114 q 96 104 96 109 q 94 98 96 101 q 107 83 95 96 q 86 54 94 73 m 125 86 q 156 58 145 79 q 130 36 137 52 l 103 36 l 90 50 q 125 86 101 81 m 111 58 q 118 52 111 52 q 124 58 124 52 q 118 64 124 64 q 111 58 111 64 m 43 36 q 16 58 36 52 q 48 86 27 79 q 82 50 71 81 l 70 36 l 43 36 m 61 58 q 55 64 61 64 q 49 58 49 64 q 55 52 49 52 q 61 58 61 52 m 101 31 l 129 31 l 136 25 q 128 0 128 16 l 45 0 q 37 25 45 16 l 44 31 l 72 31 l 86 46 l 101 31 m 86 22 q 80 16 80 22 q 86 10 80 10 q 92 16 92 10 q 86 22 92 22 m 111 22 q 105 16 105 22 q 111 10 105 10 q 117 16 117 10 q 111 22 117 22 m 62 22 q 56 16 56 22 q 62 10 56 10 q 68 16 68 10 q 62 22 68 22 "},"ӆ":{"x_min":11,"x_max":763.421875,"ha":771,"o":"m 516 0 l 516 642 l 352 642 q 316 342 338 466 q 260 139 293 218 q 181 25 227 61 q 76 -10 136 -10 q 39 -8 56 -10 q 11 -2 22 -6 l 11 82 q 44 78 25 78 q 112 118 82 78 q 165 241 142 158 q 206 448 189 323 q 236 745 223 574 l 640 745 l 640 102 l 763 102 l 681 -258 l 557 -258 l 640 0 l 516 0 "},"⇥":{"x_min":12.203125,"x_max":154.640625,"ha":174,"o":"m 12 48 l 110 48 l 98 71 q 96 78 96 76 q 98 81 96 81 q 104 78 101 81 l 133 52 q 137 44 137 48 q 133 36 137 40 l 104 10 q 98 7 101 7 q 96 10 96 7 q 98 16 96 12 l 110 40 l 12 40 l 12 48 m 154 7 l 146 7 l 146 81 l 154 81 l 154 7 "},"K":{"x_min":135,"x_max":804.25,"ha":804,"o":"m 804 0 l 661 0 l 355 473 l 261 396 l 261 0 l 135 0 l 135 992 l 261 992 l 261 496 l 343 609 l 649 992 l 791 992 l 438 559 l 804 0 "},"Y":{"x_min":-0.25,"x_max":731.25,"ha":732,"o":"m 364 490 l 595 992 l 731 992 l 428 386 l 428 0 l 302 0 l 302 379 l 0 992 l 137 992 l 364 490 "},"E":{"x_min":135,"x_max":650,"ha":733,"o":"m 650 0 l 135 0 l 135 992 l 650 992 l 650 880 l 261 880 l 261 574 l 624 574 l 624 462 l 261 462 l 261 111 l 650 111 l 650 0 "},"ﾔ":{"x_min":2.71875,"x_max":84.09375,"ha":87,"o":"m 80 94 q 56 35 73 61 l 45 46 q 65 93 58 66 l 65 94 l 35 87 l 45 -6 l 29 -10 l 19 84 l 4 82 l 2 97 l 17 100 l 14 131 l 29 134 l 33 102 l 69 108 l 73 111 q 84 99 84 101 q 80 94 84 96 "},"キ":{"x_min":16.28125,"x_max":156.671875,"ha":174,"o":"m 156 49 l 97 46 l 103 -10 l 87 -11 l 81 44 l 17 41 l 16 57 l 79 61 l 76 91 l 21 88 l 20 103 l 74 107 l 71 134 l 87 135 l 90 108 l 145 111 l 146 95 l 92 92 l 95 61 l 155 65 l 156 49 "},"｛":{"x_min":52.21875,"x_max":126.828125,"ha":174,"o":"m 97 2 q 105 -10 97 -6 q 126 -14 112 -14 l 126 -27 q 93 -20 104 -27 q 82 0 82 -12 l 82 25 q 74 37 82 33 q 52 42 67 42 l 52 54 q 74 59 67 54 q 82 71 82 63 l 82 95 q 93 116 82 109 q 126 124 104 124 l 126 111 q 105 107 112 111 q 97 94 97 103 l 97 73 q 74 48 97 51 l 74 47 q 97 23 97 44 l 97 2 "},"⒁":{"x_min":12.203125,"x_max":161.421875,"ha":174,"o":"m 37 130 l 45 130 q 21 61 21 100 q 45 -5 21 24 l 37 -5 q 12 61 12 21 q 37 130 12 103 m 136 -5 l 128 -5 q 152 61 152 24 q 128 130 152 100 l 136 130 q 161 61 161 103 q 136 -5 161 21 m 128 41 l 117 41 l 117 25 l 108 25 l 108 41 l 73 41 l 73 49 l 107 99 l 117 99 l 117 50 l 128 50 l 128 41 m 108 50 l 108 67 q 109 90 108 80 l 108 90 q 104 80 107 86 l 83 50 l 108 50 m 67 25 l 58 25 l 58 71 q 59 89 58 78 q 52 84 57 88 l 44 78 l 40 84 l 59 99 l 67 99 l 67 25 "},"Ï":{"x_min":43,"x_max":428,"ha":471,"o":"m 414 0 l 55 0 l 55 69 l 172 96 l 172 895 l 55 922 l 55 992 l 414 992 l 414 922 l 298 895 l 298 96 l 414 69 l 414 0 m 43 1174 q 61 1227 43 1211 q 108 1244 80 1244 q 154 1227 134 1244 q 173 1174 173 1210 q 154 1121 173 1138 q 108 1105 134 1105 q 61 1121 80 1105 q 43 1174 43 1138 m 297 1174 q 316 1227 297 1211 q 362 1244 335 1244 q 387 1239 375 1244 q 408 1227 399 1235 q 422 1206 417 1218 q 428 1174 428 1193 q 408 1121 428 1138 q 362 1105 388 1105 q 316 1121 335 1105 q 297 1174 297 1138 "},"⒝":{"x_min":12.203125,"x_max":161.421875,"ha":174,"o":"m 37 130 l 45 130 q 21 61 21 100 q 45 -5 21 24 l 37 -5 q 12 61 12 21 q 37 130 12 103 m 136 -5 l 128 -5 q 152 61 152 24 q 128 130 152 100 l 136 130 q 161 61 161 103 q 136 -5 161 21 m 74 31 l 73 31 l 71 25 l 65 25 l 65 103 l 74 103 l 74 84 l 73 73 l 74 73 q 92 82 80 82 q 110 74 103 82 q 116 52 116 67 q 110 31 116 38 q 92 23 103 23 q 74 31 80 23 m 90 31 q 103 36 99 31 q 107 52 107 42 q 103 68 107 63 q 90 73 99 73 q 78 69 82 73 q 74 52 74 64 q 78 35 74 40 q 90 31 82 31 "},"ứ":{"x_min":111,"x_max":950,"ha":900,"o":"m 600 0 l 582 99 l 575 99 q 534 48 558 70 q 483 13 511 27 q 424 -7 455 0 q 360 -14 393 -14 q 252 1 299 -14 q 174 50 205 17 q 126 135 142 83 q 111 258 111 186 l 111 745 l 234 745 l 234 264 q 270 132 234 176 q 381 88 306 88 q 474 106 436 88 q 534 158 511 123 q 566 242 556 192 q 576 357 576 292 l 576 745 l 700 745 l 700 661 q 756 682 735 665 q 787 725 777 699 q 802 786 798 752 q 805 859 805 820 l 939 859 l 950 843 q 922 748 939 795 q 877 665 905 702 q 805 604 848 628 q 700 575 761 579 l 700 0 l 600 0 m 331 860 q 361 905 345 879 q 393 958 377 931 q 424 1013 409 986 q 449 1064 438 1040 l 598 1064 l 598 1049 q 565 1004 587 1031 q 518 946 544 976 q 464 889 492 917 q 413 842 436 860 l 331 842 l 331 860 "},"﹄":{"x_min":10.859375,"x_max":86.8125,"ha":174,"o":"m 86 62 l 10 62 l 10 120 l 45 120 l 45 96 l 86 96 l 86 62 m 75 73 l 75 86 l 34 86 l 34 109 l 22 109 l 22 73 l 75 73 "},"ể":{"x_min":77,"x_max":699,"ha":743,"o":"m 412 -14 q 276 11 337 -14 q 170 84 214 36 q 101 203 125 132 q 77 366 77 274 q 99 531 77 458 q 162 654 121 604 q 259 731 202 705 q 384 758 316 758 q 505 733 451 758 q 595 665 558 709 q 653 560 633 621 q 673 423 673 498 l 673 346 l 204 346 q 259 155 207 216 q 413 93 311 93 q 477 97 448 93 q 534 107 507 100 q 587 123 561 113 q 639 145 613 133 l 639 35 q 586 13 612 22 q 533 -2 560 3 q 476 -11 505 -8 q 412 -14 446 -14 m 384 655 q 260 602 306 655 q 207 449 214 549 l 545 449 q 536 533 545 495 q 507 598 526 571 q 457 640 487 625 q 384 655 427 655 m 588 842 l 520 842 q 448 893 485 865 q 377 954 412 922 q 304 893 340 922 q 233 842 268 865 l 165 842 l 165 860 q 239 945 199 900 q 311 1037 279 990 l 442 1037 q 513 945 474 990 q 588 860 553 900 l 588 842 m 699 1114 q 692 1080 699 1094 q 673 1055 685 1065 q 646 1038 662 1045 q 614 1027 631 1031 l 610 972 l 552 972 l 545 1060 q 604 1077 582 1067 q 626 1113 626 1088 q 607 1146 626 1138 q 558 1155 587 1155 q 530 1154 543 1155 q 510 1151 517 1153 l 510 1206 q 530 1209 517 1208 q 564 1211 543 1211 q 665 1187 631 1211 q 699 1114 699 1164 "},"┞":{"x_min":37.296875,"x_max":105.796875,"ha":104,"o":"m 105 60 l 59 60 l 59 -37 l 44 -37 l 44 60 l 37 60 l 37 172 l 67 172 l 67 74 l 105 74 l 105 60 "},"ϋ":{"x_min":111,"x_max":736,"ha":819,"o":"m 409 -14 q 264 13 322 -14 q 172 87 206 40 q 124 199 138 135 q 111 337 111 263 l 111 745 l 234 745 l 234 345 q 245 239 234 286 q 278 158 256 192 q 335 106 300 125 q 417 88 370 88 q 564 167 516 88 q 612 412 612 245 q 609 503 612 461 q 601 585 606 545 q 587 664 595 625 q 569 745 580 703 l 693 745 q 711 664 703 703 q 725 585 719 626 q 733 501 730 545 q 736 406 736 457 q 653 88 736 190 q 409 -14 570 -14 m 208 945 q 226 998 208 982 q 273 1015 245 1015 q 319 998 299 1015 q 338 945 338 981 q 319 892 338 909 q 273 876 299 876 q 226 892 245 876 q 208 945 208 909 m 462 945 q 481 998 462 982 q 527 1015 500 1015 q 552 1010 540 1015 q 573 998 564 1006 q 587 977 582 989 q 593 945 593 964 q 573 892 593 909 q 527 876 553 876 q 481 892 500 876 q 462 945 462 909 "},"ㅗ":{"x_min":14.921875,"x_max":159.375,"ha":174,"o":"m 159 38 l 159 25 l 14 25 l 14 38 l 80 38 l 80 102 l 93 102 l 93 38 l 159 38 "},"ⅰ":{"x_min":49.515625,"x_max":124.109375,"ha":174,"o":"m 95 122 q 93 114 95 116 q 86 111 90 111 q 79 114 82 111 q 77 122 77 116 q 79 129 77 126 q 86 131 82 131 q 93 129 90 131 q 95 122 95 126 m 78 80 l 56 82 l 56 92 l 94 92 l 94 12 l 124 10 l 124 0 l 49 0 l 49 10 l 78 12 l 78 80 "},"b":{"x_min":118,"x_max":737,"ha":814,"o":"m 454 758 q 570 733 518 758 q 659 660 622 709 q 716 540 696 612 q 737 373 737 468 q 716 205 737 277 q 659 84 696 133 q 570 10 622 35 q 454 -14 518 -14 q 381 -5 414 -14 q 323 18 349 3 q 277 52 297 32 q 241 93 257 72 l 233 93 l 208 0 l 118 0 l 118 1055 l 241 1055 l 241 800 q 240 749 241 776 q 238 699 240 722 q 236 646 237 672 l 241 646 q 276 690 257 670 q 322 726 296 711 q 381 749 348 741 q 454 758 413 758 m 430 655 q 340 638 376 655 q 281 585 303 621 q 250 497 259 550 q 241 373 241 444 q 250 251 241 304 q 281 162 259 198 q 340 107 303 125 q 431 88 377 88 q 566 162 523 88 q 609 374 609 236 q 566 585 609 515 q 430 655 523 655 "},"≮":{"x_min":47.46875,"x_max":126.15625,"ha":174,"o":"m 113 115 l 105 94 l 126 105 l 126 92 l 99 78 l 86 48 l 126 29 l 126 15 l 82 37 l 69 5 l 57 5 l 73 42 l 47 56 l 47 65 l 90 87 l 102 115 l 113 115 m 77 53 l 84 71 l 63 60 l 77 53 "},"ﬂ":{"x_min":19,"x_max":698.4375,"ha":817,"o":"m 441 656 l 274 656 l 274 0 l 151 0 l 151 656 l 19 656 l 19 704 l 151 749 l 151 814 q 166 934 151 886 q 210 1010 181 982 q 280 1051 238 1039 q 375 1063 322 1063 q 449 1055 415 1063 q 509 1037 482 1047 l 477 941 q 431 954 456 949 q 379 960 406 960 q 332 954 352 960 q 300 931 313 947 q 280 887 287 915 q 274 815 274 859 l 274 745 l 441 745 l 441 656 m 698 0 l 575 0 l 575 1055 l 698 1055 l 698 0 "},"ㅴ":{"x_min":16.28125,"x_max":158.703125,"ha":174,"o":"m 73 18 l 64 29 q 84 84 82 46 l 84 105 l 98 105 l 98 84 q 118 29 98 45 l 109 18 q 97 37 103 25 q 91 59 91 50 l 90 54 q 84 34 88 44 q 73 18 79 25 m 49 78 l 49 104 l 62 104 l 62 18 l 49 18 l 49 22 l 29 22 l 29 18 l 16 18 l 16 104 l 29 104 l 29 78 l 49 78 m 49 35 l 49 65 l 29 65 l 29 35 l 49 35 m 113 104 l 158 104 l 158 18 l 145 18 l 145 91 l 113 91 l 113 104 "},"↽":{"x_min":28.484375,"x_max":145.140625,"ha":174,"o":"m 145 48 l 145 40 l 55 40 l 67 16 q 69 10 69 12 q 67 7 69 7 q 61 10 65 7 l 32 36 q 28 44 28 40 q 33 48 28 48 l 145 48 "},"‬":{"x_min":0,"x_max":0,"ha":0},"Ŋ":{"x_min":135,"x_max":878,"ha":1013,"o":"m 615 -264 q 554 -259 580 -264 q 510 -247 528 -255 l 510 -139 q 557 -149 532 -145 q 613 -152 583 -152 q 662 -146 637 -152 q 706 -122 686 -139 q 739 -76 726 -105 q 751 0 751 -46 l 253 821 l 248 821 q 255 717 252 768 q 259 624 257 673 q 261 538 261 576 l 261 0 l 135 0 l 135 992 l 288 992 l 757 202 l 762 202 q 757 291 759 246 q 753 371 755 329 q 751 449 751 413 l 751 992 l 878 992 l 878 13 q 859 -109 878 -57 q 806 -196 840 -162 q 724 -247 772 -230 q 615 -264 675 -264 "},"㎚":{"x_min":10.171875,"x_max":163.453125,"ha":174,"o":"m 163 0 l 147 0 l 147 60 q 146 78 147 74 q 141 82 144 82 q 134 76 137 82 q 132 60 132 71 l 132 0 l 117 0 l 117 60 q 115 78 117 74 q 109 82 113 82 q 103 76 105 82 q 101 60 101 71 l 101 0 l 86 0 l 86 92 l 99 92 l 101 82 l 101 82 q 113 94 105 94 q 127 79 124 94 l 128 79 q 145 94 133 94 q 159 86 154 94 q 163 61 163 78 l 163 0 m 76 0 l 61 0 l 61 60 q 57 76 61 71 q 46 82 53 82 q 30 73 35 82 q 25 48 25 65 l 25 0 l 10 0 l 10 92 l 23 92 l 25 80 l 25 80 q 48 94 33 94 q 69 86 62 94 q 76 61 76 78 l 76 0 "},"ㄕ":{"x_min":20.34375,"x_max":153.28125,"ha":174,"o":"m 153 78 q 148 69 153 73 q 139 65 144 65 l 59 65 q 31 -5 56 18 l 20 6 q 45 80 43 30 l 130 80 q 137 86 137 80 l 137 109 q 130 115 137 115 l 36 115 l 36 129 l 139 129 q 149 125 145 129 q 153 116 153 122 l 153 78 "},"Ⅹ":{"x_min":39.09375,"x_max":799.59375,"ha":174,"o":"m 799 0 l 656 0 l 415 430 l 166 0 l 39 0 l 346 518 l 60 992 l 194 992 l 419 612 l 647 992 l 776 992 l 489 522 l 799 0 "},"ď":{"x_min":77,"x_max":924,"ha":814,"o":"m 577 99 l 572 99 q 537 55 557 76 q 491 19 517 34 q 432 -5 465 3 q 359 -14 400 -14 q 244 10 296 -14 q 154 83 192 34 q 97 203 117 131 q 77 370 77 275 q 97 538 77 466 q 154 659 117 610 q 244 733 192 708 q 359 758 296 758 q 432 749 399 758 q 490 725 464 740 q 537 690 516 710 q 572 649 557 671 l 580 649 q 576 693 578 672 q 573 729 575 711 q 572 759 572 748 l 572 1055 l 696 1055 l 696 0 l 596 0 l 577 99 m 383 88 q 470 104 434 88 q 528 151 506 119 q 560 231 550 183 q 572 342 571 279 l 572 370 q 563 492 572 439 q 532 581 554 545 q 473 636 510 618 q 382 655 437 655 q 247 581 290 655 q 204 369 204 507 q 247 157 204 227 q 383 88 290 88 m 760 850 q 772 897 766 871 q 784 950 778 923 q 794 1005 789 978 q 801 1055 799 1032 l 924 1055 l 924 1041 q 909 997 919 1024 q 885 942 898 971 q 855 883 871 913 q 825 833 840 854 l 760 833 l 760 850 "},"ŧ":{"x_min":23,"x_max":445,"ha":471,"o":"m 343 88 q 371 89 355 88 q 400 93 386 91 q 426 97 415 95 q 445 102 438 100 l 445 8 q 422 0 436 3 q 392 -7 409 -4 q 358 -12 376 -10 q 324 -14 341 -14 q 246 -3 282 -14 q 184 34 210 8 q 142 107 157 61 q 128 222 128 153 l 128 395 l 33 395 l 33 484 l 128 484 l 128 656 l 23 656 l 23 709 l 128 759 l 180 915 l 251 915 l 251 745 l 439 745 l 439 656 l 251 656 l 251 484 l 427 484 l 427 395 l 251 395 l 251 222 q 272 122 251 155 q 343 88 294 88 "},"À":{"x_min":-0.25,"x_max":844.25,"ha":844,"o":"m 715 0 l 606 307 l 237 307 l 127 0 l 0 0 l 364 996 l 479 996 l 844 0 l 715 0 m 566 419 l 466 706 q 456 736 462 719 q 444 774 450 754 q 432 817 438 795 q 421 860 426 839 q 410 816 416 839 q 397 773 404 794 q 386 735 391 752 q 376 706 380 718 l 277 419 l 566 419 m 488 1071 l 406 1071 q 354 1118 382 1089 q 300 1175 326 1146 q 253 1233 274 1205 q 221 1278 231 1260 l 221 1293 l 369 1293 q 395 1242 380 1269 q 425 1187 409 1215 q 457 1134 441 1160 q 488 1089 473 1108 l 488 1071 "},"┰":{"x_min":-2.03125,"x_max":105.796875,"ha":104,"o":"m 105 60 l 67 60 l 67 -37 l 37 -37 l 37 60 l -2 60 l -2 74 l 105 74 l 105 60 "},"ｂ":{"x_min":47.46875,"x_max":133.609375,"ha":174,"o":"m 63 11 l 61 11 l 59 0 l 47 0 l 47 132 l 63 132 l 63 100 q 62 80 63 92 l 63 80 q 92 94 72 94 q 122 82 111 94 q 133 46 133 69 q 122 10 133 23 q 92 -1 111 -1 q 63 11 73 -1 m 90 10 q 110 20 104 10 q 117 46 117 29 q 110 73 117 64 q 90 82 104 82 q 69 74 75 82 q 63 46 63 66 q 69 18 63 27 q 90 10 76 10 "},"㎔":{"x_min":2.71875,"x_max":170.90625,"ha":174,"o":"m 122 0 l 107 0 l 107 58 l 81 58 l 81 0 l 65 0 l 65 124 l 81 124 l 81 71 l 107 71 l 107 124 l 122 124 l 122 0 m 61 109 l 39 109 l 39 0 l 24 0 l 24 109 l 2 109 l 2 124 l 61 124 l 61 109 m 170 0 l 127 0 l 127 10 l 154 81 l 129 81 l 129 92 l 169 92 l 169 80 l 143 11 l 170 11 l 170 0 "},"ヲ":{"x_min":24.421875,"x_max":149.203125,"ha":174,"o":"m 149 124 q 128 29 147 57 q 60 -10 108 1 q 51 4 57 -4 q 103 27 86 12 q 126 66 119 42 l 29 66 l 29 82 l 128 82 l 131 108 l 130 109 l 94 108 l 24 108 l 24 124 l 149 124 "},"'":{"x_min":90,"x_max":223.609375,"ha":314,"o":"m 223 992 l 195 634 l 117 634 l 90 992 l 223 992 "},"⚅":{"x_min":23.734375,"x_max":149.890625,"ha":174,"o":"m 23 125 l 149 125 l 149 0 l 23 0 l 23 125 m 31 8 l 141 8 l 141 118 l 31 118 l 31 8 m 124 97 q 121 89 124 92 q 112 85 118 85 q 104 88 107 85 q 101 97 101 92 q 104 106 101 102 q 112 109 107 109 q 121 106 118 109 q 124 97 124 102 m 73 97 q 69 88 73 92 q 61 85 65 85 q 52 88 55 85 q 48 97 48 92 q 52 106 48 102 q 61 109 55 109 q 69 106 65 109 q 73 97 73 102 m 124 63 q 121 54 124 57 q 112 50 118 50 q 104 54 107 50 q 101 63 101 57 q 104 71 101 67 q 112 75 107 75 q 121 71 118 75 q 124 63 124 67 m 73 63 q 69 54 73 57 q 61 50 65 50 q 52 54 55 50 q 48 63 48 57 q 52 71 48 67 q 61 75 55 75 q 69 71 65 75 q 73 63 73 67 m 73 28 q 69 19 73 23 q 61 16 65 16 q 52 19 55 16 q 48 28 48 23 q 52 36 48 33 q 61 40 55 40 q 69 36 65 40 q 73 28 73 33 m 124 28 q 121 19 124 23 q 112 16 118 16 q 104 19 107 16 q 101 28 101 23 q 104 36 101 33 q 112 40 107 40 q 121 36 118 40 q 124 28 124 33 "},"Ѿ":{"x_min":85,"x_max":1279,"ha":1364,"o":"m 962 1218 l 962 1199 l 906 1083 l 883 1083 l 849 1153 l 724 1153 l 691 1083 l 667 1083 l 634 1153 l 510 1153 l 476 1083 l 453 1083 l 399 1199 l 399 1218 l 962 1218 m 938 892 q 865 877 897 892 q 805 839 833 861 l 753 945 q 842 989 793 974 q 945 1004 890 1004 q 1088 970 1026 1004 q 1193 874 1150 936 q 1257 722 1235 812 q 1279 520 1279 633 q 1257 307 1279 405 q 1192 137 1236 209 q 1081 26 1148 66 q 922 -14 1014 -14 q 789 3 846 -14 q 682 53 731 20 l 680 53 q 572 3 629 20 q 441 -14 516 -14 q 282 26 349 -14 q 171 137 215 66 q 106 307 127 209 q 85 520 85 405 q 106 722 85 633 q 170 874 128 812 q 275 970 213 936 q 417 1004 337 1004 q 521 989 472 1004 q 609 945 569 974 l 558 839 q 498 877 530 861 q 425 892 466 892 q 340 869 378 892 q 274 798 302 845 q 233 681 247 751 q 218 519 218 611 q 234 346 218 423 q 280 213 249 268 q 358 127 312 157 q 468 97 405 97 q 546 109 506 97 q 618 147 586 121 l 618 449 l 744 449 l 744 147 q 815 109 775 121 q 895 97 855 97 q 1004 127 957 97 q 1083 213 1051 157 q 1129 346 1114 268 q 1145 519 1145 423 q 1130 681 1145 611 q 1088 798 1115 751 q 1023 869 1061 845 q 938 892 984 892 "},"▩":{"x_min":14.921875,"x_max":89.53125,"ha":104,"o":"m 89 27 l 14 27 l 14 102 l 89 102 l 89 27 m 78 96 l 73 96 l 75 93 l 78 96 m 71 89 l 65 96 l 63 96 l 56 89 l 64 82 l 71 89 m 54 96 l 50 96 l 52 93 l 54 96 m 47 89 l 40 96 l 39 96 l 32 89 l 40 82 l 47 89 m 30 96 l 25 96 l 28 93 l 30 96 m 82 86 l 82 91 l 80 89 l 82 86 m 23 89 l 21 91 l 21 86 l 23 89 m 82 76 l 82 78 l 75 84 l 68 77 l 75 69 l 82 76 m 59 77 l 52 84 l 44 77 l 52 69 l 59 77 m 35 77 l 28 84 l 21 78 l 21 76 l 27 69 l 35 77 m 71 65 l 64 72 l 56 65 l 64 57 l 71 65 m 47 65 l 40 72 l 32 65 l 40 57 l 47 65 m 82 63 l 82 67 l 80 65 l 82 63 m 23 65 l 21 67 l 21 63 l 23 65 m 59 52 l 52 61 l 44 52 l 52 45 l 59 52 m 82 52 l 82 53 l 75 60 l 68 52 l 75 45 l 82 52 m 35 52 l 27 60 l 21 53 l 21 52 l 27 45 l 35 52 m 71 41 l 64 48 l 56 40 l 63 33 l 65 33 l 71 41 m 47 40 l 40 48 l 32 41 l 39 33 l 40 33 l 47 40 m 82 38 l 82 43 l 80 41 l 82 38 m 23 41 l 21 43 l 21 38 l 23 41 m 78 33 l 75 36 l 73 33 l 78 33 m 30 33 l 27 36 l 25 33 l 30 33 m 54 33 l 52 36 l 50 33 l 54 33 "},"Ć":{"x_min":85,"x_max":798,"ha":838,"o":"m 538 894 q 406 867 465 894 q 305 788 347 839 q 241 662 264 736 q 218 496 218 588 q 238 326 218 400 q 298 200 258 251 q 398 123 338 150 q 538 97 458 97 q 652 108 598 97 q 760 135 707 120 l 760 26 q 707 8 733 15 q 651 -4 680 0 q 590 -11 622 -9 q 517 -14 557 -14 q 324 22 405 -14 q 189 126 243 59 q 110 288 136 193 q 85 497 85 382 q 114 703 85 609 q 201 864 144 796 q 343 968 258 931 q 538 1006 428 1006 q 677 991 611 1006 q 798 947 744 976 l 745 841 q 652 879 702 863 q 538 894 601 894 m 447 1089 q 477 1134 461 1108 q 509 1187 493 1160 q 540 1242 525 1215 q 565 1293 554 1269 l 714 1293 l 714 1278 q 681 1233 703 1260 q 634 1175 660 1205 q 580 1118 608 1146 q 529 1071 552 1089 l 447 1071 l 447 1089 "},"３":{"x_min":47.46875,"x_max":126.15625,"ha":174,"o":"m 95 65 q 126 35 126 61 q 114 8 126 18 q 80 -1 103 -1 q 47 4 59 -1 l 47 19 q 80 11 63 11 q 102 17 94 11 q 109 35 109 23 q 102 52 109 46 q 78 57 94 57 l 66 57 l 66 70 l 78 70 q 99 76 91 70 q 106 94 106 83 q 100 107 106 102 q 85 112 94 112 q 55 102 69 112 l 48 113 q 85 125 63 125 q 112 116 103 125 q 122 94 122 108 q 95 65 122 70 "},"↫":{"x_min":21.703125,"x_max":156.671875,"ha":174,"o":"m 48 48 l 109 48 l 109 62 q 115 80 109 73 q 132 87 122 87 q 149 81 143 87 q 156 65 156 74 q 149 47 156 54 q 132 40 142 40 l 117 40 l 117 11 l 109 11 l 109 40 l 48 40 l 60 16 q 63 10 63 12 q 60 7 63 7 q 54 10 58 7 l 25 36 q 21 44 21 40 q 25 52 21 48 l 54 78 q 60 81 58 81 q 63 78 63 81 q 60 71 63 76 l 48 48 m 117 48 l 132 48 q 143 53 139 48 q 147 65 147 57 q 143 75 147 71 q 132 79 139 79 q 121 74 126 79 q 117 62 117 69 l 117 48 "},"Ğ":{"x_min":85,"x_max":858,"ha":958,"o":"m 530 524 l 858 524 l 858 36 q 782 15 820 24 q 704 0 744 5 q 620 -10 664 -7 q 526 -14 576 -14 q 337 21 419 -14 q 199 123 255 57 q 114 284 143 189 q 85 497 85 378 q 117 708 85 613 q 211 868 149 802 q 363 970 272 934 q 569 1006 453 1006 q 713 991 644 1006 q 842 947 782 976 l 793 837 q 741 859 769 849 q 683 877 713 869 q 621 890 653 885 q 559 894 590 894 q 412 867 476 894 q 306 788 349 839 q 240 662 263 736 q 218 496 218 588 q 237 334 218 407 q 296 208 255 261 q 401 126 336 155 q 556 97 465 97 q 610 98 585 97 q 656 103 635 100 q 695 109 677 106 q 731 116 714 113 l 731 412 l 530 412 l 530 524 m 740 1259 q 722 1183 737 1217 q 681 1123 707 1149 q 618 1084 655 1098 q 533 1071 581 1071 q 446 1084 483 1071 q 385 1122 409 1097 q 347 1181 360 1147 q 332 1259 334 1216 l 406 1259 q 418 1212 409 1229 q 444 1186 428 1194 q 483 1175 460 1177 q 536 1172 506 1172 q 582 1175 560 1172 q 622 1188 604 1178 q 651 1214 639 1197 q 665 1259 662 1231 l 740 1259 "},"Ї":{"x_min":43,"x_max":428,"ha":471,"o":"m 414 0 l 55 0 l 55 69 l 172 96 l 172 895 l 55 922 l 55 992 l 414 992 l 414 922 l 298 895 l 298 96 l 414 69 l 414 0 m 43 1174 q 61 1227 43 1211 q 108 1244 80 1244 q 154 1227 134 1244 q 173 1174 173 1210 q 154 1121 173 1138 q 108 1105 134 1105 q 61 1121 80 1105 q 43 1174 43 1138 m 297 1174 q 316 1227 297 1211 q 362 1244 335 1244 q 387 1239 375 1244 q 408 1227 399 1235 q 422 1206 417 1218 q 428 1174 428 1193 q 408 1121 428 1138 q 362 1105 388 1105 q 316 1121 335 1105 q 297 1174 297 1138 "},"ㅻ":{"x_min":11.53125,"x_max":155.984375,"ha":174,"o":"m 50 58 q 21 19 43 34 l 11 30 q 43 84 40 46 l 43 104 l 56 104 l 56 83 q 88 31 56 46 l 80 20 q 50 58 56 33 m 90 103 l 104 103 l 104 32 l 155 32 l 155 19 l 90 19 l 90 103 "},"Ź":{"x_min":56,"x_max":693,"ha":749,"o":"m 693 0 l 56 0 l 56 97 l 537 880 l 70 880 l 70 992 l 679 992 l 679 894 l 197 111 l 693 111 l 693 0 m 305 1089 q 335 1134 319 1108 q 367 1187 351 1160 q 398 1242 383 1215 q 423 1293 412 1269 l 572 1293 l 572 1278 q 539 1233 561 1260 q 492 1175 518 1205 q 438 1118 466 1146 q 387 1071 410 1089 l 305 1071 l 305 1089 "},"ﾞ":{"x_min":5.421875,"x_max":37.296875,"ha":87,"o":"m 37 127 l 29 122 q 16 143 24 132 l 23 148 q 37 127 31 139 m 25 120 l 18 113 q 5 134 13 124 l 12 140 q 25 120 21 130 "},"╒":{"x_min":44.765625,"x_max":105.796875,"ha":104,"o":"m 105 45 l 59 45 l 59 -37 l 44 -37 l 44 89 l 105 89 l 105 74 l 59 74 l 59 60 l 105 60 l 105 45 "},"ㅱ":{"x_min":44.765625,"x_max":130.21875,"ha":174,"o":"m 130 129 l 130 71 l 116 71 l 116 75 l 58 75 l 58 71 l 44 71 l 44 129 l 130 129 m 58 88 l 116 88 l 116 116 l 58 116 l 58 88 m 80 58 l 80 69 l 92 69 l 92 58 q 117 47 108 56 q 126 25 126 38 q 115 2 126 11 q 86 -6 105 -6 q 56 2 67 -6 q 46 25 46 11 q 55 47 46 38 q 80 58 64 56 m 86 46 q 66 40 73 46 q 59 25 59 34 q 66 11 59 16 q 86 5 73 5 q 106 11 99 5 q 113 25 113 16 q 106 40 113 34 q 86 46 99 46 "},"㎃":{"x_min":2.71875,"x_max":170.90625,"ha":174,"o":"m 170 0 l 154 0 l 144 38 l 111 38 l 101 0 l 84 0 l 119 124 l 136 124 l 170 0 m 141 52 l 127 105 q 123 86 126 94 l 114 52 l 141 52 m 80 0 l 64 0 l 64 60 q 62 78 64 74 q 57 82 61 82 q 50 76 52 82 q 48 60 48 71 l 48 0 l 33 0 l 33 60 q 31 78 33 74 q 25 82 29 82 q 20 76 22 82 q 18 60 18 71 l 18 0 l 2 0 l 2 92 l 15 92 l 16 82 l 17 82 q 30 94 22 94 q 44 79 42 94 l 44 79 q 61 94 50 94 q 75 86 70 94 q 80 61 80 78 l 80 0 "},"┐":{"x_min":-2.03125,"x_max":59.6875,"ha":104,"o":"m 59 -37 l 44 -37 l 44 60 l -2 60 l -2 74 l 59 74 l 59 -37 "},"↶":{"x_min":24.421875,"x_max":155.984375,"ha":174,"o":"m 40 23 q 34 23 35 23 q 27 25 29 23 q 24 33 24 27 l 24 72 q 27 80 24 80 q 33 72 31 80 l 42 48 q 64 72 50 63 q 96 81 79 81 q 138 64 120 81 q 155 22 155 46 l 147 22 q 132 58 147 43 q 96 73 117 73 q 68 64 80 73 q 49 42 55 56 l 73 35 q 82 30 82 33 q 75 27 82 27 l 40 23 "},"ｆ":{"x_min":44.765625,"x_max":126.15625,"ha":174,"o":"m 120 81 l 87 81 l 87 0 l 71 0 l 71 81 l 44 81 l 44 90 l 71 93 l 71 101 q 79 125 71 118 q 105 132 87 132 q 126 130 115 132 l 122 118 q 105 120 113 120 q 91 115 94 120 q 87 101 87 111 l 87 92 l 120 92 l 120 81 "},"ｍ":{"x_min":23.0625,"x_max":150.5625,"ha":174,"o":"m 134 0 l 134 59 q 130 76 134 71 q 117 82 126 82 q 100 74 105 82 q 94 51 94 66 l 94 0 l 79 0 l 79 59 q 74 76 79 71 q 61 82 70 82 q 44 74 50 82 q 38 48 38 67 l 38 0 l 23 0 l 23 92 l 35 92 l 37 80 l 38 80 q 64 94 46 94 q 91 79 85 94 l 92 79 q 120 94 101 94 q 142 86 134 94 q 150 61 150 78 l 150 0 l 134 0 "},"＂":{"x_min":63.078125,"x_max":110.546875,"ha":174,"o":"m 80 124 l 76 79 l 66 79 l 63 124 l 80 124 m 110 124 l 107 79 l 96 79 l 93 124 l 110 124 "},".":{"x_min":100,"x_max":272,"ha":372,"o":"m 100 74 q 106 118 100 100 q 125 147 113 136 q 152 163 136 158 q 186 169 167 169 q 219 163 203 169 q 246 147 235 158 q 265 118 258 136 q 272 74 272 100 q 265 31 272 49 q 246 2 258 13 q 219 -14 235 -9 q 186 -20 203 -20 q 152 -14 167 -20 q 125 2 136 -9 q 106 31 113 13 q 100 74 100 49 "},"Ѡ":{"x_min":85,"x_max":1279,"ha":1364,"o":"m 938 892 q 865 877 897 892 q 805 839 833 861 l 753 945 q 842 989 793 974 q 945 1004 890 1004 q 1088 970 1026 1004 q 1193 874 1150 936 q 1257 722 1235 812 q 1279 520 1279 633 q 1257 307 1279 405 q 1192 137 1236 209 q 1081 26 1148 66 q 922 -14 1014 -14 q 789 3 846 -14 q 682 53 731 20 l 680 53 q 572 3 629 20 q 441 -14 516 -14 q 282 26 349 -14 q 171 137 215 66 q 106 307 127 209 q 85 520 85 405 q 106 722 85 633 q 170 874 128 812 q 275 970 213 936 q 417 1004 337 1004 q 521 989 472 1004 q 609 945 569 974 l 558 839 q 498 877 530 861 q 425 892 466 892 q 340 869 378 892 q 274 798 302 845 q 233 681 247 751 q 218 519 218 611 q 234 346 218 423 q 280 213 249 268 q 358 127 312 157 q 468 97 405 97 q 546 109 506 97 q 618 147 586 121 l 618 449 l 744 449 l 744 147 q 815 109 775 121 q 895 97 855 97 q 1004 127 957 97 q 1083 213 1051 157 q 1129 346 1114 268 q 1145 519 1145 423 q 1130 681 1145 611 q 1088 798 1115 751 q 1023 869 1061 845 q 938 892 984 892 "},"║":{"x_min":29.84375,"x_max":74.609375,"ha":104,"o":"m 74 -37 l 59 -37 l 59 172 l 74 172 l 74 -37 m 44 -37 l 29 -37 l 29 172 l 44 172 l 44 -37 "},"ㅋ":{"x_min":30.515625,"x_max":139.03125,"ha":174,"o":"m 30 105 l 139 105 l 139 20 l 125 20 l 125 61 l 31 48 l 30 61 l 125 71 l 125 92 l 30 92 l 30 105 "},"㎱":{"x_min":18.3125,"x_max":155.3125,"ha":174,"o":"m 99 4 l 99 18 q 123 10 111 10 q 136 14 132 10 q 140 24 140 17 q 136 33 140 29 q 120 43 132 37 q 104 55 107 50 q 100 69 100 61 q 108 88 100 81 q 129 94 115 94 q 154 88 141 94 l 149 75 q 128 82 137 82 q 118 79 122 82 q 115 71 115 76 q 118 62 115 65 q 133 52 120 59 q 151 40 147 46 q 155 25 155 33 q 147 5 155 12 q 123 -1 139 -1 q 99 4 107 -1 m 84 0 l 69 0 l 69 60 q 65 76 69 71 q 53 82 61 82 q 38 73 43 82 q 33 48 33 65 l 33 0 l 18 0 l 18 92 l 31 92 l 32 80 l 33 80 q 43 90 37 86 q 56 94 50 94 q 77 86 70 94 q 84 61 84 78 l 84 0 "},"㎌":{"x_min":8.140625,"x_max":165.484375,"ha":174,"o":"m 165 109 l 117 109 l 117 66 l 162 66 l 162 52 l 117 52 l 117 0 l 101 0 l 101 124 l 165 124 l 165 109 m 93 15 q 75 -1 87 -1 q 64 12 67 -1 l 63 12 q 43 -1 56 -1 q 35 1 39 -1 q 30 6 31 3 l 23 -41 l 8 -41 l 29 92 l 44 92 l 35 33 q 34 24 34 29 q 37 14 34 18 q 44 11 40 11 q 55 16 51 11 q 62 35 59 21 l 71 92 l 86 92 l 75 26 q 75 18 75 23 q 79 12 75 12 q 84 20 82 12 l 93 15 "},"ﾀ":{"x_min":2.71875,"x_max":84.09375,"ha":87,"o":"m 80 103 q 25 -11 68 22 l 14 2 q 50 48 36 18 q 28 67 43 56 l 37 78 q 56 63 49 70 q 67 101 64 84 l 66 102 l 35 102 q 14 51 27 73 l 2 62 q 28 137 20 92 l 42 131 l 39 115 l 68 115 l 72 118 q 84 107 84 109 q 80 103 84 105 "},"Ẫ":{"x_min":-0.25,"x_max":844.25,"ha":844,"o":"m 715 0 l 606 307 l 237 307 l 127 0 l 0 0 l 364 996 l 479 996 l 844 0 l 715 0 m 566 419 l 466 706 q 456 736 462 719 q 444 774 450 754 q 432 817 438 795 q 421 860 426 839 q 410 816 416 839 q 397 773 404 794 q 386 735 391 752 q 376 706 380 718 l 277 419 l 566 419 m 212 1089 q 285 1174 246 1129 q 357 1266 325 1219 l 488 1266 q 560 1174 520 1219 q 634 1089 599 1129 l 634 1071 l 566 1071 q 495 1122 531 1094 q 423 1183 459 1151 q 350 1122 387 1151 q 279 1071 314 1094 l 212 1071 l 212 1089 m 514 1306 q 466 1316 490 1306 q 418 1339 442 1327 q 373 1363 395 1352 q 333 1373 352 1373 q 291 1357 305 1373 q 268 1304 277 1342 l 205 1304 q 218 1364 208 1337 q 244 1412 228 1392 q 282 1443 260 1432 q 333 1455 304 1455 q 383 1444 358 1455 q 431 1421 408 1433 q 476 1397 455 1408 q 514 1387 497 1387 q 555 1403 541 1387 q 579 1456 570 1419 l 642 1456 q 629 1396 638 1423 q 603 1348 619 1368 q 565 1317 587 1328 q 514 1306 543 1306 "},"ㄳ":{"x_min":22.375,"x_max":160.0625,"ha":174,"o":"m 124 67 q 91 18 116 37 l 82 29 q 118 92 113 48 l 118 107 l 131 107 l 131 92 q 160 31 131 48 l 151 21 q 124 67 129 36 m 22 104 l 82 104 l 82 18 l 68 18 l 68 91 l 22 91 l 22 104 "},"㎂":{"x_min":1.359375,"x_max":172.265625,"ha":174,"o":"m 172 0 l 156 0 l 146 38 l 112 38 l 102 0 l 86 0 l 121 124 l 137 124 l 172 0 m 142 52 l 129 105 q 125 86 129 103 l 116 52 l 142 52 m 86 15 q 69 -1 80 -1 q 57 12 60 -1 l 56 12 q 36 -1 49 -1 q 28 1 32 -1 q 23 6 24 3 l 16 -41 l 1 -41 l 22 92 l 37 92 l 28 33 q 27 24 27 29 q 30 14 27 18 q 37 11 33 11 q 48 16 44 11 q 55 35 52 21 l 64 92 l 79 92 l 69 26 q 68 18 68 23 q 72 12 68 12 q 78 20 75 12 l 86 15 "},"à":{"x_min":64,"x_max":626,"ha":737,"o":"m 536 0 l 511 102 l 505 102 q 461 50 483 72 q 412 13 439 28 q 353 -7 386 0 q 278 -14 321 -14 q 193 0 232 -14 q 125 40 153 12 q 80 109 96 67 q 64 208 64 151 q 142 379 64 320 q 379 445 220 439 l 503 450 l 503 496 q 494 572 503 541 q 465 620 484 602 q 419 647 447 639 q 357 655 392 655 q 253 639 301 655 q 160 599 204 623 l 117 692 q 228 739 167 720 q 357 758 290 758 q 477 744 427 758 q 560 700 527 730 q 609 623 593 669 q 626 509 626 576 l 626 0 l 536 0 m 310 88 q 386 101 351 88 q 447 140 422 114 q 488 205 473 166 q 502 298 502 245 l 502 365 l 405 360 q 303 346 345 357 q 237 316 262 336 q 202 270 213 297 q 191 208 191 243 q 224 117 191 146 q 310 88 257 88 m 460 842 l 378 842 q 326 889 354 860 q 272 946 298 917 q 225 1004 246 976 q 193 1049 203 1031 l 193 1064 l 341 1064 q 367 1013 352 1040 q 397 958 381 986 q 429 905 413 931 q 460 860 445 879 l 460 842 "},"㍾":{"x_min":10.171875,"x_max":165.484375,"ha":174,"o":"m 130 140 l 143 136 q 126 84 134 97 q 149 92 137 86 q 142 111 146 102 l 151 117 q 165 71 160 96 l 155 65 l 152 80 q 118 71 136 73 l 115 84 q 130 140 124 103 m 98 137 q 118 117 109 128 l 110 107 q 90 129 101 120 l 98 137 m 87 136 l 87 2 q 84 -9 87 -6 q 73 -13 80 -13 q 65 -12 71 -13 l 63 -1 q 71 -2 68 -2 q 75 4 75 -2 l 75 44 l 61 44 q 46 -14 59 9 l 37 -5 q 51 78 51 20 l 51 136 l 87 136 m 63 95 l 75 95 l 75 124 l 63 124 l 63 95 m 62 54 l 75 54 l 75 85 l 63 85 l 63 73 q 62 54 63 65 m 43 132 l 43 16 l 21 16 l 21 -2 l 10 -2 l 10 132 l 43 132 m 31 80 l 31 120 l 21 120 l 21 80 l 31 80 m 21 69 l 21 28 l 31 28 l 31 69 l 21 69 m 96 96 q 113 79 105 89 l 105 69 q 88 88 97 80 l 96 96 m 101 58 l 111 55 q 99 -12 109 18 l 88 -7 q 101 58 98 25 m 161 56 l 161 -14 l 149 -14 l 149 -4 l 128 -4 l 128 -14 l 116 -14 l 116 56 l 161 56 m 128 7 l 149 7 l 149 45 l 128 45 l 128 7 "},"Ｒ":{"x_min":44.765625,"x_max":139.03125,"ha":174,"o":"m 61 51 l 61 0 l 44 0 l 44 124 l 85 124 q 118 115 107 124 q 129 88 129 106 q 105 55 129 64 l 139 0 l 120 0 l 90 51 l 61 51 m 61 64 l 85 64 q 106 70 99 64 q 113 88 113 76 q 106 105 113 99 q 84 110 100 110 l 61 110 l 61 64 "},"₴":{"x_min":2.71875,"x_max":93.59375,"ha":96,"o":"m 13 44 l 2 44 l 2 55 l 21 55 q 43 69 27 62 l 2 69 l 2 80 l 63 80 q 67 94 67 86 q 62 106 67 101 q 47 111 56 111 q 21 105 34 111 l 15 118 q 47 125 29 125 q 73 116 63 125 q 83 94 83 107 q 80 80 83 86 l 93 80 l 93 69 l 72 69 q 53 58 65 63 l 48 55 l 93 55 l 93 44 l 30 44 q 27 32 27 39 q 33 17 27 22 q 52 12 39 12 q 84 18 69 12 l 84 4 q 51 -1 72 -1 q 22 8 32 -1 q 11 33 11 17 q 13 44 11 39 "},"⒯":{"x_min":12.203125,"x_max":161.421875,"ha":174,"o":"m 37 130 l 45 130 q 21 61 21 100 q 45 -5 21 24 l 37 -5 q 12 61 12 21 q 37 130 12 103 m 136 -5 l 128 -5 q 152 61 152 24 q 128 130 152 100 l 136 130 q 161 61 161 103 q 136 -5 161 21 m 107 32 l 107 25 q 94 23 101 23 q 80 28 85 23 q 75 41 75 32 l 75 73 l 62 73 l 62 78 l 75 80 l 80 95 l 85 95 l 85 80 l 107 80 l 107 73 l 85 73 l 85 41 q 87 33 85 36 q 94 31 90 31 q 107 32 101 31 "},"╮":{"x_min":-2.03125,"x_max":59.6875,"ha":104,"o":"m 59 13 l 44 13 q 31 46 44 32 q -2 60 17 60 l -2 74 q 41 56 23 74 q 59 13 59 38 "},"｢":{"x_min":33.234375,"x_max":80.03125,"ha":87,"o":"m 80 125 l 48 125 l 48 42 l 33 42 l 33 138 l 80 138 l 80 125 "},"ҁ":{"x_min":77,"x_max":596,"ha":643,"o":"m 403 -14 q 275 7 334 -14 q 171 75 215 28 q 102 193 127 121 q 77 367 77 266 q 102 548 77 474 q 173 669 128 623 q 278 736 218 715 q 408 758 339 758 q 511 746 461 758 q 596 717 562 734 l 559 613 q 524 627 543 620 q 485 638 505 633 q 445 647 465 643 q 408 650 425 650 q 253 581 302 650 q 204 369 204 512 q 253 160 204 226 q 402 93 302 93 q 480 103 444 93 q 539 125 515 112 l 539 -334 l 415 -334 l 415 -14 l 403 -14 "},"Ｍ":{"x_min":28.484375,"x_max":145.8125,"ha":174,"o":"m 79 0 l 42 108 l 41 108 q 42 73 42 84 l 42 0 l 28 0 l 28 124 l 51 124 l 86 23 l 122 124 l 145 124 l 145 0 l 129 0 l 129 75 q 130 108 129 86 l 130 108 l 92 0 l 79 0 "},"e":{"x_min":77,"x_max":673,"ha":743,"o":"m 412 -14 q 276 11 337 -14 q 170 84 214 36 q 101 203 125 132 q 77 366 77 274 q 99 531 77 458 q 162 654 121 604 q 259 731 202 705 q 384 758 316 758 q 505 733 451 758 q 595 665 558 709 q 653 560 633 621 q 673 423 673 498 l 673 346 l 204 346 q 259 155 207 216 q 413 93 311 93 q 477 97 448 93 q 534 107 507 100 q 587 123 561 113 q 639 145 613 133 l 639 35 q 586 13 612 22 q 533 -2 560 3 q 476 -11 505 -8 q 412 -14 446 -14 m 384 655 q 260 602 306 655 q 207 449 214 549 l 545 449 q 536 533 545 495 q 507 598 526 571 q 457 640 487 625 q 384 655 427 655 "},"ﾐ":{"x_min":9.5,"x_max":78,"ha":87,"o":"m 74 116 l 71 101 q 12 114 44 111 l 14 130 q 74 116 46 126 m 71 66 l 67 50 q 15 67 47 62 l 17 82 q 71 66 47 78 m 78 4 l 72 -10 q 9 14 48 6 l 12 29 q 78 4 48 23 "},"Ѓ":{"x_min":135,"x_max":649,"ha":682,"o":"m 649 992 l 649 880 l 261 880 l 261 0 l 135 0 l 135 992 l 649 992 m 301 1089 q 331 1134 315 1108 q 363 1187 347 1160 q 394 1242 379 1215 q 419 1293 408 1269 l 568 1293 l 568 1278 q 535 1233 557 1260 q 488 1175 514 1205 q 434 1118 462 1146 q 383 1071 406 1089 l 301 1071 l 301 1089 "},"ò":{"x_min":77,"x_max":725,"ha":802,"o":"m 725 373 q 702 208 725 280 q 637 86 679 135 q 534 11 594 37 q 398 -14 474 -14 q 270 11 329 -14 q 168 86 211 37 q 101 208 125 135 q 77 373 77 280 q 99 537 77 465 q 164 657 122 608 q 267 732 206 707 q 403 758 327 758 q 531 732 472 758 q 633 657 590 707 q 700 537 676 608 q 725 373 725 465 m 204 373 q 250 159 204 231 q 401 88 297 88 q 551 159 506 88 q 597 373 597 231 q 551 585 597 515 q 400 655 504 655 q 250 585 295 655 q 204 373 204 515 m 507 842 l 425 842 q 373 889 401 860 q 319 946 345 917 q 272 1004 293 976 q 240 1049 250 1031 l 240 1064 l 388 1064 q 414 1013 399 1040 q 444 958 428 986 q 476 905 460 931 q 507 860 492 879 l 507 842 "},"к":{"x_min":118,"x_max":676.25,"ha":682,"o":"m 516 745 l 649 745 l 369 387 l 676 0 l 536 0 l 241 377 l 241 0 l 118 0 l 118 745 l 241 745 l 241 383 l 516 745 "},"￼":{"x_min":57,"x_max":1346,"ha":1389,"o":"m 57 823 l 57 1030 l 262 1030 l 262 954 l 132 954 l 132 823 l 57 823 m 1139 954 l 1139 1030 l 1346 1030 l 1346 823 l 1272 823 l 1272 954 l 1139 954 m 57 -260 l 57 -54 l 132 -54 l 132 -186 l 262 -186 l 262 -260 l 57 -260 m 1139 -260 l 1139 -186 l 1272 -186 l 1272 -54 l 1346 -54 l 1346 -260 l 1139 -260 m 875 -260 l 875 -186 l 1060 -186 l 1060 -260 l 875 -260 m 345 -260 l 345 -186 l 528 -186 l 528 -260 l 345 -260 m 345 954 l 345 1030 l 528 1030 l 528 954 l 345 954 m 1346 26 l 1272 26 l 1272 210 l 1346 210 l 1346 26 m 1346 558 l 1272 558 l 1272 742 l 1346 742 l 1346 558 m 610 -260 l 610 -186 l 794 -186 l 794 -260 l 610 -260 m 132 26 l 57 26 l 57 210 l 132 210 l 132 26 m 610 954 l 610 1030 l 794 1030 l 794 954 l 610 954 m 875 954 l 875 1030 l 1060 1030 l 1060 954 l 875 954 m 132 291 l 57 291 l 57 476 l 132 476 l 132 291 m 132 558 l 57 558 l 57 742 l 132 742 l 132 558 m 1346 291 l 1272 291 l 1272 476 l 1346 476 l 1346 291 m 408 224 q 276 277 322 224 q 231 427 231 331 q 276 577 231 525 q 408 631 322 630 q 540 578 494 631 q 586 427 586 525 q 540 277 586 331 q 408 224 494 224 m 408 294 q 478 329 457 294 q 499 427 499 364 q 478 525 499 490 q 408 559 457 559 q 339 525 361 559 q 317 427 317 490 q 339 329 317 364 q 408 294 361 294 m 643 626 l 759 626 q 871 603 833 626 q 909 524 909 580 q 893 468 909 491 q 847 439 878 445 l 847 437 q 903 406 886 429 q 921 344 921 383 q 884 259 921 289 q 783 229 847 229 l 643 229 l 643 626 m 726 469 l 770 469 q 814 480 801 469 q 826 513 826 491 q 812 546 826 536 q 766 556 798 556 l 726 556 l 726 469 m 726 402 l 726 298 l 776 298 q 822 312 809 298 q 834 352 834 327 q 821 388 834 374 q 773 402 809 402 l 726 402 m 956 231 l 956 300 q 978 297 967 298 q 1002 295 989 295 q 1044 307 1028 295 q 1061 353 1061 319 l 1061 626 l 1146 626 l 1146 356 q 1110 258 1146 292 q 1011 225 1075 225 q 956 231 969 225 "},"┲":{"x_min":-2.03125,"x_max":105.796875,"ha":104,"o":"m 105 52 l 67 52 l 67 -37 l 37 -37 l 37 60 l -2 60 l -2 74 l 37 74 l 37 82 l 105 82 l 105 52 "},"ѻ":{"x_min":77,"x_max":808,"ha":885,"o":"m 808 373 q 788 228 808 293 q 733 115 769 163 q 645 37 696 67 q 528 -5 593 6 q 502 -59 522 -44 q 444 -75 482 -75 q 384 -60 404 -75 q 359 -7 364 -44 q 244 35 296 5 q 155 114 192 66 q 97 227 118 162 q 77 373 77 292 q 96 517 77 452 q 152 629 115 582 q 240 708 188 677 q 359 751 293 738 q 384 803 364 789 q 444 817 404 817 q 502 803 481 817 q 528 749 522 788 q 642 706 590 737 q 730 627 693 675 q 787 516 767 580 q 808 373 808 452 m 204 373 q 242 186 204 256 q 362 95 279 116 q 389 136 370 125 q 444 146 408 146 q 497 136 478 146 q 524 96 516 125 q 643 187 606 117 q 680 373 680 257 q 643 557 680 488 q 524 647 606 625 q 497 607 516 618 q 444 596 478 596 q 389 607 408 596 q 362 648 370 618 q 242 559 279 627 q 204 373 204 491 "},"ū":{"x_min":111,"x_max":700,"ha":818,"o":"m 600 0 l 582 99 l 575 99 q 534 48 558 70 q 483 13 511 27 q 424 -7 455 0 q 360 -14 393 -14 q 252 1 299 -14 q 174 50 205 17 q 126 135 142 83 q 111 258 111 186 l 111 745 l 234 745 l 234 264 q 270 132 234 176 q 381 88 306 88 q 474 106 436 88 q 534 158 511 123 q 566 242 556 192 q 576 357 576 292 l 576 745 l 700 745 l 700 0 l 600 0 m 214 943 l 604 943 l 604 842 l 214 842 l 214 943 "},"ˆ":{"x_min":175,"x_max":625,"ha":802,"o":"m 625 842 l 543 842 q 471 897 508 864 q 400 967 435 930 q 327 897 363 930 q 257 842 291 864 l 175 842 l 175 860 q 215 905 192 879 q 261 958 238 931 q 304 1013 284 986 q 334 1064 324 1040 l 465 1064 q 495 1013 475 1040 q 538 958 515 986 q 584 905 561 931 q 625 860 608 879 l 625 842 "},"ﾜ":{"x_min":8.8125,"x_max":78,"ha":87,"o":"m 78 124 q 73 48 78 67 q 57 14 69 29 q 29 -9 46 0 l 18 4 q 50 34 40 15 q 60 91 60 53 l 61 110 l 25 109 l 25 59 l 8 59 l 8 124 l 78 124 "},"ゃ":{"x_min":25.09375,"x_max":148.53125,"ha":174,"o":"m 88 27 l 91 41 q 113 37 101 37 q 128 42 122 37 q 133 54 133 47 q 127 67 133 62 q 111 72 122 72 q 105 71 108 72 l 109 55 l 96 50 l 90 69 q 68 63 75 66 l 87 -8 l 73 -12 l 54 59 l 29 51 l 25 66 q 50 73 33 68 l 43 99 l 57 103 l 64 78 q 86 82 68 79 l 80 102 l 94 105 l 100 85 q 111 86 107 86 q 138 77 128 86 q 148 54 148 67 q 139 32 148 40 q 114 23 130 23 q 88 27 103 23 "},"￦":{"x_min":5.421875,"x_max":168.203125,"ha":174,"o":"m 5 46 l 5 58 l 29 58 l 25 71 l 5 71 l 5 83 l 22 83 l 11 124 l 28 124 l 38 83 l 67 83 l 78 124 l 95 124 l 105 83 l 135 83 l 145 124 l 162 124 l 151 83 l 168 83 l 168 71 l 148 71 l 145 58 l 168 58 l 168 46 l 142 46 l 130 0 l 114 0 l 102 46 l 72 46 l 60 0 l 44 0 l 31 46 l 5 46 m 86 105 l 82 83 l 92 83 q 86 105 88 95 m 112 58 l 130 58 l 132 71 l 109 71 l 112 58 m 44 58 l 61 58 l 65 71 l 41 71 l 44 58 m 75 58 l 99 58 l 95 71 l 79 71 l 75 58 m 123 21 l 127 46 l 115 46 l 122 19 l 122 16 l 123 21 m 52 16 l 58 46 l 47 46 l 52 25 l 52 21 l 52 16 "},"Ν":{"x_min":135,"x_max":878,"ha":1013,"o":"m 878 0 l 724 0 l 253 821 l 248 821 q 255 717 252 768 q 259 624 257 673 q 261 538 261 576 l 261 0 l 135 0 l 135 992 l 288 992 l 757 174 l 762 174 q 757 276 759 226 q 755 321 756 298 q 753 366 754 343 q 752 410 752 389 q 751 449 751 431 l 751 992 l 878 992 l 878 0 "},"✘":{"x_min":23.734375,"x_max":149.203125,"ha":174,"o":"m 50 123 q 78 132 61 129 q 86 89 79 113 q 130 131 110 115 q 149 119 139 128 q 94 64 123 96 q 124 14 105 39 q 110 0 112 2 q 78 44 92 19 q 40 -7 54 15 q 23 16 30 6 q 66 68 37 35 q 50 123 56 92 "},"③":{"x_min":18.3125,"x_max":155.3125,"ha":174,"o":"m 155 62 q 134 14 155 34 q 86 -5 114 -5 q 38 14 59 -5 q 18 62 18 34 q 38 110 18 90 q 86 130 58 130 q 135 110 115 130 q 155 62 155 90 m 148 62 q 130 105 148 87 q 86 124 111 124 q 43 105 61 124 q 25 62 25 87 q 43 19 25 37 q 86 1 61 1 q 130 19 111 1 q 148 62 148 37 m 91 63 q 110 46 110 61 q 103 29 110 35 q 82 23 96 23 q 63 27 70 23 l 63 36 q 82 31 72 31 q 96 35 91 31 q 101 46 101 38 q 95 56 101 52 q 81 59 90 59 l 74 59 l 74 67 l 81 67 q 94 70 90 67 q 98 81 98 73 q 95 89 98 86 q 86 92 92 92 q 68 86 76 92 l 63 92 q 86 100 73 100 q 102 95 96 100 q 107 82 107 90 q 91 63 107 67 "},"ㅎ":{"x_min":27.8125,"x_max":147.171875,"ha":174,"o":"m 108 114 l 108 101 l 62 101 l 62 114 l 108 114 m 147 90 l 147 78 l 27 78 l 27 90 l 147 90 m 80 65 l 80 73 l 93 73 l 93 65 q 129 36 129 62 q 119 15 129 23 q 86 8 108 8 q 53 15 64 8 q 43 36 43 23 q 80 65 43 62 m 86 54 q 63 49 71 54 q 56 36 56 45 q 63 23 56 27 q 86 18 71 18 q 109 23 101 18 q 116 36 116 27 q 109 49 116 45 q 86 54 101 54 "},"Ҋ":{"x_min":136,"x_max":1011.25,"ha":1025,"o":"m 752 0 l 752 538 q 754 624 752 576 q 758 717 756 673 q 765 821 761 768 l 760 821 l 289 0 l 136 0 l 136 992 l 262 992 l 262 449 q 261 410 262 431 q 260 366 261 389 q 258 320 259 343 q 256 276 257 297 q 251 174 254 226 l 256 174 l 725 992 l 879 992 l 879 111 l 1011 111 l 904 -261 l 757 -261 l 879 0 l 752 0 m 773 1286 q 752 1193 768 1233 q 704 1125 735 1153 q 624 1084 672 1098 q 508 1071 576 1071 q 391 1084 439 1071 q 314 1124 343 1097 q 269 1191 284 1151 q 253 1286 255 1231 l 368 1286 q 380 1219 371 1245 q 407 1178 390 1193 q 449 1158 424 1163 q 511 1152 475 1152 q 565 1158 540 1152 q 609 1181 590 1165 q 639 1222 627 1196 q 654 1286 650 1247 l 773 1286 "},"œ":{"x_min":77,"x_max":1194,"ha":1264,"o":"m 934 -14 q 777 23 846 -14 q 665 135 708 61 q 554 23 622 61 q 400 -14 487 -14 q 271 11 330 -14 q 168 86 211 37 q 101 208 125 135 q 77 373 77 280 q 99 537 77 465 q 164 657 122 608 q 267 732 207 707 q 404 758 328 758 q 553 720 486 758 q 662 610 619 682 q 765 720 702 682 q 906 758 827 758 q 1026 733 973 758 q 1117 665 1079 709 q 1174 560 1154 621 q 1194 423 1194 498 l 1194 346 l 727 346 q 782 155 730 216 q 935 93 833 93 q 999 97 970 93 q 1056 107 1028 100 q 1108 123 1083 113 q 1160 145 1134 133 l 1160 35 q 1107 13 1133 22 q 1054 -2 1081 3 q 997 -11 1027 -8 q 934 -14 968 -14 m 204 373 q 251 159 204 231 q 402 88 297 88 q 552 156 505 88 q 600 366 600 224 q 552 585 600 515 q 401 655 504 655 q 250 585 296 655 q 204 373 204 515 m 1066 449 q 1057 533 1066 495 q 1028 598 1048 571 q 979 640 1009 625 q 906 655 948 655 q 783 602 828 655 q 730 449 737 549 l 1066 449 "},"ｩ":{"x_min":14.921875,"x_max":71.890625,"ha":87,"o":"m 71 72 q 62 9 71 28 q 33 -21 53 -9 l 25 -9 q 57 60 57 6 l 57 69 l 28 69 l 28 33 l 14 33 l 14 82 l 36 82 l 36 104 l 49 104 l 49 82 l 71 82 l 71 72 "},"Ｙ":{"x_min":33.90625,"x_max":139.71875,"ha":174,"o":"m 86 61 l 121 124 l 139 124 l 94 48 l 94 0 l 78 0 l 78 47 l 33 124 l 52 124 l 86 61 "},"⒊":{"x_min":33.46875,"x_max":145.671875,"ha":174,"o":"m 81 65 q 112 35 112 61 q 100 8 112 18 q 66 -1 89 -1 q 33 4 45 -1 l 33 19 q 66 11 49 11 q 88 17 80 11 q 95 35 95 23 q 88 52 95 46 q 64 57 80 57 l 52 57 l 52 70 l 64 70 q 85 76 77 70 q 92 94 92 83 q 86 107 92 102 q 71 112 80 112 q 41 102 55 112 l 34 113 q 71 125 49 125 q 98 116 89 125 q 108 94 108 108 q 81 65 108 70 m 145 9 q 142 0 145 3 q 134 -2 140 -2 q 126 0 129 -2 q 123 9 123 3 q 126 18 123 15 q 134 21 129 21 q 142 18 140 21 q 145 9 145 15 "},"ｦ":{"x_min":10.171875,"x_max":76.640625,"ha":87,"o":"m 76 123 q 65 30 76 58 q 29 -11 53 2 l 21 0 q 59 67 51 14 l 12 67 l 12 82 l 61 82 q 62 109 62 91 l 10 109 l 10 123 l 76 123 "},"⇦":{"x_min":18.984375,"x_max":147.171875,"ha":174,"o":"m 147 69 l 147 26 l 70 26 l 70 5 q 67 1 70 1 q 64 2 65 1 l 18 48 l 64 92 q 67 94 65 94 q 70 90 70 94 l 70 69 l 147 69 m 139 61 l 62 61 l 62 79 l 30 48 l 62 16 l 62 34 l 139 34 l 139 61 "},"゜":{"x_min":2.71875,"x_max":38.65625,"ha":174,"o":"m 2 130 q 7 143 2 137 q 20 148 12 148 q 33 143 27 148 q 38 130 38 137 q 33 118 38 123 q 20 112 27 112 q 7 117 12 112 q 2 130 2 122 m 12 130 q 14 124 12 126 q 20 122 16 122 q 26 124 23 122 q 28 130 28 126 q 26 136 28 133 q 20 139 23 139 q 14 136 16 139 q 12 130 12 134 "},"ș":{"x_min":61.15625,"x_max":564,"ha":627,"o":"m 564 203 q 544 108 564 149 q 487 40 524 68 q 398 0 450 13 q 281 -14 346 -14 q 154 -2 207 -14 q 61 33 101 9 l 61 146 q 107 125 82 135 q 161 106 133 114 q 219 93 189 98 q 279 88 249 88 q 353 95 323 88 q 403 116 384 103 q 431 150 423 130 q 440 194 440 170 q 433 232 440 215 q 409 265 427 249 q 360 299 391 282 q 280 337 329 316 q 193 378 232 358 q 127 424 154 399 q 86 482 100 449 q 72 560 72 515 q 90 645 72 608 q 143 707 109 682 q 224 745 177 732 q 330 758 272 758 q 451 743 396 758 q 554 706 505 729 l 512 606 q 422 641 468 626 q 329 655 376 655 q 228 632 261 655 q 195 568 195 610 q 203 526 195 544 q 229 493 210 509 q 279 461 248 477 q 358 426 311 445 q 444 385 406 405 q 509 339 482 365 q 549 281 535 314 q 564 203 564 249 m 202 -288 q 218 -246 209 -271 q 235 -191 227 -220 q 249 -135 243 -163 q 258 -85 256 -107 l 381 -85 l 381 -98 q 366 -141 376 -115 q 340 -197 355 -167 q 306 -255 325 -226 q 268 -307 288 -284 l 202 -307 l 202 -288 "},"Ѵ":{"x_min":-0.25,"x_max":869,"ha":825,"o":"m 795 892 q 753 879 771 892 q 721 843 735 867 q 694 784 706 818 q 670 704 682 749 l 468 0 l 329 0 l 0 992 l 133 992 l 333 362 q 368 241 352 301 q 395 128 383 182 q 419 245 405 181 q 451 374 433 309 l 546 722 q 588 851 567 798 q 634 937 609 904 q 695 985 660 970 q 781 1000 730 1000 q 828 995 805 1000 q 869 984 851 990 l 869 877 q 835 887 853 883 q 795 892 817 892 "},"ｺ":{"x_min":9.5,"x_max":77.3125,"ha":87,"o":"m 77 -6 l 61 -6 l 61 5 l 9 5 l 9 19 l 61 19 l 61 99 l 10 99 l 10 113 l 77 113 l 77 -6 "},"ạ":{"x_min":64,"x_max":626,"ha":737,"o":"m 536 0 l 511 102 l 505 102 q 461 50 483 72 q 412 13 439 28 q 353 -7 386 0 q 278 -14 321 -14 q 193 0 232 -14 q 125 40 153 12 q 80 109 96 67 q 64 208 64 151 q 142 379 64 320 q 379 445 220 439 l 503 450 l 503 496 q 494 572 503 541 q 465 620 484 602 q 419 647 447 639 q 357 655 392 655 q 253 639 301 655 q 160 599 204 623 l 117 692 q 228 739 167 720 q 357 758 290 758 q 477 744 427 758 q 560 700 527 730 q 609 623 593 669 q 626 509 626 576 l 626 0 l 536 0 m 310 88 q 386 101 351 88 q 447 140 422 114 q 488 205 473 166 q 502 298 502 245 l 502 365 l 405 360 q 303 346 345 357 q 237 316 262 336 q 202 270 213 297 q 191 208 191 243 q 224 117 191 146 q 310 88 257 88 m 281 -166 q 303 -107 281 -126 q 359 -89 326 -89 q 414 -107 391 -89 q 436 -166 436 -126 q 431 -201 436 -186 q 414 -225 425 -215 q 389 -239 404 -234 q 359 -244 375 -244 q 303 -225 326 -244 q 281 -166 281 -206 "},"さ":{"x_min":19.671875,"x_max":153.953125,"ha":174,"o":"m 153 98 l 107 94 q 141 45 126 60 l 130 35 q 82 50 113 50 q 53 45 63 50 q 44 29 44 40 q 55 14 44 21 q 89 8 65 8 q 139 11 108 8 l 137 -4 q 86 -6 108 -6 q 44 3 58 -6 q 29 29 29 13 q 43 54 29 44 q 82 65 56 65 q 115 56 97 65 l 115 56 q 91 92 101 73 q 54 91 67 91 l 21 91 l 19 106 l 63 106 q 84 107 71 106 l 71 132 l 85 138 l 101 108 l 153 113 l 153 98 "},"⇖":{"x_min":37.296875,"x_max":146.5,"ha":174,"o":"m 53 69 l 129 -6 l 123 -12 l 50 60 l 48 47 q 42 40 46 40 q 39 46 39 40 l 37 86 q 39 94 37 92 q 46 96 42 96 l 48 96 l 87 94 q 94 91 94 94 q 86 86 94 87 l 73 83 l 146 10 l 141 4 l 64 80 l 55 78 l 53 69 "},"д":{"x_min":28,"x_max":732,"ha":760,"o":"m 732 -258 l 615 -258 l 615 0 l 144 0 l 144 -258 l 28 -258 l 28 102 l 85 102 q 163 242 130 167 q 220 401 197 318 q 254 571 243 484 q 267 745 266 658 l 630 745 l 630 102 l 732 102 l 732 -258 m 506 102 l 506 656 l 383 656 q 365 511 378 585 q 332 365 352 437 q 282 226 311 293 q 215 102 253 159 l 506 102 "},"－":{"x_min":65.78125,"x_max":107.84375,"ha":174,"o":"m 65 39 l 65 53 l 107 53 l 107 39 l 65 39 "},"ӥ":{"x_min":118,"x_max":735,"ha":853,"o":"m 234 745 l 234 291 l 226 120 l 576 745 l 735 745 l 735 0 l 618 0 l 618 439 l 625 622 l 276 0 l 118 0 l 118 745 l 234 745 m 234 945 q 252 998 234 982 q 299 1015 271 1015 q 345 998 325 1015 q 364 945 364 981 q 345 892 364 909 q 299 876 325 876 q 252 892 271 876 q 234 945 234 909 m 488 945 q 507 998 488 982 q 553 1015 526 1015 q 578 1010 566 1015 q 599 998 590 1006 q 613 977 608 989 q 619 945 619 964 q 599 892 619 909 q 553 876 579 876 q 507 892 526 876 q 488 945 488 909 "},"┆":{"x_min":44.765625,"x_max":59.6875,"ha":104,"o":"m 59 111 l 44 111 l 44 172 l 59 172 l 59 111 m 59 37 l 44 37 l 44 97 l 59 97 l 59 37 m 59 -37 l 44 -37 l 44 23 l 59 23 l 59 -37 "},"⒨":{"x_min":12.203125,"x_max":161.421875,"ha":174,"o":"m 37 130 l 45 130 q 21 61 21 100 q 45 -5 21 24 l 37 -5 q 12 61 12 21 q 37 130 12 103 m 136 -5 l 128 -5 q 152 61 152 24 q 128 130 152 100 l 136 130 q 161 61 161 103 q 136 -5 161 21 m 115 25 l 115 61 q 113 70 115 67 q 105 73 110 73 q 94 69 98 73 q 91 55 91 65 l 91 25 l 82 25 l 82 61 q 79 70 82 67 q 71 73 76 73 q 61 68 65 73 q 58 53 58 63 l 58 25 l 48 25 l 48 80 l 56 80 l 57 73 l 58 73 q 73 82 63 82 q 89 72 86 82 l 90 72 q 107 82 95 82 q 120 76 115 82 q 124 61 124 71 l 124 25 l 115 25 "},"：":{"x_min":75.96875,"x_max":97.671875,"ha":174,"o":"m 97 83 q 94 74 97 78 q 86 71 92 71 q 78 74 81 71 q 75 83 75 78 q 78 92 75 89 q 86 95 81 95 q 94 92 92 95 q 97 83 97 89 m 97 9 q 94 0 97 3 q 86 -2 92 -2 q 78 0 81 -2 q 75 9 75 3 q 78 18 75 15 q 86 21 81 21 q 94 18 92 21 q 97 9 97 15 "},"ữ":{"x_min":111,"x_max":950,"ha":900,"o":"m 600 0 l 582 99 l 575 99 q 534 48 558 70 q 483 13 511 27 q 424 -7 455 0 q 360 -14 393 -14 q 252 1 299 -14 q 174 50 205 17 q 126 135 142 83 q 111 258 111 186 l 111 745 l 234 745 l 234 264 q 270 132 234 176 q 381 88 306 88 q 474 106 436 88 q 534 158 511 123 q 566 242 556 192 q 576 357 576 292 l 576 745 l 700 745 l 700 661 q 756 682 735 665 q 787 725 777 699 q 802 786 798 752 q 805 859 805 820 l 939 859 l 950 843 q 922 748 939 795 q 877 665 905 702 q 805 604 848 628 q 700 575 761 579 l 700 0 l 600 0 m 510 843 q 456 854 483 843 q 404 881 430 866 q 354 907 378 895 q 309 919 330 919 q 262 901 278 919 q 236 841 246 883 l 166 841 q 180 915 169 882 q 209 972 191 948 q 252 1008 227 995 q 309 1021 277 1021 q 365 1009 337 1021 q 418 982 392 997 q 467 956 444 968 q 510 944 491 944 q 556 962 541 944 q 582 1022 572 980 l 654 1022 q 639 948 650 981 q 610 892 628 915 q 567 855 592 868 q 510 843 542 843 "},"㎑":{"x_min":2.71875,"x_max":170.234375,"ha":174,"o":"m 61 0 l 45 0 l 23 42 l 17 37 l 17 0 l 2 0 l 2 132 l 17 132 l 17 73 l 16 52 l 16 52 l 43 92 l 59 92 l 32 53 l 61 0 m 121 0 l 105 0 l 105 58 l 80 58 l 80 0 l 65 0 l 65 124 l 80 124 l 80 71 l 105 71 l 105 124 l 121 124 l 121 0 m 170 0 l 126 0 l 126 10 l 153 81 l 128 81 l 128 92 l 168 92 l 168 80 l 141 11 l 170 11 l 170 0 "},"↟":{"x_min":6.109375,"x_max":80.703125,"ha":87,"o":"m 47 104 l 47 101 q 50 98 49 100 l 77 69 q 80 63 80 65 q 78 61 80 61 q 71 63 75 61 l 47 75 l 47 -41 l 39 -41 l 39 75 l 16 63 q 8 61 10 61 q 6 63 6 61 q 9 69 6 65 l 35 98 q 39 101 37 101 l 39 104 l 16 92 q 8 90 10 90 q 6 92 6 90 q 9 98 6 95 l 35 127 q 43 132 39 132 q 50 127 47 132 l 77 98 q 80 92 80 94 q 78 90 80 90 q 71 92 75 90 l 47 104 "},"î":{"x_min":-45,"x_max":405,"ha":359,"o":"m 241 0 l 118 0 l 118 745 l 241 745 l 241 0 m 405 842 l 323 842 q 251 897 288 864 q 180 967 215 930 q 107 897 143 930 q 37 842 71 864 l -45 842 l -45 860 q -4 905 -27 879 q 41 958 18 931 q 84 1013 64 986 q 114 1064 104 1040 l 245 1064 q 275 1013 255 1040 q 318 958 295 986 q 364 905 341 931 q 405 860 388 879 l 405 842 "},"₠":{"x_min":4.75,"x_max":90.203125,"ha":96,"o":"m 46 59 l 46 75 l 90 75 l 90 63 l 59 63 l 59 44 l 88 44 l 88 33 l 59 33 l 59 11 l 90 11 l 90 0 l 46 0 l 46 48 l 39 48 q 13 57 21 48 q 4 86 4 67 q 14 114 4 104 q 40 124 23 124 q 62 120 51 124 l 56 109 q 40 113 48 113 q 24 106 30 113 q 18 86 18 99 q 23 66 18 73 q 40 59 29 59 l 46 59 "},"ツ":{"x_min":16.28125,"x_max":156.671875,"ha":174,"o":"m 99 78 l 84 69 q 59 118 71 96 l 72 126 q 99 78 86 103 m 156 114 q 128 28 148 54 q 55 -12 107 3 q 47 3 54 -8 q 114 39 95 15 q 140 117 132 61 l 156 114 m 56 63 l 42 54 q 16 103 31 77 l 29 111 q 56 63 48 82 "},"↨":{"x_min":6.109375,"x_max":80.703125,"ha":87,"o":"m 47 104 l 47 2 l 71 14 q 78 16 75 16 q 80 14 80 16 q 77 8 80 12 l 50 -20 q 43 -24 47 -24 q 35 -20 39 -24 l 9 8 q 6 14 6 12 q 8 16 6 16 q 16 14 10 16 l 39 2 l 39 104 l 16 92 q 8 90 10 90 q 6 92 6 90 q 9 98 6 95 l 35 127 q 43 132 39 132 q 50 127 47 132 l 77 98 q 80 92 80 94 q 78 90 80 90 q 71 92 75 90 l 47 104 m 6 -41 l 6 -33 l 80 -33 l 80 -41 l 6 -41 "},"Ξ":{"x_min":56,"x_max":682,"ha":737,"o":"m 139 574 l 599 574 l 599 462 l 139 462 l 139 574 m 84 992 l 654 992 l 654 880 l 84 880 l 84 992 m 682 111 l 682 0 l 56 0 l 56 111 l 682 111 "},"Ԃ":{"x_min":93,"x_max":1082,"ha":1207,"o":"m 1082 574 l 1082 243 q 1066 141 1082 188 q 1020 60 1051 94 q 942 6 989 25 q 831 -13 894 -13 q 702 19 754 -13 q 621 104 650 52 q 583 57 604 78 q 534 20 562 36 q 471 -3 506 4 q 393 -12 436 -12 q 170 59 247 -12 q 93 275 93 130 q 115 400 93 344 q 184 493 137 455 q 303 552 230 532 q 478 573 377 573 l 561 573 l 561 992 l 688 992 l 688 243 q 722 131 688 167 q 823 95 757 95 q 877 106 853 95 q 919 135 902 116 q 946 181 936 154 q 955 243 955 209 l 955 574 l 1082 574 m 561 461 l 474 461 q 365 451 412 461 q 287 418 318 441 q 241 359 256 395 q 226 271 226 323 q 269 139 226 184 q 401 95 311 95 q 477 108 447 95 q 527 142 508 120 q 554 189 546 163 q 561 243 561 215 l 561 461 "},"】":{"x_min":32.5625,"x_max":86.8125,"ha":174,"o":"m 86 -12 l 32 -12 l 32 -7 q 66 62 66 23 q 32 132 66 103 l 32 138 l 86 138 l 86 -12 "},"「":{"x_min":86.8125,"x_max":132.9375,"ha":174,"o":"m 132 125 l 102 125 l 102 62 l 86 62 l 86 138 l 132 138 l 132 125 "},"※":{"x_min":8.8125,"x_max":112.578125,"ha":121,"o":"m 112 9 l 108 5 l 61 57 l 12 5 l 8 9 l 56 62 l 8 114 l 12 119 l 61 66 l 108 119 l 112 114 l 65 62 l 112 9 m 61 82 q 54 84 56 82 q 51 91 51 87 q 54 98 51 95 q 61 101 56 101 q 67 98 64 101 q 69 91 69 95 q 67 84 69 87 q 61 82 64 82 m 90 52 q 83 55 86 52 q 80 62 80 58 q 83 68 80 65 q 90 71 86 71 q 96 68 94 71 q 99 62 99 65 q 96 55 99 58 q 90 52 94 52 m 31 52 q 24 55 27 52 q 21 62 21 58 q 24 69 21 66 q 31 71 27 71 q 37 68 35 71 q 40 62 40 65 q 37 55 40 58 q 31 52 35 52 m 61 23 q 54 25 56 23 q 51 32 51 28 q 54 39 51 36 q 61 42 56 42 q 67 39 64 42 q 69 32 69 36 q 67 25 69 28 q 61 23 64 23 "},"ŵ":{"x_min":13.75,"x_max":1022.25,"ha":1036,"o":"m 683 0 l 570 417 q 563 445 567 430 q 555 477 559 460 q 546 512 551 494 q 538 546 542 529 q 518 628 528 586 l 514 628 q 496 546 505 585 q 480 476 488 512 q 464 415 471 440 l 347 0 l 204 0 l 13 745 l 143 745 l 232 348 q 245 282 239 318 q 258 211 252 246 q 269 146 264 177 q 277 95 274 115 l 281 95 q 290 142 284 113 q 303 205 296 172 q 317 270 310 238 q 331 324 325 302 l 453 745 l 586 745 l 702 324 q 716 270 709 301 q 732 207 724 239 q 745 145 739 175 q 754 95 751 115 l 758 95 q 764 142 760 113 q 775 207 769 172 q 788 279 781 242 q 803 348 795 316 l 896 745 l 1022 745 l 829 0 l 683 0 m 743 842 l 661 842 q 589 897 626 864 q 518 967 553 930 q 445 897 481 930 q 375 842 409 864 l 293 842 l 293 860 q 333 905 310 879 q 379 958 356 931 q 422 1013 402 986 q 452 1064 442 1040 l 583 1064 q 613 1013 593 1040 q 656 958 633 986 q 702 905 679 931 q 743 860 726 879 l 743 842 "},"╠":{"x_min":29.84375,"x_max":105.796875,"ha":104,"o":"m 105 74 l 59 74 l 59 172 l 74 172 l 74 89 l 105 89 l 105 74 m 44 -37 l 29 -37 l 29 172 l 44 172 l 44 -37 m 105 45 l 74 45 l 74 -37 l 59 -37 l 59 60 l 105 60 l 105 45 "},"№":{"x_min":135,"x_max":1308,"ha":1372,"o":"m 807 0 l 653 0 l 253 821 l 248 821 q 255 717 252 768 q 259 624 257 673 q 261 538 261 576 l 261 0 l 135 0 l 135 992 l 288 992 l 686 174 l 690 174 q 685 276 688 226 q 683 321 684 298 q 682 366 682 343 q 681 410 681 389 q 680 449 680 431 l 680 992 l 807 992 l 807 0 m 1308 412 q 1294 309 1308 354 q 1254 234 1280 264 q 1190 187 1227 203 q 1107 171 1153 171 q 1028 187 1064 171 q 966 234 992 203 q 924 309 939 264 q 910 412 910 354 q 923 513 910 469 q 963 588 937 558 q 1027 635 990 619 q 1110 651 1064 651 q 1188 635 1152 651 q 1251 588 1225 619 q 1293 513 1278 558 q 1308 412 1308 469 m 1006 412 q 1031 294 1006 334 q 1109 254 1055 254 q 1187 294 1163 254 q 1211 412 1211 334 q 1187 529 1211 491 q 1109 567 1163 567 q 1031 529 1055 567 q 1006 412 1006 491 m 938 0 l 938 83 l 1275 83 l 1275 0 l 938 0 "},"┍":{"x_min":44.765625,"x_max":105.796875,"ha":104,"o":"m 105 52 l 59 52 l 59 -37 l 44 -37 l 44 82 l 105 82 l 105 52 "},"ί":{"x_min":111,"x_max":428,"ha":454,"o":"m 234 743 l 234 220 q 255 121 234 154 q 326 88 277 88 q 353 89 338 88 q 383 93 368 91 q 409 97 397 95 q 428 102 421 100 l 428 8 q 405 0 419 3 q 375 -7 391 -4 q 341 -12 358 -10 q 307 -14 323 -14 q 229 -3 265 -14 q 167 34 193 7 q 125 105 140 60 q 111 219 111 150 l 111 743 l 234 743 m 134 860 q 147 906 140 880 q 160 960 154 932 q 172 1014 167 987 q 181 1064 178 1041 l 316 1064 l 316 1049 q 300 1007 311 1033 q 274 951 289 980 q 241 892 258 921 q 207 842 223 863 l 134 842 l 134 860 "},"ㄜ":{"x_min":17.640625,"x_max":155.984375,"ha":174,"o":"m 155 92 l 99 92 l 99 66 l 86 55 q 56 49 66 55 q 47 31 47 44 q 57 14 47 21 q 85 8 67 8 q 113 15 103 8 q 130 44 123 23 l 144 36 q 86 -7 130 -7 q 46 3 60 -7 q 31 31 31 14 q 82 70 31 67 l 82 92 l 17 92 l 17 107 l 82 107 l 82 134 l 99 134 l 99 107 l 155 107 l 155 92 "},"5":{"x_min":89,"x_max":688,"ha":765,"o":"m 369 608 q 494 589 436 608 q 596 534 552 570 q 663 443 639 497 q 688 317 688 388 q 664 178 688 240 q 596 74 641 116 q 484 8 550 31 q 330 -14 417 -14 q 262 -10 295 -14 q 197 0 228 -7 q 139 15 167 5 q 89 39 111 26 l 89 156 q 141 128 111 140 q 205 108 172 116 q 272 95 238 99 q 334 91 306 91 q 430 103 388 91 q 501 142 472 116 q 546 208 531 169 q 562 303 562 248 q 502 451 562 400 q 328 502 442 502 q 288 501 310 502 q 245 496 267 499 q 204 491 224 494 q 171 485 185 487 l 110 523 l 147 992 l 615 992 l 615 879 l 254 879 l 228 594 q 285 603 249 598 q 369 608 320 608 "},"▓":{"x_min":0,"x_max":104.453125,"ha":104,"o":"m 104 181 l 104 -45 l 52 -45 l 52 -27 l 35 -27 l 35 -45 l 0 -45 l 0 -28 l 16 -28 l 16 -10 l 0 -10 l 0 6 l 16 6 l 16 24 l 0 24 l 0 41 l 16 41 l 16 59 l 0 59 l 0 75 l 16 75 l 16 94 l 0 94 l 0 111 l 16 111 l 16 128 l 0 128 l 0 145 l 16 145 l 16 163 l 0 163 l 0 181 l 35 181 l 35 163 l 52 163 l 52 181 l 104 181 m 86 145 l 86 163 l 69 163 l 69 145 l 86 145 m 52 128 l 52 146 l 35 146 l 35 128 l 52 128 m 86 111 l 86 128 l 69 128 l 69 111 l 86 111 m 52 94 l 52 111 l 35 111 l 35 94 l 52 94 m 86 75 l 86 94 l 69 94 l 69 75 l 86 75 m 52 59 l 52 76 l 35 76 l 35 59 l 52 59 m 86 41 l 86 59 l 69 59 l 69 41 l 86 41 m 52 24 l 52 42 l 35 42 l 35 24 l 52 24 m 86 6 l 86 24 l 69 24 l 69 6 l 86 6 m 52 -10 l 52 6 l 35 6 l 35 -10 l 52 -10 m 86 -28 l 86 -10 l 69 -10 l 69 -28 l 86 -28 "},"□":{"x_min":14.921875,"x_max":89.53125,"ha":104,"o":"m 89 102 l 89 27 l 14 27 l 14 102 l 89 102 m 82 96 l 21 96 l 21 33 l 82 33 l 82 96 "},"ㆇ":{"x_min":12.203125,"x_max":160.734375,"ha":174,"o":"m 116 135 l 130 135 l 130 87 l 160 87 l 160 74 l 130 74 l 130 47 l 160 47 l 160 34 l 130 34 l 130 -10 l 116 -10 l 116 33 l 14 25 l 12 38 l 39 40 l 39 105 l 52 105 l 52 41 l 77 44 l 77 105 l 90 105 l 90 44 l 116 46 l 116 135 "},"╇":{"x_min":-2.03125,"x_max":105.796875,"ha":104,"o":"m 105 52 l 59 52 l 59 -37 l 44 -37 l 44 52 l -2 52 l -2 82 l 37 82 l 37 172 l 67 172 l 67 82 l 105 82 l 105 52 "},"ㄋ":{"x_min":27.125,"x_max":146.5,"ha":174,"o":"m 146 87 q 133 10 143 26 q 103 -4 123 -4 q 73 1 94 -4 l 73 18 q 100 10 91 10 q 119 19 111 10 q 129 72 126 27 l 85 72 l 79 82 l 96 115 l 27 115 l 27 130 l 106 130 l 113 118 l 98 87 l 146 87 "},"Ӳ":{"x_min":16.75,"x_max":813.25,"ha":813,"o":"m 813 992 l 522 289 q 468 172 496 227 q 402 75 440 116 q 311 10 364 34 q 183 -14 258 -14 q 117 -8 148 -14 q 62 6 87 -3 l 62 131 q 117 106 87 116 q 183 97 147 97 q 246 105 219 97 q 297 130 274 112 q 338 178 319 149 q 376 250 357 207 l 16 992 l 155 992 l 415 440 q 422 425 418 433 q 428 408 425 417 q 434 391 431 399 q 440 377 437 383 l 441 377 q 447 394 443 383 q 455 416 451 404 q 462 437 458 427 q 468 451 466 447 l 679 992 l 813 992 m 221 1089 q 251 1134 235 1108 q 283 1187 267 1160 q 313 1242 299 1215 q 339 1293 328 1269 l 474 1293 l 474 1278 q 441 1233 463 1260 q 394 1175 420 1205 q 340 1118 368 1146 q 289 1071 313 1089 l 221 1071 l 221 1089 m 467 1089 q 497 1134 481 1108 q 529 1187 513 1160 q 559 1242 545 1215 q 584 1293 574 1269 l 719 1293 l 719 1278 q 686 1233 708 1260 q 639 1175 665 1205 q 585 1118 613 1146 q 534 1071 558 1089 l 467 1071 l 467 1089 "},"▇":{"x_min":-2.03125,"x_max":105.796875,"ha":104,"o":"m -2 -37 l -2 146 l 105 146 l 105 -37 l -2 -37 "},"Ú":{"x_min":125,"x_max":845,"ha":970,"o":"m 845 993 l 845 349 q 822 205 845 272 q 755 90 800 139 q 641 13 709 41 q 481 -14 573 -14 q 327 12 394 -14 q 216 86 261 38 q 148 202 171 134 q 125 352 125 269 l 125 991 l 251 991 l 251 346 q 309 162 251 227 q 487 97 368 97 q 591 115 548 97 q 663 167 635 133 q 704 246 690 200 q 718 347 718 292 l 718 993 l 845 993 m 401 1089 q 431 1134 415 1108 q 463 1187 447 1160 q 494 1242 479 1215 q 519 1293 508 1269 l 668 1293 l 668 1278 q 635 1233 657 1260 q 588 1175 614 1205 q 534 1118 562 1146 q 483 1071 506 1089 l 401 1071 l 401 1089 "},"㎩":{"x_min":18.3125,"x_max":155.3125,"ha":174,"o":"m 33 48 l 33 0 l 18 0 l 18 124 l 47 124 q 78 114 68 124 q 88 88 88 105 q 77 58 88 69 q 45 48 66 48 l 33 48 m 33 110 l 33 61 l 42 61 q 65 68 57 61 q 72 86 72 74 q 65 104 72 99 q 45 110 59 110 l 33 110 m 155 0 l 144 0 l 141 12 l 140 12 q 114 -1 130 -1 q 96 6 103 -1 q 90 26 90 13 q 99 47 90 39 q 126 55 108 54 l 139 56 l 139 62 q 135 76 139 71 q 123 82 131 82 q 101 75 113 82 l 96 86 q 123 94 109 94 q 147 87 139 94 q 155 63 155 79 l 155 0 m 139 37 l 139 45 q 112 40 119 44 q 106 25 106 35 q 109 14 106 18 q 119 10 112 10 q 134 17 128 10 q 139 37 139 24 "},"Ý":{"x_min":-0.25,"x_max":731.25,"ha":732,"o":"m 364 490 l 595 992 l 731 992 l 428 386 l 428 0 l 302 0 l 302 379 l 0 992 l 137 992 l 364 490 m 299 1089 q 329 1134 313 1108 q 361 1187 345 1160 q 392 1242 377 1215 q 417 1293 406 1269 l 566 1293 l 566 1278 q 533 1233 555 1260 q 486 1175 512 1205 q 432 1118 460 1146 q 381 1071 404 1089 l 299 1071 l 299 1089 "},"╪":{"x_min":-2.03125,"x_max":105.796875,"ha":104,"o":"m 105 45 l 59 45 l 59 -37 l 44 -37 l 44 45 l -2 45 l -2 60 l 44 60 l 44 74 l -2 74 l -2 89 l 44 89 l 44 172 l 59 172 l 59 89 l 105 89 l 105 74 l 59 74 l 59 60 l 105 60 l 105 45 "},"◥":{"x_min":14.921875,"x_max":89.53125,"ha":104,"o":"m 89 102 l 89 27 l 14 102 l 89 102 "},"㏈":{"x_min":8.140625,"x_max":165.484375,"ha":174,"o":"m 81 0 l 69 0 l 67 12 l 66 12 q 42 -1 58 -1 q 17 10 27 -1 q 8 46 8 23 q 17 82 8 70 q 42 94 27 94 q 66 81 57 94 l 67 81 l 66 94 l 66 132 l 81 132 l 81 0 m 66 43 l 66 46 q 61 73 66 64 q 44 82 55 82 q 29 73 34 82 q 23 46 23 64 q 29 20 23 29 q 44 11 34 11 q 61 19 55 11 q 66 43 66 27 m 92 0 l 92 124 l 123 124 q 152 116 142 124 q 162 92 162 108 q 139 65 162 69 l 139 65 q 165 35 165 60 q 155 9 165 18 q 128 0 146 0 l 92 0 m 107 110 l 107 71 l 123 71 q 140 76 134 71 q 145 91 145 81 q 139 105 145 101 q 122 110 133 110 l 107 110 m 107 58 l 107 13 l 124 13 q 142 19 137 13 q 148 36 148 25 q 142 52 148 47 q 124 58 136 58 l 107 58 "},"〣":{"x_min":35.265625,"x_max":141.078125,"ha":174,"o":"m 127 138 l 141 138 l 141 -15 l 127 -15 l 127 138 m 35 124 l 48 124 l 48 4 l 35 4 l 35 124 m 80 113 l 94 113 l 94 14 l 80 14 l 80 113 "},"Ҵ":{"x_min":14,"x_max":1107,"ha":1135,"o":"m 423 111 l 861 111 l 861 992 l 988 992 l 988 111 l 1107 111 l 1107 -261 l 980 -261 l 980 0 l 297 0 l 297 880 l 14 880 l 14 992 l 706 992 l 706 880 l 423 880 l 423 111 "},"ŀ":{"x_min":118,"x_max":457.46875,"ha":416,"o":"m 241 0 l 118 0 l 118 1055 l 241 1055 l 241 0 m 313 462 q 333 521 313 503 q 384 540 354 540 q 413 535 399 540 q 436 521 426 531 q 451 497 445 512 q 457 462 457 483 q 436 404 457 423 q 384 385 414 385 q 333 403 354 385 q 313 462 313 422 "},"ㅞ":{"x_min":15.59375,"x_max":145.8125,"ha":174,"o":"m 132 135 l 145 135 l 145 -10 l 132 -10 l 132 135 m 101 132 l 115 132 l 115 -1 l 101 -1 l 101 54 l 73 54 l 73 67 l 101 67 l 101 132 m 49 81 l 17 79 l 15 91 l 91 97 l 91 84 l 63 82 l 63 14 l 49 14 l 49 81 "},"ẅ":{"x_min":13.75,"x_max":1022.25,"ha":1036,"o":"m 683 0 l 570 417 q 563 445 567 430 q 555 477 559 460 q 546 512 551 494 q 538 546 542 529 q 518 628 528 586 l 514 628 q 496 546 505 585 q 480 476 488 512 q 464 415 471 440 l 347 0 l 204 0 l 13 745 l 143 745 l 232 348 q 245 282 239 318 q 258 211 252 246 q 269 146 264 177 q 277 95 274 115 l 281 95 q 290 142 284 113 q 303 205 296 172 q 317 270 310 238 q 331 324 325 302 l 453 745 l 586 745 l 702 324 q 716 270 709 301 q 732 207 724 239 q 745 145 739 175 q 754 95 751 115 l 758 95 q 764 142 760 113 q 775 207 769 172 q 788 279 781 242 q 803 348 795 316 l 896 745 l 1022 745 l 829 0 l 683 0 m 325 945 q 343 998 325 982 q 390 1015 362 1015 q 436 998 416 1015 q 455 945 455 981 q 436 892 455 909 q 390 876 416 876 q 343 892 362 876 q 325 945 325 909 m 579 945 q 598 998 579 982 q 644 1015 617 1015 q 669 1010 657 1015 q 690 998 681 1006 q 704 977 699 989 q 710 945 710 964 q 690 892 710 909 q 644 876 670 876 q 598 892 617 876 q 579 945 579 909 "},"К":{"x_min":135,"x_max":804.25,"ha":804,"o":"m 804 0 l 655 0 l 261 502 l 261 0 l 135 0 l 135 992 l 261 992 l 261 511 l 644 992 l 784 992 l 401 515 l 804 0 "},"ば":{"x_min":23.0625,"x_max":172.265625,"ha":174,"o":"m 172 128 l 163 121 q 145 141 155 133 l 152 148 q 172 128 164 140 m 160 116 l 152 109 q 133 129 144 121 l 141 136 q 160 116 152 127 m 166 11 l 158 -2 q 130 14 145 7 q 121 -2 128 2 q 94 -8 113 -8 q 68 0 78 -8 q 59 17 59 6 q 67 34 59 27 q 90 40 75 40 q 116 37 103 40 q 115 89 116 50 l 105 89 q 61 88 90 89 l 60 104 l 80 103 q 114 105 95 103 l 113 134 l 129 134 l 130 105 q 158 107 145 106 q 158 92 158 99 q 130 90 145 90 l 132 31 q 166 11 151 23 m 116 21 q 90 26 101 26 q 78 24 82 26 q 74 17 74 21 q 79 10 74 13 q 94 7 84 7 q 111 10 107 7 q 116 21 115 13 m 42 132 q 38 38 38 100 q 39 -7 38 23 l 24 -8 q 23 40 23 24 q 27 133 23 92 q 42 132 37 132 "},"↖":{"x_min":39.34375,"x_max":134.28125,"ha":174,"o":"m 63 73 l 134 2 l 128 -3 l 57 67 l 49 42 q 44 35 47 35 q 41 39 42 35 q 39 81 39 55 q 41 89 39 86 q 49 92 44 92 q 91 89 73 92 q 96 86 96 88 q 88 81 96 84 l 63 73 "},"⅞":{"x_min":77,"x_max":1011,"ha":1051,"o":"m 141 397 l 363 908 l 77 908 l 77 992 l 460 992 l 460 924 l 243 397 l 141 397 m 804 992 l 253 0 l 146 0 l 697 992 l 804 992 m 815 604 q 883 594 851 604 q 938 567 914 585 q 976 519 962 548 q 991 453 991 491 q 983 407 991 428 q 962 369 976 386 q 931 338 949 352 q 893 313 914 325 q 938 285 917 300 q 975 251 959 270 q 1001 209 991 233 q 1011 157 1011 186 q 996 87 1011 119 q 956 33 982 56 q 894 0 930 11 q 816 -13 858 -13 q 670 31 721 -13 q 620 153 620 75 q 628 205 620 182 q 651 247 636 228 q 684 281 665 266 q 724 307 703 295 q 690 335 705 321 q 662 368 674 350 q 644 407 650 386 q 638 453 638 428 q 652 519 638 491 q 691 566 667 547 q 748 594 716 585 q 815 604 780 604 m 716 155 q 741 93 716 116 q 814 70 766 70 q 888 93 863 70 q 914 155 914 116 q 906 190 914 174 q 885 219 899 206 q 854 242 872 232 q 813 262 835 253 l 802 266 q 738 219 760 244 q 716 155 716 193 m 813 520 q 755 502 776 520 q 734 449 734 484 q 741 417 734 431 q 757 392 747 404 q 783 371 768 380 q 815 353 798 361 q 846 370 831 360 q 871 390 860 379 q 887 416 881 402 q 894 449 894 430 q 872 502 894 484 q 813 520 850 520 "},"₣":{"x_min":65,"x_max":694,"ha":765,"o":"m 310 271 l 503 271 l 503 163 l 310 163 l 310 0 l 184 0 l 184 163 l 65 163 l 65 271 l 184 271 l 184 992 l 694 992 l 694 880 l 310 880 l 310 531 l 668 531 l 668 419 l 310 419 l 310 271 "},"♯":{"x_min":50.1875,"x_max":123.4375,"ha":174,"o":"m 68 23 l 50 14 l 50 31 l 68 40 l 68 68 l 50 59 l 50 75 l 68 84 l 68 108 l 74 108 l 74 87 l 99 99 l 99 124 l 105 124 l 105 102 l 123 111 l 123 95 l 105 86 l 105 58 l 123 67 l 123 50 l 105 42 l 105 12 l 99 12 l 99 38 l 74 26 l 74 0 l 68 0 l 68 23 m 74 43 l 99 54 l 99 83 l 74 71 l 74 43 "},"ケ":{"x_min":14.25,"x_max":159.375,"ha":174,"o":"m 159 88 l 115 88 l 114 72 q 98 22 113 41 q 48 -10 83 2 l 40 4 q 83 31 71 15 q 96 72 96 46 l 97 88 l 53 87 q 25 51 42 67 l 14 63 q 55 137 42 92 l 71 131 q 61 103 67 117 l 159 104 l 159 88 "},"ゾ":{"x_min":22.375,"x_max":172.265625,"ha":174,"o":"m 172 127 l 163 119 q 141 141 153 132 l 149 149 q 172 127 163 139 m 156 118 l 148 109 q 126 131 139 122 l 134 139 q 156 118 147 130 m 65 65 l 48 57 q 22 113 33 96 l 35 122 q 65 65 54 92 m 146 109 q 114 27 139 55 q 41 -10 89 0 q 32 4 39 -4 q 102 36 81 13 q 129 115 122 60 l 146 109 "},"〕":{"x_min":44.765625,"x_max":86.8125,"ha":174,"o":"m 86 5 l 50 -13 l 44 -2 l 71 11 l 71 113 l 44 126 l 50 138 l 86 119 l 86 5 "},"㏛":{"x_min":25.09375,"x_max":148.53125,"ha":174,"o":"m 148 94 l 146 80 q 137 80 140 80 q 119 72 126 80 q 112 50 112 64 l 112 0 l 96 0 l 96 92 l 109 92 l 111 75 q 137 94 123 94 q 148 94 143 94 m 25 4 l 25 18 q 50 10 37 10 q 62 14 58 10 q 67 24 67 17 q 63 34 67 31 q 47 43 60 37 q 30 55 34 50 q 26 69 26 61 q 34 87 26 80 q 55 94 42 94 q 80 88 68 94 l 75 75 q 54 82 63 82 q 45 79 48 82 q 41 71 41 75 q 44 62 41 65 q 60 52 47 59 q 77 40 73 46 q 82 25 82 34 q 73 5 82 12 q 50 -1 65 -1 q 25 4 34 -1 "},"Њ":{"x_min":135,"x_max":1224,"ha":1295,"o":"m 1224 290 q 1203 170 1224 224 q 1140 79 1183 117 q 1031 20 1097 41 q 874 0 965 0 l 656 0 l 656 462 l 261 462 l 261 0 l 135 0 l 135 992 l 261 992 l 261 574 l 656 574 l 656 992 l 782 992 l 782 574 l 856 574 q 1030 551 959 574 q 1143 490 1100 529 q 1205 400 1186 452 q 1224 290 1224 349 m 782 107 l 862 107 q 1035 152 979 107 q 1090 290 1090 197 q 1074 370 1090 337 q 1028 424 1059 403 q 951 453 997 444 q 841 462 904 462 l 782 462 l 782 107 "},"ﾙ":{"x_min":1.359375,"x_max":85.453125,"ha":87,"o":"m 85 51 q 61 2 74 18 l 52 -8 q 49 -10 50 -10 q 38 0 48 -10 l 40 4 l 40 129 l 56 129 l 56 52 l 55 21 l 56 21 q 73 62 63 33 q 85 51 80 55 m 31 72 q 26 17 31 35 q 13 -11 22 0 l 1 0 q 14 65 14 17 l 14 105 q 14 126 14 115 l 31 126 l 31 72 "},"㎣":{"x_min":6.109375,"x_max":169.5625,"ha":174,"o":"m 134 105 l 134 114 q 149 109 142 109 q 157 112 154 109 q 160 118 160 114 q 157 124 160 122 q 148 126 153 126 l 142 126 l 142 134 l 148 134 q 155 136 153 134 q 158 141 158 138 q 151 149 158 149 q 139 144 145 149 l 134 149 q 151 156 142 156 q 163 152 158 156 q 167 143 167 148 q 160 130 167 134 q 169 118 169 127 q 164 106 169 110 q 149 102 159 102 q 134 105 141 102 m 167 0 l 151 0 l 151 60 q 150 78 151 74 q 145 82 148 82 q 138 76 140 82 q 136 60 136 71 l 136 0 l 121 0 l 121 60 q 119 78 121 74 q 113 82 117 82 q 107 76 109 82 q 105 60 105 71 l 105 0 l 90 0 l 90 92 l 103 92 l 104 82 l 105 82 q 118 94 109 94 q 131 79 128 94 l 132 79 q 149 94 137 94 q 162 86 158 94 q 167 61 167 78 l 167 0 m 83 0 l 67 0 l 67 60 q 66 78 67 74 q 60 82 64 82 q 54 76 56 82 q 52 60 52 71 l 52 0 l 37 0 l 37 60 q 35 78 37 74 q 29 82 33 82 q 23 76 25 82 q 21 60 21 71 l 21 0 l 6 0 l 6 92 l 18 92 l 20 82 l 21 82 q 33 94 25 94 q 47 79 44 94 l 48 79 q 65 94 53 94 q 78 86 73 94 q 83 61 83 78 l 83 0 "},"ヴ":{"x_min":25.765625,"x_max":172.953125,"ha":174,"o":"m 172 128 l 164 120 q 144 140 154 133 l 151 148 q 172 128 164 141 m 155 120 l 147 112 q 127 132 138 126 l 135 141 q 155 120 147 133 m 147 100 q 129 22 147 46 q 62 -12 111 0 l 53 4 q 112 29 96 11 q 129 84 128 46 l 130 94 l 42 94 l 42 51 l 25 51 l 25 111 l 76 111 l 76 136 l 93 136 l 93 111 l 147 111 l 147 100 "},"<":{"x_min":69,"x_max":696,"ha":765,"o":"m 696 161 l 69 448 l 69 517 l 696 844 l 696 735 l 197 488 l 696 270 l 696 161 "},"ӽ":{"x_min":24,"x_max":706.796875,"ha":726,"o":"m 276 382 l 38 745 l 178 745 l 347 466 l 517 745 l 658 745 l 416 382 l 670 0 l 529 0 l 347 295 l 164 0 l 24 0 l 276 382 m 706 104 l 706 -87 q 697 -166 706 -132 q 669 -224 688 -201 q 619 -260 649 -248 q 546 -273 589 -273 q 499 -267 520 -273 q 463 -255 477 -261 l 463 -153 q 492 -163 472 -158 q 535 -167 512 -167 q 584 -151 567 -167 q 601 -101 601 -134 l 601 104 l 706 104 "},"t":{"x_min":23,"x_max":445,"ha":471,"o":"m 343 88 q 371 89 355 88 q 400 93 386 91 q 426 97 415 95 q 445 102 438 100 l 445 8 q 422 0 436 3 q 392 -7 409 -4 q 358 -12 376 -10 q 324 -14 341 -14 q 246 -3 282 -14 q 184 34 210 7 q 142 106 157 61 q 128 221 128 152 l 128 656 l 23 656 l 23 709 l 128 759 l 180 915 l 251 915 l 251 745 l 439 745 l 439 656 l 251 656 l 251 221 q 272 121 251 155 q 343 88 294 88 "},"ｰ":{"x_min":8.8125,"x_max":78,"ha":87,"o":"m 78 54 l 8 54 l 8 71 l 78 71 l 78 54 "},"＾":{"x_min":44.078125,"x_max":129.546875,"ha":174,"o":"m 44 46 l 80 124 l 88 124 l 129 46 l 115 46 l 84 109 l 57 46 l 44 46 "},"⑮":{"x_min":18.3125,"x_max":155.3125,"ha":174,"o":"m 155 62 q 134 14 155 34 q 86 -5 114 -5 q 38 14 59 -5 q 18 62 18 34 q 38 110 18 90 q 86 130 58 130 q 135 110 115 130 q 155 62 155 90 m 148 62 q 130 105 148 87 q 86 124 111 124 q 43 105 61 124 q 25 62 25 87 q 43 19 25 37 q 86 1 61 1 q 130 19 111 1 q 148 62 148 37 m 67 25 l 58 25 l 58 71 q 59 89 58 78 q 52 84 57 88 l 44 78 l 40 84 l 59 99 l 67 99 l 67 25 m 79 27 l 79 36 q 97 31 86 31 q 110 35 106 31 q 115 47 115 39 q 110 58 115 54 q 97 62 106 62 q 88 61 93 62 l 86 61 l 81 64 l 84 99 l 119 99 l 119 90 l 92 90 l 90 69 q 101 70 96 70 q 118 64 111 70 q 124 48 124 58 q 118 29 124 35 q 97 23 111 23 q 79 27 86 23 "},"ù":{"x_min":111,"x_max":700,"ha":818,"o":"m 600 0 l 582 99 l 575 99 q 534 48 558 70 q 483 13 511 27 q 424 -7 455 0 q 360 -14 393 -14 q 252 1 299 -14 q 174 50 205 17 q 126 135 142 83 q 111 258 111 186 l 111 745 l 234 745 l 234 264 q 270 132 234 176 q 381 88 306 88 q 474 106 436 88 q 534 158 511 123 q 566 242 556 192 q 576 357 576 292 l 576 745 l 700 745 l 700 0 l 600 0 m 471 842 l 389 842 q 337 889 365 860 q 283 946 309 917 q 236 1004 257 976 q 204 1049 214 1031 l 204 1064 l 352 1064 q 378 1013 363 1040 q 408 958 392 986 q 440 905 424 931 q 471 860 456 879 l 471 842 "},"﹃":{"x_min":86.8125,"x_max":162.78125,"ha":174,"o":"m 162 4 l 127 4 l 127 28 l 86 28 l 86 62 l 162 62 l 162 4 m 151 16 l 151 51 l 97 51 l 97 39 l 139 39 l 139 16 l 151 16 "},"エ":{"x_min":13.5625,"x_max":160.0625,"ha":174,"o":"m 160 2 l 13 2 l 13 18 l 78 18 l 78 99 l 25 99 l 25 115 l 148 115 l 148 99 l 94 99 l 94 18 l 160 18 l 160 2 "},"ㅘ":{"x_min":12.203125,"x_max":158.703125,"ha":174,"o":"m 110 135 l 124 135 l 124 69 l 158 69 l 158 56 l 124 56 l 124 -10 l 110 -10 l 110 31 l 14 24 l 12 37 l 52 40 l 52 107 l 65 107 l 65 41 l 110 44 l 110 135 "},"Ҩ":{"x_min":85,"x_max":969.453125,"ha":1028,"o":"m 943 457 q 929 328 943 388 q 894 220 916 269 q 843 133 872 171 q 784 71 814 95 q 875 54 820 54 q 924 58 900 54 q 969 71 948 63 l 969 -40 q 922 -53 949 -49 q 870 -57 896 -57 q 663 9 757 -57 q 587 -8 629 -2 q 505 -14 545 -14 q 324 21 403 -14 q 193 123 246 57 q 112 279 139 188 q 85 483 85 371 q 111 703 85 606 q 190 868 137 800 q 326 971 244 935 q 520 1007 408 1007 q 606 999 565 1007 q 672 981 646 992 l 636 876 q 615 882 629 879 q 585 889 602 886 q 552 894 569 892 q 520 895 535 895 q 383 868 440 895 q 289 788 326 840 q 235 661 253 736 q 218 490 218 585 q 238 316 218 390 q 297 193 259 242 q 389 120 335 144 q 511 97 443 97 q 569 101 543 97 q 484 267 515 173 q 454 466 454 361 q 472 621 454 556 q 523 728 491 686 q 600 790 556 770 q 696 810 645 810 q 792 790 747 810 q 871 730 837 771 q 923 620 904 688 q 943 457 943 553 m 809 449 q 801 552 809 506 q 780 632 794 598 q 745 683 766 665 q 698 702 724 702 q 650 683 670 702 q 615 631 629 665 q 594 553 601 598 q 587 453 587 507 q 595 359 587 404 q 617 275 603 315 q 649 201 631 235 q 688 140 667 167 q 739 196 717 163 q 777 269 761 229 q 801 355 793 309 q 809 449 809 401 "},"˝":{"x_min":151,"x_max":649,"ha":802,"o":"m 151 860 q 181 905 165 879 q 213 958 197 931 q 243 1013 229 986 q 269 1064 258 1040 l 404 1064 l 404 1049 q 371 1004 393 1031 q 324 946 350 976 q 270 889 298 917 q 219 842 243 860 l 151 842 l 151 860 m 397 860 q 427 905 411 879 q 459 958 443 931 q 489 1013 475 986 q 514 1064 504 1040 l 649 1064 l 649 1049 q 616 1004 638 1031 q 569 946 595 976 q 515 889 543 917 q 464 842 488 860 l 397 842 l 397 860 "},"⑩":{"x_min":18.3125,"x_max":155.3125,"ha":174,"o":"m 155 62 q 134 14 155 34 q 86 -5 114 -5 q 38 14 59 -5 q 18 62 18 34 q 38 110 18 90 q 86 130 58 130 q 135 110 115 130 q 155 62 155 90 m 148 62 q 130 105 148 87 q 86 124 111 124 q 43 105 61 124 q 25 62 25 87 q 43 19 25 37 q 86 1 61 1 q 130 19 111 1 q 148 62 148 37 m 80 62 q 85 90 80 81 q 103 100 91 100 q 121 90 115 100 q 127 62 127 81 q 121 33 127 42 q 103 23 115 23 q 85 33 91 23 q 80 62 80 42 m 118 62 q 114 85 118 77 q 103 92 111 92 q 92 85 96 92 q 89 62 89 77 q 92 39 89 46 q 103 31 96 31 q 114 39 111 31 q 118 62 118 46 m 67 25 l 58 25 l 58 71 q 59 89 58 78 q 52 84 57 88 l 44 78 l 40 84 l 59 99 l 67 99 l 67 25 "},"ҡ":{"x_min":28,"x_max":831.25,"ha":836,"o":"m 671 745 l 804 745 l 522 387 l 831 0 l 690 0 l 395 377 l 395 0 l 272 0 l 272 642 l 28 642 l 28 745 l 396 745 l 395 743 l 395 383 l 671 745 "},"¿":{"x_min":46,"x_max":567,"ha":591,"o":"m 401 458 l 401 432 q 395 362 401 393 q 376 304 390 331 q 341 251 363 276 q 285 196 319 225 q 229 146 252 169 q 191 100 206 123 q 169 50 176 76 q 162 -12 162 23 q 172 -72 162 -45 q 202 -118 183 -99 q 250 -148 221 -138 q 317 -159 279 -159 q 425 -141 374 -159 q 523 -100 476 -124 l 567 -199 q 447 -247 511 -227 q 318 -267 383 -267 q 204 -249 254 -267 q 118 -199 153 -232 q 64 -120 83 -167 q 46 -14 46 -73 q 54 67 46 32 q 79 133 62 102 q 120 192 95 163 q 179 252 145 220 q 231 305 211 283 q 263 349 252 328 q 280 393 275 370 q 284 445 284 415 l 284 458 l 401 458 m 433 663 q 426 619 433 637 q 408 590 420 601 q 380 574 396 579 q 346 569 365 569 q 313 574 329 569 q 286 590 298 579 q 267 619 274 601 q 260 663 260 637 q 267 706 260 688 q 286 735 274 724 q 313 752 298 747 q 346 758 329 758 q 380 752 365 758 q 408 735 396 747 q 426 706 420 724 q 433 663 433 688 "},"Ứ":{"x_min":125,"x_max":1095,"ha":1034,"o":"m 845 992 l 845 859 q 906 880 883 863 q 942 923 930 897 q 957 984 953 950 q 961 1056 961 1017 l 1085 1056 l 1095 1041 q 1067 948 1084 992 q 1022 869 1050 904 q 950 808 993 833 q 845 773 906 783 l 845 349 q 822 206 845 272 q 755 90 800 139 q 641 13 709 41 q 481 -14 573 -14 q 327 12 394 -14 q 216 86 261 38 q 148 202 171 134 q 125 352 125 269 l 125 992 l 251 992 l 251 346 q 309 162 251 226 q 487 97 368 97 q 591 115 548 97 q 663 167 635 133 q 704 246 690 200 q 718 347 718 292 l 718 992 l 845 992 m 401 1089 q 431 1134 415 1108 q 463 1187 447 1160 q 494 1242 479 1215 q 519 1293 508 1269 l 668 1293 l 668 1278 q 635 1233 657 1260 q 588 1175 614 1205 q 534 1118 562 1146 q 483 1071 506 1089 l 401 1071 l 401 1089 "},"φ":{"x_min":77,"x_max":893,"ha":970,"o":"m 417 -334 l 417 -12 q 280 14 343 -8 q 173 83 218 36 q 102 201 127 129 q 77 376 77 274 q 87 484 77 432 q 117 582 98 535 q 163 671 136 629 q 220 751 189 713 l 315 686 q 269 616 290 651 q 232 542 247 581 q 208 462 217 504 q 200 371 200 419 q 217 244 200 296 q 264 160 235 193 q 334 111 294 127 q 417 90 373 95 l 417 500 q 472 692 417 627 q 626 758 528 758 q 737 730 687 758 q 821 654 786 703 q 874 538 855 606 q 893 387 893 469 q 864 212 893 286 q 786 90 835 139 q 674 16 738 41 q 540 -12 610 -8 l 540 -334 l 417 -334 m 765 386 q 755 502 765 452 q 727 586 745 552 q 684 638 709 621 q 631 655 660 655 q 596 647 613 655 q 567 622 580 640 q 547 574 555 604 q 540 501 540 545 l 540 90 q 630 115 588 95 q 701 171 671 135 q 748 261 731 207 q 765 386 765 314 "},"㏑":{"x_min":29.15625,"x_max":144.46875,"ha":174,"o":"m 44 0 l 29 0 l 29 132 l 44 132 l 44 0 m 144 0 l 128 0 l 128 60 q 124 76 128 71 q 110 82 120 82 q 92 74 98 82 q 86 48 86 67 l 86 0 l 71 0 l 71 92 l 83 92 l 85 80 l 86 80 q 113 94 94 94 q 136 86 128 94 q 144 61 144 78 l 144 0 "},"n":{"x_min":118,"x_max":707,"ha":818,"o":"m 583 0 l 583 479 q 547 611 583 567 q 436 655 512 655 q 343 637 381 655 q 283 585 306 620 q 251 501 261 551 q 241 385 241 450 l 241 0 l 118 0 l 118 745 l 218 745 l 236 644 l 242 644 q 283 694 259 673 q 334 730 306 715 q 393 751 362 744 q 457 758 424 758 q 644 693 581 758 q 707 486 707 628 l 707 0 l 583 0 "},"ϊ":{"x_min":14,"x_max":428,"ha":454,"o":"m 234 743 l 234 220 q 255 121 234 154 q 326 88 277 88 q 353 89 338 88 q 383 93 368 91 q 409 97 397 95 q 428 102 421 100 l 428 8 q 405 0 419 3 q 375 -7 391 -4 q 341 -12 358 -10 q 307 -14 323 -14 q 229 -3 265 -14 q 167 34 193 7 q 125 105 140 60 q 111 219 111 150 l 111 743 l 234 743 m 14 945 q 32 998 14 982 q 79 1015 51 1015 q 125 998 105 1015 q 144 945 144 981 q 125 892 144 909 q 79 876 105 876 q 32 892 51 876 q 14 945 14 909 m 268 945 q 287 998 268 982 q 333 1015 306 1015 q 358 1010 346 1015 q 379 998 370 1006 q 393 977 388 989 q 399 945 399 964 q 379 892 399 909 q 333 876 359 876 q 287 892 306 876 q 268 945 268 909 "},"ぽ":{"x_min":21.703125,"x_max":170.90625,"ha":174,"o":"m 142 114 l 142 109 l 130 108 l 131 84 l 158 86 l 158 71 q 131 69 145 69 l 132 24 q 162 4 148 16 l 153 -7 q 130 8 138 3 q 93 -9 122 -9 q 66 -2 75 -9 q 57 14 57 4 q 65 30 57 24 q 87 37 73 37 q 117 31 101 37 l 116 69 q 60 68 88 68 l 59 83 q 115 84 86 83 l 115 108 q 84 107 96 107 l 60 107 l 60 122 l 82 122 q 136 124 115 122 q 135 128 135 126 q 140 141 135 136 q 153 147 145 147 q 165 142 160 147 q 170 128 170 137 q 165 116 170 121 q 153 111 160 111 q 142 114 147 111 m 145 128 q 147 123 145 126 q 153 120 149 120 q 159 123 156 120 q 162 128 162 125 q 159 135 162 132 q 153 137 156 137 q 147 134 149 137 q 145 128 145 132 m 115 16 q 87 23 101 23 q 76 21 80 23 q 73 14 73 18 q 78 8 73 10 q 91 5 82 5 q 115 16 111 5 m 42 131 q 37 50 37 101 q 37 -10 37 21 l 22 -10 l 21 46 q 27 132 21 94 l 42 131 "},"ģ":{"x_min":25,"x_max":692.484375,"ha":720,"o":"m 692 745 l 692 668 l 559 649 q 591 588 578 625 q 604 504 604 551 q 588 409 604 453 q 539 333 572 365 q 459 283 507 301 q 348 266 412 266 q 319 266 333 266 q 294 268 304 266 q 271 253 282 261 q 251 233 260 244 q 236 208 242 222 q 230 178 230 194 q 238 148 230 159 q 260 130 246 136 q 293 122 274 124 q 333 120 312 120 l 453 120 q 560 104 516 120 q 631 61 603 88 q 670 -2 658 34 q 683 -80 683 -38 q 660 -186 683 -139 q 593 -266 638 -233 q 478 -316 547 -298 q 314 -334 408 -334 q 187 -319 241 -334 q 96 -278 132 -305 q 42 -213 60 -251 q 25 -128 25 -175 q 38 -57 25 -87 q 73 -4 51 -26 q 125 32 96 17 q 187 53 155 46 q 140 94 158 66 q 122 159 122 122 q 143 231 122 201 q 212 291 165 262 q 158 324 182 303 q 118 373 134 346 q 92 433 101 401 q 83 500 83 466 q 99 608 83 561 q 150 689 116 656 q 233 740 183 722 q 348 758 282 758 q 400 754 373 758 q 445 745 427 750 l 692 745 m 141 -126 q 150 -173 141 -151 q 179 -211 159 -195 q 232 -235 199 -226 q 314 -245 265 -245 q 503 -205 440 -245 q 566 -92 566 -166 q 558 -41 566 -61 q 531 -10 550 -21 q 482 4 512 0 q 407 8 451 8 l 287 8 q 238 3 263 8 q 190 -17 212 -2 q 155 -58 169 -32 q 141 -126 141 -84 m 206 504 q 242 388 206 426 q 344 350 278 350 q 446 388 411 350 q 480 506 480 426 q 445 629 480 590 q 343 669 410 669 q 241 628 277 669 q 206 504 206 587 m 467 1045 q 450 1003 458 1028 q 433 948 441 977 q 418 892 424 920 q 410 842 412 864 l 288 842 l 288 856 q 302 898 291 872 q 328 954 312 925 q 362 1012 343 983 q 400 1064 381 1041 l 467 1064 l 467 1045 "},"Ẵ":{"x_min":-0.25,"x_max":844.25,"ha":844,"o":"m 715 0 l 606 307 l 237 307 l 127 0 l 0 0 l 364 996 l 479 996 l 844 0 l 715 0 m 566 419 l 466 706 q 456 736 462 719 q 444 774 450 754 q 432 817 438 795 q 421 860 426 839 q 410 816 416 839 q 397 773 404 794 q 386 735 391 752 q 376 706 380 718 l 277 419 l 566 419 m 624 1251 q 606 1176 620 1210 q 565 1120 591 1143 q 502 1083 539 1096 q 417 1071 464 1071 q 269 1118 318 1071 q 216 1251 220 1165 l 289 1251 q 301 1205 291 1221 q 326 1179 310 1188 q 365 1168 342 1171 q 418 1166 388 1166 q 465 1169 443 1166 q 504 1181 487 1172 q 532 1207 521 1190 q 547 1251 543 1224 l 624 1251 m 515 1305 q 467 1314 491 1305 q 419 1335 443 1324 q 374 1356 396 1347 q 334 1366 353 1366 q 292 1352 307 1366 q 269 1303 278 1337 l 206 1303 q 219 1363 209 1336 q 245 1411 229 1391 q 283 1442 261 1431 q 334 1454 305 1454 q 384 1444 359 1454 q 432 1423 409 1434 q 476 1402 455 1411 q 515 1392 497 1392 q 556 1407 542 1392 q 580 1455 571 1421 l 643 1455 q 630 1395 639 1422 q 604 1347 620 1367 q 566 1316 588 1327 q 515 1305 544 1305 "},"り":{"x_min":33.90625,"x_max":139.71875,"ha":174,"o":"m 72 -11 l 64 3 q 112 26 100 9 q 123 83 123 40 q 120 107 123 99 q 112 115 118 115 q 105 111 110 115 q 96 101 100 107 l 86 111 q 113 131 99 131 q 132 119 126 131 q 139 80 139 106 q 128 19 139 37 q 72 -11 111 -4 m 54 124 q 50 69 50 95 q 50 31 50 56 l 35 29 q 33 68 33 55 q 38 126 33 100 l 54 124 "},"⒅":{"x_min":12.203125,"x_max":161.421875,"ha":174,"o":"m 37 130 l 45 130 q 21 61 21 100 q 45 -5 21 24 l 37 -5 q 12 61 12 21 q 37 130 12 103 m 136 -5 l 128 -5 q 152 61 152 24 q 128 130 152 100 l 136 130 q 161 61 161 103 q 136 -5 161 21 m 109 64 q 125 44 125 56 q 119 29 125 35 q 102 23 112 23 q 84 28 90 23 q 78 44 78 33 q 92 63 78 56 q 81 82 81 71 q 86 95 81 90 q 102 100 92 100 q 117 95 111 100 q 123 82 123 90 q 109 64 123 70 m 102 67 q 113 82 113 73 q 110 90 113 87 q 101 92 107 92 q 93 90 96 92 q 90 82 90 87 q 102 67 90 73 m 101 60 q 88 44 88 54 q 91 34 88 37 q 101 31 94 31 q 112 34 109 31 q 116 44 116 37 q 102 59 116 52 l 101 60 m 66 25 l 57 25 l 57 71 l 57 89 l 44 78 l 39 84 l 59 99 l 66 99 l 66 25 "},"⁴":{"x_min":1.359375,"x_max":55.609375,"ha":58,"o":"m 55 65 l 44 65 l 44 49 l 32 49 l 32 65 l 1 65 l 1 75 l 33 124 l 44 124 l 44 76 l 55 76 l 55 65 m 32 76 l 32 93 q 33 109 32 101 q 26 96 30 103 l 13 76 l 32 76 "},"ę":{"x_min":77,"x_max":673,"ha":743,"o":"m 412 -14 q 276 11 337 -14 q 170 84 214 36 q 101 203 125 132 q 77 366 77 274 q 99 531 77 458 q 162 654 121 604 q 259 731 202 705 q 384 758 316 758 q 505 733 451 758 q 595 665 558 709 q 653 560 633 621 q 673 423 673 498 l 673 346 l 204 346 q 259 155 207 216 q 413 93 311 93 q 477 97 448 93 q 534 107 507 100 q 587 123 561 113 q 639 145 613 133 l 639 35 q 586 13 612 22 q 533 -2 560 3 q 476 -11 505 -8 q 412 -14 446 -14 m 384 655 q 260 602 306 655 q 207 449 214 549 l 545 449 q 536 533 545 495 q 507 598 526 571 q 457 640 487 625 q 384 655 427 655 m 506 -140 q 524 -185 506 -170 q 566 -199 542 -199 q 599 -197 583 -199 q 625 -193 615 -196 l 625 -270 q 585 -278 607 -275 q 544 -281 564 -281 q 442 -245 476 -281 q 409 -149 409 -210 q 418 -95 409 -121 q 444 -48 428 -70 q 477 -9 459 -27 q 513 21 496 8 l 600 21 q 506 -140 506 -69 "},"ố":{"x_min":77,"x_max":764,"ha":802,"o":"m 725 373 q 702 208 725 280 q 637 86 679 135 q 534 11 594 37 q 398 -14 474 -14 q 270 11 329 -14 q 168 86 211 37 q 101 208 125 135 q 77 373 77 280 q 99 537 77 465 q 164 657 122 608 q 267 732 206 707 q 403 758 327 758 q 531 732 472 758 q 633 657 590 707 q 700 537 676 608 q 725 373 725 465 m 204 373 q 250 159 204 231 q 401 88 297 88 q 551 159 506 88 q 597 373 597 231 q 551 585 597 515 q 400 655 504 655 q 250 585 295 655 q 204 373 204 515 m 609 842 l 541 842 q 469 893 506 865 q 398 954 433 922 q 325 893 361 922 q 254 842 289 865 l 186 842 l 186 860 q 260 945 220 900 q 332 1037 300 990 l 463 1037 q 535 945 495 990 q 609 860 574 900 l 609 842 m 556 991 q 580 1023 569 1008 q 601 1054 591 1039 q 621 1087 611 1070 q 642 1128 631 1105 l 764 1128 l 764 1113 q 697 1038 733 1073 q 624 974 661 1003 l 556 974 l 556 991 "},"︷":{"x_min":10.859375,"x_max":162.78125,"ha":174,"o":"m 162 10 l 149 10 q 146 22 149 18 q 136 25 143 25 l 108 25 q 87 45 90 25 l 86 45 q 65 25 82 25 l 37 25 q 27 22 30 25 q 23 10 23 18 l 10 10 q 17 33 11 25 q 35 40 23 40 l 64 40 q 76 46 72 40 q 80 62 80 51 l 93 62 q 97 46 93 51 q 109 40 101 40 l 137 40 q 155 33 149 40 q 162 10 162 25 "},"で":{"x_min":15.59375,"x_max":161.421875,"ha":174,"o":"m 158 122 l 157 107 q 113 104 120 107 q 88 82 102 99 q 74 44 74 64 q 88 16 74 26 q 140 7 103 7 l 137 -8 q 59 44 59 -6 q 69 78 59 61 q 95 105 79 94 l 94 106 l 16 99 l 15 114 l 158 122 m 161 79 l 151 73 q 134 98 145 88 l 143 104 q 161 79 154 94 m 145 70 l 136 64 q 118 89 128 80 l 127 95 q 145 70 138 84 "},"ắ":{"x_min":64,"x_max":626,"ha":737,"o":"m 536 0 l 511 102 l 505 102 q 461 50 483 72 q 412 13 439 28 q 353 -7 386 0 q 278 -14 321 -14 q 193 0 232 -14 q 125 40 153 12 q 80 109 96 67 q 64 208 64 151 q 142 379 64 320 q 379 445 220 439 l 503 450 l 503 496 q 494 572 503 541 q 465 620 484 602 q 419 647 447 639 q 357 655 392 655 q 253 639 301 655 q 160 599 204 623 l 117 692 q 228 739 167 720 q 357 758 290 758 q 477 744 427 758 q 560 700 527 730 q 609 623 593 669 q 626 509 626 576 l 626 0 l 536 0 m 310 88 q 386 101 351 88 q 447 140 422 114 q 488 205 473 166 q 502 298 502 245 l 502 365 l 405 360 q 303 346 345 357 q 237 316 262 336 q 202 270 213 297 q 191 208 191 243 q 224 117 191 146 q 310 88 257 88 m 321 1036 q 345 1068 334 1053 q 366 1098 356 1083 q 386 1132 376 1114 q 407 1173 396 1150 l 529 1173 l 529 1158 q 462 1082 498 1117 q 389 1018 426 1047 l 321 1018 l 321 1036 m 570 1022 q 552 947 566 981 q 511 891 537 914 q 448 854 485 867 q 363 842 410 842 q 215 889 264 842 q 162 1022 166 936 l 235 1022 q 247 976 237 992 q 272 950 256 959 q 311 939 288 942 q 364 937 334 937 q 411 940 389 937 q 450 952 433 943 q 478 978 467 961 q 493 1022 489 995 l 570 1022 "},"฿":{"x_min":12.203125,"x_max":88.84375,"ha":96,"o":"m 12 124 l 42 124 l 42 131 l 53 131 l 53 123 q 85 92 85 120 q 60 65 85 69 l 60 65 q 88 35 88 60 q 79 10 88 20 q 53 0 70 1 l 53 -10 l 42 -10 l 42 0 l 12 0 l 12 124 m 28 71 l 42 71 l 42 110 l 28 110 l 28 71 m 53 109 l 53 71 q 69 91 69 74 q 53 109 69 106 m 28 13 l 42 13 l 42 58 l 28 58 l 28 13 m 53 57 l 53 14 q 71 36 71 16 q 53 57 71 54 "},"ΐ":{"x_min":-19,"x_max":428,"ha":454,"o":"m 234 743 l 234 220 q 255 121 234 154 q 326 88 277 88 q 353 89 338 88 q 383 93 368 91 q 409 97 397 95 q 428 102 421 100 l 428 8 q 405 0 419 3 q 375 -7 391 -4 q 341 -12 358 -10 q 307 -14 323 -14 q 229 -3 265 -14 q 167 34 193 7 q 125 105 140 60 q 111 219 111 150 l 111 743 l 234 743 m 140 959 q 155 1005 147 980 q 172 1057 164 1030 q 187 1112 180 1084 q 200 1164 195 1139 l 341 1164 l 341 1150 q 312 1102 328 1128 q 277 1049 296 1076 q 237 994 258 1022 q 195 942 217 967 l 140 942 l 140 959 m -19 945 q -4 998 -19 982 q 30 1015 9 1015 q 48 1010 39 1015 q 64 998 57 1006 q 74 977 70 989 q 78 945 78 964 q 63 892 78 909 q 30 876 49 876 q -4 892 9 876 q -19 945 -19 909 m 310 945 q 324 998 310 982 q 359 1015 338 1015 q 377 1010 368 1015 q 393 998 386 1006 q 403 977 399 989 q 408 945 408 964 q 393 892 408 909 q 359 876 378 876 q 324 892 338 876 q 310 945 310 909 "},"²":{"x_min":33,"x_max":421.734375,"ha":460,"o":"m 421 397 l 33 397 l 33 472 l 175 627 q 238 697 214 669 q 277 749 263 726 q 295 791 290 771 q 301 834 301 811 q 278 899 301 878 q 219 920 255 920 q 152 903 184 920 q 90 860 120 886 l 37 924 q 118 981 73 958 q 219 1004 164 1004 q 293 992 260 1004 q 349 960 326 981 q 385 907 372 938 q 398 837 398 876 q 387 774 398 803 q 356 715 376 744 q 307 655 336 686 q 239 587 277 624 l 129 480 l 421 480 l 421 397 "},"┘":{"x_min":-2.03125,"x_max":59.6875,"ha":104,"o":"m 59 60 l -2 60 l -2 74 l 44 74 l 44 172 l 59 172 l 59 60 "},"≌":{"x_min":35.265625,"x_max":138.359375,"ha":174,"o":"m 61 124 l 61 113 q 50 109 54 113 q 46 98 46 105 q 50 86 46 90 q 60 82 54 82 q 81 98 70 82 l 86 107 q 99 121 93 117 q 113 124 105 124 q 131 117 124 124 q 138 97 138 109 q 130 78 138 86 q 113 71 123 71 l 111 82 q 122 86 118 82 q 126 97 126 90 q 122 108 126 104 q 111 113 118 113 q 103 110 107 113 q 92 97 99 107 l 87 89 q 61 71 74 71 q 42 79 49 71 q 35 98 35 86 q 42 117 35 109 q 61 124 50 124 m 47 41 l 47 54 l 126 54 l 126 41 l 47 41 m 47 13 l 47 26 l 126 26 l 126 13 l 47 13 "},"↝":{"x_min":28.484375,"x_max":145.140625,"ha":174,"o":"m 117 50 l 106 71 q 103 78 103 76 q 106 81 103 81 q 111 78 108 81 l 141 52 q 145 44 145 48 q 141 36 145 40 l 111 10 q 106 7 108 7 q 103 10 103 7 q 106 16 103 12 l 118 40 q 96 33 109 33 q 73 39 88 33 q 50 45 59 45 q 28 33 40 45 l 28 44 q 51 54 37 54 q 74 48 59 54 q 96 42 89 42 q 117 50 109 42 "},"©":{"x_min":68,"x_max":1088,"ha":1156,"o":"m 604 713 q 531 698 563 713 q 477 655 499 683 q 444 587 455 627 q 433 495 433 546 q 443 402 433 443 q 473 334 453 361 q 526 291 494 306 q 604 277 559 277 q 638 279 620 277 q 676 286 657 281 q 714 295 695 290 q 751 307 734 301 l 751 218 q 718 205 734 211 q 683 194 701 199 q 645 187 665 189 q 600 185 624 185 q 479 207 531 185 q 393 271 428 229 q 342 370 359 312 q 325 497 325 427 q 343 622 325 566 q 397 719 361 679 q 484 783 432 760 q 604 806 536 806 q 692 794 647 806 q 777 763 736 783 l 734 677 q 666 704 699 694 q 604 713 633 713 m 68 495 q 86 631 68 566 q 137 753 104 696 q 217 856 170 809 q 320 936 264 903 q 442 987 377 969 q 578 1006 507 1006 q 713 987 648 1006 q 835 936 778 969 q 938 856 892 903 q 1018 753 985 809 q 1069 631 1051 696 q 1088 495 1088 566 q 1069 359 1088 425 q 1018 238 1051 294 q 938 134 985 181 q 835 55 892 88 q 713 3 778 21 q 578 -14 648 -14 q 442 3 507 -14 q 320 55 377 21 q 217 134 264 88 q 137 238 170 181 q 86 359 104 294 q 68 495 68 425 m 141 496 q 176 326 141 405 q 269 187 210 247 q 408 94 329 128 q 578 59 487 59 q 747 94 668 59 q 886 187 826 128 q 979 326 945 247 q 1014 496 1014 405 q 979 665 1014 586 q 886 804 945 744 q 747 897 826 863 q 578 932 668 932 q 408 897 487 932 q 269 804 329 863 q 176 665 210 744 q 141 496 141 586 "},"╀":{"x_min":-2.03125,"x_max":105.796875,"ha":104,"o":"m 105 60 l 59 60 l 59 -37 l 44 -37 l 44 60 l -2 60 l -2 74 l 37 74 l 37 172 l 67 172 l 67 74 l 105 74 l 105 60 "},"Ă":{"x_min":-0.25,"x_max":844.25,"ha":844,"o":"m 715 0 l 606 307 l 237 307 l 127 0 l 0 0 l 364 996 l 479 996 l 844 0 l 715 0 m 566 419 l 466 706 q 456 736 462 719 q 444 774 450 754 q 432 817 438 795 q 421 860 426 839 q 410 816 416 839 q 397 773 404 794 q 386 735 391 752 q 376 706 380 718 l 277 419 l 566 419 m 626 1259 q 608 1183 623 1217 q 567 1123 593 1149 q 504 1084 541 1098 q 419 1071 467 1071 q 332 1084 369 1071 q 271 1122 295 1097 q 233 1181 246 1147 q 218 1259 220 1216 l 292 1259 q 304 1212 295 1229 q 330 1186 314 1194 q 369 1175 346 1177 q 422 1172 392 1172 q 468 1175 446 1172 q 508 1188 490 1178 q 537 1214 525 1197 q 551 1259 548 1231 l 626 1259 "},"㎢":{"x_min":10.859375,"x_max":169.5625,"ha":174,"o":"m 169 103 l 134 103 l 134 110 l 147 124 q 158 141 158 135 q 151 149 158 149 q 140 143 146 149 l 135 149 q 151 156 143 156 q 163 152 158 156 q 167 141 167 148 q 163 131 167 136 q 146 111 160 126 l 169 111 l 169 103 m 78 0 l 61 0 l 33 42 l 25 35 l 25 0 l 10 0 l 10 132 l 25 132 l 25 71 l 24 48 l 25 48 l 58 92 l 76 92 l 44 52 l 78 0 m 162 0 l 147 0 l 147 60 q 145 78 147 74 q 140 82 143 82 q 133 76 135 82 q 131 60 131 71 l 131 0 l 116 0 l 116 60 q 114 78 116 74 q 108 82 113 82 q 103 76 105 82 q 101 60 101 71 l 101 0 l 85 0 l 85 92 l 98 92 l 100 82 l 101 82 q 113 94 105 94 q 126 79 124 94 l 127 79 q 144 94 132 94 q 158 86 153 94 q 162 61 162 78 l 162 0 "},"ｐ":{"x_min":47.46875,"x_max":133.609375,"ha":174,"o":"m 63 12 l 62 12 q 63 -6 63 0 l 63 -41 l 47 -41 l 47 92 l 59 92 l 61 81 l 63 81 q 92 94 73 94 q 122 82 111 94 q 133 46 133 69 q 122 10 133 23 q 92 -1 111 -1 q 63 12 72 -1 m 90 82 q 69 73 76 82 q 63 46 63 65 q 69 18 63 26 q 90 10 75 10 q 110 19 104 10 q 117 46 117 28 q 110 73 117 64 q 90 82 104 82 "}," ":{"x_min":0,"x_max":0,"ha":372},"㏃":{"x_min":11.53125,"x_max":162.09375,"ha":174,"o":"m 11 0 l 11 124 l 42 124 q 71 116 61 124 q 81 92 81 108 q 59 65 81 69 l 59 65 q 84 35 84 60 q 75 9 84 18 q 48 0 65 0 l 11 0 m 27 110 l 27 71 l 44 71 q 60 76 54 71 q 65 91 65 81 q 60 105 65 101 q 42 110 54 110 l 27 110 m 27 58 l 27 13 l 46 13 q 62 19 56 13 q 68 36 68 25 q 62 52 68 47 q 44 58 56 58 l 27 58 m 162 -41 l 146 -41 l 146 -2 l 147 12 l 146 12 q 124 -1 139 -1 q 101 10 109 -1 q 92 46 92 22 q 101 82 92 70 q 124 94 109 94 q 146 80 139 94 l 147 80 l 149 92 l 162 92 l 162 -41 m 146 43 l 146 46 q 141 73 146 64 q 126 82 137 82 q 112 73 117 82 q 108 46 108 64 q 112 20 108 29 q 126 11 117 11 q 141 19 137 11 q 146 43 146 27 "},"\\":{"x_min":15.75,"x_max":505.375,"ha":518,"o":"m 136 992 l 505 0 l 384 0 l 15 992 l 136 992 "},"⒙":{"x_min":9.5,"x_max":162.09375,"ha":174,"o":"m 109 65 q 134 32 134 52 q 125 7 134 16 q 98 -1 115 -1 q 70 7 80 -1 q 61 31 61 16 q 84 65 61 53 q 65 96 65 77 q 73 117 65 109 q 98 126 82 126 q 122 117 113 126 q 131 96 131 109 q 109 65 131 76 m 98 71 q 115 95 115 80 q 111 108 115 104 q 97 113 107 113 q 84 108 88 113 q 80 95 80 104 q 98 71 80 80 m 96 59 q 75 31 75 48 q 81 15 75 21 q 97 10 86 10 q 114 16 109 10 q 120 31 120 21 q 115 44 120 39 q 98 57 111 50 l 96 59 m 49 0 l 33 0 l 33 77 q 35 107 33 94 q 24 98 30 103 l 17 92 l 9 103 l 36 124 l 49 124 l 49 0 m 162 9 q 159 0 162 3 q 151 -2 156 -2 q 143 0 145 -2 q 140 9 140 3 q 143 18 140 15 q 151 21 145 21 q 159 18 156 21 q 162 9 162 15 "},"ъ":{"x_min":28,"x_max":865,"ha":942,"o":"m 395 439 l 582 439 q 795 386 726 439 q 865 227 865 333 q 849 133 865 175 q 798 61 833 91 q 710 15 764 31 q 580 0 656 0 l 272 0 l 272 642 l 28 642 l 28 745 l 395 745 l 395 439 m 741 219 q 730 275 741 252 q 697 311 719 297 q 643 330 675 325 q 567 336 610 336 l 395 336 l 395 102 l 570 102 q 638 108 607 102 q 693 127 670 113 q 728 164 715 141 q 741 219 741 186 "},"サ":{"x_min":12.890625,"x_max":160.734375,"ha":174,"o":"m 160 82 l 130 82 l 130 62 q 62 -9 130 8 l 51 5 q 100 27 86 12 q 113 68 113 42 l 113 82 l 60 82 l 60 35 l 44 35 l 44 82 l 12 82 l 12 99 l 44 99 l 44 132 l 60 132 l 60 99 l 113 99 l 113 134 l 130 134 l 130 99 l 160 99 l 160 82 "},"ς":{"x_min":77,"x_max":596,"ha":632,"o":"m 204 351 q 213 245 204 286 q 248 177 223 204 q 315 135 272 151 q 424 104 358 119 q 504 78 472 94 q 556 42 536 62 q 584 -1 576 22 q 593 -54 593 -25 q 585 -114 593 -84 q 567 -172 578 -144 q 541 -225 555 -200 q 511 -272 526 -250 l 396 -272 q 426 -225 412 -250 q 451 -177 440 -201 q 469 -129 463 -152 q 476 -87 476 -107 q 471 -61 476 -74 q 450 -37 466 -48 q 403 -15 434 -25 q 321 5 373 -4 q 224 37 269 15 q 147 99 180 59 q 95 200 114 139 q 77 349 77 261 q 101 530 77 454 q 170 657 126 607 q 275 733 215 708 q 408 758 336 758 q 511 746 461 758 q 596 718 562 735 l 559 614 q 524 627 543 621 q 485 638 505 633 q 445 647 465 644 q 408 650 425 650 q 315 630 354 650 q 252 573 276 611 q 216 479 227 535 q 204 351 204 423 "},"ㅓ":{"x_min":48.15625,"x_max":113.265625,"ha":174,"o":"m 99 135 l 113 135 l 113 -10 l 99 -10 l 99 66 l 48 66 l 48 79 l 99 79 l 99 135 "},"ﾄ":{"x_min":25.765625,"x_max":85.453125,"ha":87,"o":"m 85 64 l 79 51 q 41 69 61 63 l 41 -9 l 25 -9 l 25 134 l 41 134 l 41 85 q 85 64 65 78 "},"ç":{"x_min":77,"x_max":596,"ha":643,"o":"m 402 -14 q 274 7 334 -14 q 171 75 215 28 q 102 193 127 121 q 77 367 77 266 q 102 548 77 474 q 173 669 128 623 q 278 736 218 715 q 408 758 339 758 q 511 746 461 758 q 596 718 562 735 l 559 614 q 524 627 543 621 q 485 638 505 633 q 445 647 465 644 q 408 650 425 650 q 253 581 302 650 q 204 369 204 513 q 253 160 204 226 q 402 93 302 93 q 502 106 457 93 q 583 135 546 118 l 583 26 q 504 -3 546 6 q 402 -14 463 -14 m 495 -194 q 447 -297 495 -260 q 297 -334 399 -334 q 267 -331 282 -334 q 242 -327 252 -329 l 242 -254 q 268 -257 252 -256 q 295 -258 285 -258 q 370 -247 343 -258 q 397 -208 397 -235 q 388 -186 397 -195 q 364 -169 379 -176 q 327 -157 349 -162 q 282 -147 306 -152 l 343 0 l 425 0 l 386 -78 q 429 -92 409 -83 q 463 -115 448 -101 q 486 -148 478 -128 q 495 -194 495 -168 "},"Й":{"x_min":136,"x_max":879,"ha":1013,"o":"m 136 992 l 262 992 l 262 449 q 261 410 262 431 q 260 366 261 389 q 259 321 260 343 q 257 276 258 298 q 251 174 254 226 l 256 174 l 725 992 l 879 992 l 879 0 l 752 0 l 752 538 q 754 624 752 576 q 759 717 756 673 q 765 821 762 768 l 760 821 l 289 0 l 136 0 l 136 992 m 754 1287 q 733 1193 749 1234 q 685 1126 716 1153 q 605 1084 653 1098 q 489 1071 557 1071 q 372 1084 420 1071 q 295 1124 324 1097 q 251 1192 265 1151 q 234 1287 237 1232 l 349 1287 q 361 1219 352 1245 q 388 1178 371 1193 q 430 1158 405 1163 q 492 1152 456 1152 q 547 1159 522 1152 q 590 1181 572 1166 q 620 1222 608 1197 q 635 1287 631 1248 l 754 1287 "},"⒫":{"x_min":12.203125,"x_max":161.421875,"ha":174,"o":"m 37 130 l 45 130 q 21 61 21 100 q 45 -5 21 24 l 37 -5 q 12 61 12 21 q 37 130 12 103 m 136 -5 l 128 -5 q 152 61 152 24 q 128 130 152 100 l 136 130 q 161 61 161 103 q 136 -5 161 21 m 73 31 l 73 31 q 73 21 73 23 l 73 0 l 64 0 l 64 80 l 71 80 l 73 73 l 73 73 q 92 82 80 82 q 109 74 103 82 q 116 52 116 67 q 109 31 116 38 q 92 23 103 23 q 73 31 80 23 m 90 73 q 77 68 82 73 q 73 52 73 63 q 77 36 73 40 q 90 31 82 31 q 103 36 99 31 q 107 52 107 42 q 103 68 107 63 q 90 73 99 73 "},"ミ":{"x_min":23.734375,"x_max":149.203125,"ha":174,"o":"m 144 113 l 140 97 q 29 113 85 110 l 31 130 q 144 113 95 124 m 137 65 l 133 48 q 35 67 93 61 l 37 84 q 137 65 89 78 m 149 5 l 143 -10 q 23 13 101 5 l 25 30 q 149 5 99 23 "},"ċ":{"x_min":77,"x_max":596,"ha":643,"o":"m 402 -14 q 274 7 334 -14 q 171 75 215 28 q 102 193 127 121 q 77 367 77 266 q 102 548 77 474 q 173 669 128 623 q 278 736 218 715 q 408 758 339 758 q 511 746 461 758 q 596 718 562 735 l 559 614 q 524 627 543 621 q 485 638 505 633 q 445 647 465 644 q 408 650 425 650 q 253 581 302 650 q 204 369 204 513 q 253 160 204 226 q 402 93 302 93 q 502 106 457 93 q 583 135 546 118 l 583 26 q 504 -3 546 6 q 402 -14 463 -14 m 317 945 q 337 1004 317 986 q 388 1023 358 1023 q 417 1018 403 1023 q 440 1004 430 1014 q 455 980 449 995 q 461 945 461 966 q 440 887 461 906 q 388 868 418 868 q 337 886 358 868 q 317 945 317 905 "},"㎿":{"x_min":0.671875,"x_max":172.953125,"ha":174,"o":"m 172 124 l 154 0 l 141 0 l 132 61 q 129 88 130 71 q 126 61 128 79 l 116 0 l 103 0 l 86 124 l 101 124 l 110 39 q 114 73 111 56 l 122 124 l 137 124 l 144 73 q 147 39 146 56 q 151 71 149 54 l 157 124 l 172 124 m 84 0 l 70 0 l 70 67 q 71 99 70 69 l 71 99 l 50 0 l 35 0 l 14 99 l 14 99 q 15 67 15 70 l 15 0 l 0 0 l 0 124 l 23 124 l 42 30 l 43 30 l 62 124 l 84 124 l 84 0 "},"}":{"x_min":36,"x_max":451,"ha":492,"o":"m 153 214 q 193 328 153 286 q 311 383 233 369 l 311 391 q 193 446 233 405 q 153 559 153 488 l 153 783 q 145 836 153 815 q 122 868 137 857 q 84 885 106 880 q 36 890 63 889 l 36 992 q 132 980 87 991 q 208 944 176 968 q 258 883 240 920 q 277 793 277 846 l 277 567 q 288 507 277 531 q 321 467 299 483 q 376 445 343 452 q 451 439 408 439 l 451 337 q 321 307 366 337 q 277 208 277 278 l 277 -19 q 258 -110 277 -73 q 208 -172 240 -148 q 132 -208 176 -196 q 36 -220 87 -219 l 36 -118 q 84 -113 63 -117 q 122 -96 106 -108 q 145 -64 137 -84 q 153 -10 153 -43 l 153 214 "},"Δ":{"x_min":25,"x_max":765,"ha":789,"o":"m 765 84 l 765 0 l 25 0 l 25 90 l 330 992 l 457 992 l 765 84 m 393 852 q 367 745 381 802 q 333 626 352 688 l 158 111 l 631 111 l 457 622 q 419 745 435 688 q 393 852 403 802 "},"‰":{"x_min":69,"x_max":1555,"ha":1624,"o":"m 169 695 q 193 527 169 583 q 271 471 217 471 q 377 695 377 471 q 271 917 377 917 q 193 862 217 917 q 169 695 169 807 m 478 695 q 465 564 478 622 q 428 465 453 505 q 364 404 403 425 q 271 383 325 383 q 184 404 222 383 q 120 465 146 425 q 81 564 94 505 q 69 695 69 622 q 80 826 69 769 q 117 924 92 884 q 180 984 142 963 q 271 1006 218 1006 q 360 984 322 1006 q 425 924 399 963 q 464 826 451 884 q 478 695 478 769 m 769 297 q 793 129 769 185 q 871 74 817 74 q 976 297 976 74 q 871 519 976 519 q 793 464 817 519 q 769 297 769 409 m 1077 298 q 1065 166 1077 224 q 1028 68 1053 108 q 964 7 1003 28 q 871 -14 925 -14 q 783 7 821 -14 q 720 68 745 28 q 681 166 694 108 q 669 298 669 224 q 680 428 669 371 q 717 526 692 486 q 780 586 742 565 q 871 608 818 608 q 960 586 922 608 q 1024 526 999 565 q 1063 428 1050 486 q 1077 298 1077 371 m 903 992 l 352 0 l 245 0 l 796 992 l 903 992 m 1247 297 q 1271 129 1247 185 q 1349 74 1295 74 q 1454 297 1454 74 q 1349 519 1454 519 q 1271 464 1295 519 q 1247 297 1247 409 m 1555 298 q 1543 166 1555 224 q 1506 68 1531 108 q 1442 7 1481 28 q 1349 -14 1403 -14 q 1261 7 1299 -14 q 1198 68 1223 28 q 1159 166 1172 108 q 1147 298 1147 224 q 1158 428 1147 371 q 1195 526 1170 486 q 1258 586 1220 565 q 1349 608 1296 608 q 1438 586 1399 608 q 1502 526 1477 565 q 1541 428 1528 486 q 1555 298 1555 371 "},"Ä":{"x_min":-0.25,"x_max":844.25,"ha":844,"o":"m 715 0 l 606 307 l 237 307 l 127 0 l 0 0 l 364 996 l 479 996 l 844 0 l 715 0 m 566 419 l 466 706 q 456 736 462 719 q 444 774 450 754 q 432 817 438 795 q 421 860 426 839 q 410 816 416 839 q 397 773 404 794 q 386 735 391 752 q 376 706 380 718 l 277 419 l 566 419 m 230 1174 q 248 1227 230 1211 q 295 1244 267 1244 q 341 1227 321 1244 q 360 1174 360 1210 q 341 1121 360 1138 q 295 1105 321 1105 q 248 1121 267 1105 q 230 1174 230 1138 m 484 1174 q 503 1227 484 1211 q 549 1244 522 1244 q 574 1239 562 1244 q 595 1227 586 1235 q 609 1206 604 1218 q 615 1174 615 1193 q 595 1121 615 1138 q 549 1105 575 1105 q 503 1121 522 1105 q 484 1174 484 1138 "},"—":{"x_min":56,"x_max":1333,"ha":1389,"o":"m 56 315 l 56 429 l 1333 429 l 1333 315 l 56 315 "},"N":{"x_min":135,"x_max":878,"ha":1013,"o":"m 878 0 l 724 0 l 253 821 l 248 821 q 255 717 252 768 q 259 624 257 673 q 261 538 261 576 l 261 0 l 135 0 l 135 992 l 288 992 l 757 174 l 762 174 q 757 276 759 226 q 755 321 756 298 q 753 366 754 343 q 752 410 752 389 q 751 449 751 431 l 751 992 l 878 992 l 878 0 "},"⇄":{"x_min":28.484375,"x_max":145.140625,"ha":174,"o":"m 55 88 l 145 88 l 145 80 l 55 80 l 67 56 q 69 50 69 52 q 67 47 69 47 q 61 50 65 47 l 32 76 q 28 84 28 80 q 32 92 28 88 l 61 118 q 67 121 65 121 q 69 118 69 121 q 67 111 69 116 l 55 88 m 118 17 l 28 17 l 28 25 l 118 25 l 106 49 q 103 56 103 54 q 106 59 103 59 q 111 55 108 59 l 141 29 q 145 21 145 25 q 141 14 145 17 l 111 -12 q 106 -14 108 -14 q 103 -12 103 -14 q 106 -5 103 -10 l 118 17 "},"2":{"x_min":65,"x_max":683.34375,"ha":765,"o":"m 683 0 l 65 0 l 65 105 l 301 364 q 392 464 352 419 q 460 553 432 510 q 503 640 488 596 q 518 736 518 684 q 507 806 518 775 q 474 857 495 836 q 423 890 452 879 q 358 900 394 900 q 242 874 294 900 q 144 808 190 849 l 75 889 q 133 935 102 913 q 200 972 164 956 q 276 996 236 987 q 360 1006 316 1006 q 478 987 425 1006 q 567 935 530 969 q 623 851 603 900 q 644 740 644 802 q 626 630 644 683 q 576 528 608 578 q 501 426 545 477 q 406 320 457 375 l 216 118 l 216 112 l 683 112 l 683 0 "},"ド":{"x_min":57.65625,"x_max":152.59375,"ha":174,"o":"m 151 63 l 145 48 q 74 69 109 61 l 74 -10 l 57 -10 l 57 134 l 74 134 l 74 85 q 151 63 119 76 m 152 105 l 143 99 q 124 123 137 111 l 133 130 q 152 105 147 118 m 138 96 l 128 89 q 109 113 122 101 l 118 120 q 138 96 132 108 "},"ホ":{"x_min":11.53125,"x_max":162.09375,"ha":174,"o":"m 157 91 l 94 91 l 94 10 q 89 -5 94 0 q 73 -10 84 -10 q 56 -8 67 -10 l 54 8 q 73 6 69 6 q 78 12 78 6 l 78 91 l 16 91 l 16 107 l 78 107 l 78 134 l 94 134 l 94 107 l 157 107 l 157 91 m 162 12 l 148 2 q 111 78 124 40 l 126 84 q 162 12 138 48 m 58 77 q 25 2 48 33 l 11 10 q 43 82 31 38 l 58 77 "},"い":{"x_min":17.640625,"x_max":155.984375,"ha":174,"o":"m 72 42 q 41 -5 59 -5 q 23 12 29 -5 q 17 66 17 30 q 20 126 17 102 l 36 122 q 33 66 33 95 q 36 25 33 39 q 42 11 39 11 q 49 21 44 11 q 57 48 53 31 l 72 42 m 155 6 l 139 6 l 139 12 q 134 71 139 40 q 122 121 129 101 l 137 125 q 150 72 145 105 q 155 12 155 40 l 155 6 "},"‍":{"x_min":0,"x_max":0,"ha":0},"Ó":{"x_min":85,"x_max":945,"ha":1031,"o":"m 945 496 q 917 287 945 382 q 835 126 890 193 q 701 22 781 59 q 515 -14 620 -14 q 324 22 405 -14 q 189 126 243 59 q 110 288 136 193 q 85 498 85 382 q 110 707 85 613 q 190 867 136 801 q 325 970 243 934 q 517 1007 406 1007 q 701 970 622 1007 q 835 867 781 934 q 917 706 890 800 q 945 496 945 612 m 218 497 q 236 330 218 404 q 290 204 253 255 q 382 124 326 152 q 515 97 438 97 q 648 124 593 97 q 741 204 704 152 q 794 330 777 255 q 811 497 811 404 q 794 664 811 590 q 741 789 777 738 q 649 868 705 840 q 517 895 594 895 q 383 868 439 895 q 290 789 327 840 q 236 664 253 738 q 218 497 218 590 m 441 1089 q 471 1134 455 1108 q 503 1187 487 1160 q 534 1242 519 1215 q 559 1293 548 1269 l 708 1293 l 708 1278 q 675 1233 697 1260 q 628 1175 654 1205 q 574 1118 602 1146 q 523 1071 546 1089 l 441 1071 l 441 1089 "},"Ў":{"x_min":16.75,"x_max":813.25,"ha":813,"o":"m 813 992 l 522 289 q 468 172 496 227 q 402 75 440 116 q 311 10 364 34 q 183 -14 258 -14 q 117 -8 148 -14 q 62 6 87 -3 l 62 131 q 117 106 87 116 q 183 97 147 97 q 246 105 219 97 q 297 130 274 112 q 338 178 319 149 q 376 250 357 207 l 16 992 l 155 992 l 415 440 q 422 425 418 433 q 428 408 425 417 q 434 391 431 399 q 440 377 437 383 l 441 377 q 447 394 443 383 q 455 416 451 404 q 462 437 458 427 q 468 451 466 447 l 679 992 l 813 992 m 684 1287 q 663 1193 679 1234 q 615 1126 646 1153 q 535 1084 583 1098 q 419 1071 487 1071 q 302 1084 350 1071 q 225 1124 254 1097 q 181 1192 195 1151 q 164 1287 167 1232 l 279 1287 q 291 1219 282 1245 q 318 1178 301 1193 q 360 1158 335 1163 q 422 1152 386 1152 q 477 1159 452 1152 q 520 1181 502 1166 q 550 1222 538 1197 q 565 1287 561 1248 l 684 1287 "},"㌣":{"x_min":4.75,"x_max":168.203125,"ha":174,"o":"m 78 116 q 54 86 69 101 l 46 93 q 67 116 56 103 l 67 117 l 43 114 l 33 113 l 33 83 q 35 77 33 78 q 53 77 37 77 q 81 79 65 77 l 80 67 q 49 67 59 67 q 30 68 35 67 q 24 74 25 70 q 23 97 23 78 l 23 112 l 6 111 l 4 121 l 23 123 l 23 143 l 33 143 l 33 124 l 73 128 q 81 120 81 120 q 78 116 81 117 m 128 122 l 122 113 q 94 132 109 124 l 100 140 q 128 122 115 132 m 168 124 q 143 85 158 97 q 99 67 128 73 l 96 78 q 135 93 122 82 q 158 128 149 103 l 168 124 m 82 19 l 78 10 q 41 21 59 17 l 41 -19 l 31 -19 l 31 57 l 41 57 l 41 31 q 82 19 65 27 "},"┛":{"x_min":-2.03125,"x_max":67.140625,"ha":104,"o":"m 67 52 l -2 52 l -2 82 l 37 82 l 37 172 l 67 172 l 67 52 "},"╕":{"x_min":-2.03125,"x_max":59.6875,"ha":104,"o":"m 59 -37 l 44 -37 l 44 45 l -2 45 l -2 60 l 44 60 l 44 74 l -2 74 l -2 89 l 59 89 l 59 -37 "},"ぞ":{"x_min":12.203125,"x_max":171.59375,"ha":174,"o":"m 171 126 l 163 120 q 144 141 153 134 l 151 149 q 171 126 162 141 m 157 116 l 149 109 q 129 130 139 124 l 137 138 q 157 116 147 130 m 161 66 l 143 66 q 102 64 112 66 q 84 51 92 61 q 75 31 75 40 q 86 13 75 18 q 116 7 96 7 l 134 8 l 133 -7 l 126 -7 q 75 2 89 -7 q 61 30 61 12 q 67 48 61 38 q 83 63 74 59 l 82 63 q 38 59 71 63 l 14 55 l 12 69 q 50 73 21 71 l 104 115 l 103 116 l 40 111 l 38 126 l 115 130 l 120 132 q 131 120 131 120 q 126 114 131 118 l 72 75 l 72 75 q 122 80 99 79 l 160 81 l 161 66 "},"ǚ":{"x_min":111,"x_max":700,"ha":818,"o":"m 600 0 l 582 99 l 575 99 q 534 48 558 70 q 483 13 511 27 q 424 -7 455 0 q 360 -14 393 -14 q 252 1 299 -14 q 174 50 205 17 q 126 135 142 83 q 111 258 111 186 l 111 745 l 234 745 l 234 264 q 270 132 234 176 q 381 88 306 88 q 474 106 436 88 q 534 158 511 123 q 566 242 556 192 q 576 357 576 292 l 576 745 l 700 745 l 700 0 l 600 0 m 208 945 q 226 998 208 982 q 273 1015 245 1015 q 319 998 299 1015 q 338 945 338 981 q 319 892 338 909 q 273 876 299 876 q 226 892 245 876 q 208 945 208 909 m 462 945 q 481 998 462 982 q 527 1015 500 1015 q 552 1010 540 1015 q 573 998 564 1006 q 587 977 582 989 q 593 945 593 964 q 573 892 593 909 q 527 876 553 876 q 481 892 500 876 q 462 945 462 909 m 625 1073 q 584 1028 608 1054 q 538 975 561 1002 q 495 920 515 947 q 465 870 475 893 l 334 870 q 304 920 324 893 q 261 975 284 947 q 215 1028 238 1002 q 175 1073 192 1054 l 175 1092 l 257 1092 q 327 1036 291 1069 q 400 965 363 1003 q 471 1036 435 1003 q 543 1092 508 1069 l 625 1092 l 625 1073 "},"⊇":{"x_min":33.234375,"x_max":140.390625,"ha":174,"o":"m 33 29 l 33 42 l 79 42 q 115 50 103 42 q 128 75 128 59 q 115 102 128 93 q 79 110 103 110 l 33 110 l 33 123 l 79 123 q 125 110 109 123 q 140 75 140 97 q 124 42 140 55 q 80 29 109 29 l 33 29 m 33 0 l 33 12 l 140 12 l 140 0 l 33 0 "},"Ņ":{"x_min":135,"x_max":878,"ha":1013,"o":"m 878 0 l 724 0 l 253 821 l 248 821 q 255 717 252 768 q 259 624 257 673 q 261 538 261 576 l 261 0 l 135 0 l 135 992 l 288 992 l 757 174 l 762 174 q 757 276 759 226 q 755 321 756 298 q 753 366 754 343 q 752 410 752 389 q 751 449 751 431 l 751 992 l 878 992 l 878 0 m 396 -288 q 412 -246 403 -271 q 429 -191 421 -220 q 443 -135 437 -163 q 452 -85 450 -107 l 575 -85 l 575 -98 q 560 -141 570 -115 q 534 -197 549 -167 q 500 -255 519 -226 q 462 -307 482 -284 l 396 -307 l 396 -288 "},"ﾋ":{"x_min":10.859375,"x_max":75.96875,"ha":87,"o":"m 75 11 l 75 -4 q 39 -5 55 -5 q 16 0 22 -5 q 10 28 10 6 l 10 130 l 25 130 l 25 82 q 65 111 51 97 l 73 101 q 25 66 56 83 l 25 29 q 29 11 25 14 q 44 8 32 8 q 75 11 59 8 "},"•":{"x_min":102,"x_max":421,"ha":522,"o":"m 102 507 q 114 589 102 555 q 147 644 126 623 q 198 675 169 666 q 261 685 227 685 q 323 675 294 685 q 374 644 352 666 q 408 589 395 623 q 421 507 421 555 q 408 425 421 459 q 374 370 395 392 q 323 339 352 349 q 261 329 294 329 q 198 339 227 329 q 147 370 169 349 q 114 425 126 392 q 102 507 102 459 "},"◊":{"x_min":74,"x_max":737,"ha":810,"o":"m 737 499 l 430 0 l 379 0 l 74 498 l 379 1000 l 430 1000 l 737 499 m 618 499 l 405 898 l 175 499 l 405 101 l 618 499 "},"Ỗ":{"x_min":85,"x_max":945,"ha":1031,"o":"m 945 496 q 917 287 945 382 q 835 126 890 193 q 701 22 781 59 q 515 -14 620 -14 q 324 22 405 -14 q 189 126 243 59 q 110 288 136 193 q 85 498 85 382 q 110 707 85 613 q 190 867 136 801 q 325 970 243 934 q 517 1007 406 1007 q 701 970 622 1007 q 835 867 781 934 q 917 706 890 800 q 945 496 945 612 m 218 497 q 236 330 218 404 q 290 204 253 255 q 382 124 326 152 q 515 97 438 97 q 648 124 593 97 q 741 204 704 152 q 794 330 777 255 q 811 497 811 404 q 794 664 811 590 q 741 789 777 738 q 649 868 705 840 q 517 895 594 895 q 383 868 439 895 q 290 789 327 840 q 236 664 253 738 q 218 497 218 590 m 308 1089 q 381 1174 342 1129 q 453 1266 421 1219 l 584 1266 q 656 1174 616 1219 q 730 1089 695 1129 l 730 1071 l 662 1071 q 591 1122 627 1094 q 519 1183 555 1151 q 446 1122 483 1151 q 375 1071 410 1094 l 308 1071 l 308 1089 m 610 1306 q 562 1316 586 1306 q 514 1339 538 1327 q 469 1363 491 1352 q 429 1373 448 1373 q 387 1357 401 1373 q 364 1304 373 1342 l 301 1304 q 314 1364 304 1337 q 340 1412 324 1392 q 378 1443 356 1432 q 429 1455 400 1455 q 479 1444 454 1455 q 527 1421 504 1433 q 572 1397 551 1408 q 610 1387 593 1387 q 651 1403 637 1387 q 675 1456 666 1419 l 738 1456 q 725 1396 734 1423 q 699 1348 715 1368 q 661 1317 683 1328 q 610 1306 639 1306 "},"⒚":{"x_min":9.5,"x_max":162.09375,"ha":174,"o":"m 71 0 l 71 12 q 85 10 77 10 q 121 61 120 10 l 120 61 q 96 46 113 46 q 73 55 82 46 q 64 84 64 65 q 73 114 64 103 q 99 125 83 125 q 126 111 115 125 q 137 71 137 98 q 124 16 137 34 q 86 -1 111 -1 q 71 0 77 -1 m 99 58 q 115 65 108 58 q 122 81 122 71 q 115 104 122 95 q 99 112 108 112 q 84 105 89 112 q 79 84 79 98 q 84 64 79 71 q 99 58 88 58 m 49 0 l 33 0 l 33 77 q 35 107 33 94 q 24 98 30 103 l 17 92 l 9 103 l 36 124 l 49 124 l 49 0 m 162 9 q 159 0 162 3 q 151 -2 156 -2 q 143 0 145 -2 q 140 9 140 3 q 143 18 140 15 q 151 21 145 21 q 159 18 156 21 q 162 9 162 15 "},"Ґ":{"x_min":135,"x_max":649,"ha":682,"o":"m 522 992 l 522 1196 l 649 1196 l 649 880 l 261 880 l 261 0 l 135 0 l 135 992 l 522 992 "},"▅":{"x_min":-2.03125,"x_max":105.796875,"ha":104,"o":"m -2 -37 l -2 93 l 105 93 l 105 -37 l -2 -37 "},"⑹":{"x_min":12.203125,"x_max":161.421875,"ha":174,"o":"m 37 130 l 45 130 q 21 61 21 100 q 45 -5 21 24 l 37 -5 q 12 61 12 21 q 37 130 12 103 m 136 -5 l 128 -5 q 152 61 152 24 q 128 130 152 100 l 136 130 q 161 61 161 103 q 136 -5 161 21 m 104 99 l 104 91 q 96 92 101 92 q 79 85 84 92 q 73 62 73 77 q 88 71 78 71 q 104 65 99 71 q 110 48 110 59 q 104 30 110 37 q 87 23 97 23 q 70 32 76 23 q 63 56 63 40 q 71 89 63 78 q 95 100 79 100 q 104 99 100 100 m 88 64 q 76 60 81 64 q 72 50 72 55 q 76 36 72 42 q 87 31 81 31 q 97 35 94 31 q 101 48 101 40 q 97 60 101 56 q 88 64 94 64 "},"⇍":{"x_min":28.484375,"x_max":145.140625,"ha":174,"o":"m 122 81 l 115 61 l 145 61 l 145 52 l 111 52 l 105 36 l 145 36 l 145 28 l 103 28 l 94 7 l 86 7 l 93 28 l 59 28 l 67 16 q 69 10 69 13 q 67 7 69 7 q 61 10 65 7 l 32 36 q 28 44 28 40 q 32 52 28 48 l 61 78 q 67 81 65 81 q 69 78 69 81 q 67 71 69 75 l 59 61 l 105 61 l 113 81 l 122 81 m 55 36 l 96 36 l 103 52 l 55 52 l 50 44 l 55 36 "},"Ầ":{"x_min":-0.25,"x_max":844.25,"ha":844,"o":"m 715 0 l 606 307 l 237 307 l 127 0 l 0 0 l 364 996 l 479 996 l 844 0 l 715 0 m 566 419 l 466 706 q 456 736 462 719 q 444 774 450 754 q 432 817 438 795 q 421 860 426 839 q 410 816 416 839 q 397 773 404 794 q 386 735 391 752 q 376 706 380 718 l 277 419 l 566 419 m 212 1089 q 285 1174 246 1129 q 357 1266 325 1219 l 488 1266 q 560 1174 520 1219 q 634 1089 599 1129 l 634 1071 l 566 1071 q 495 1122 531 1094 q 423 1183 459 1151 q 350 1122 387 1151 q 279 1071 314 1094 l 212 1071 l 212 1089 m 264 1203 l 196 1203 q 122 1267 158 1232 q 56 1342 86 1302 l 56 1357 l 177 1357 q 198 1316 188 1334 q 218 1283 208 1299 q 239 1252 228 1268 q 264 1220 250 1237 l 264 1203 "}}}
